<ttFont>
    <TTGlyph name=".notdef" xMin="257" yMin="0" xMax="1122" yMax="1291">
      <contour>
        <pt x="1095" y="28" on="1"/>
        <pt x="1095" y="1263" on="1"/>
        <pt x="283" y="1263" on="1"/>
        <pt x="283" y="28" on="1"/>
      </contour>
      <contour>
        <pt x="257" y="1291" on="1"/>
        <pt x="1122" y="1291" on="1"/>
        <pt x="1122" y="0" on="1"/>
        <pt x="257" y="0" on="1"/>
      </contour>
    </TTGlyph>
    <TTGlyph name="A" xMin="-71" yMin="-19" xMax="1355" yMax="1364">
      <contour>
        <pt x="448" y="574" on="1"/>
        <pt x="486" y="576" on="0"/>
        <pt x="549" y="566" on="0"/>
        <pt x="583" y="566" on="1"/>
        <pt x="602" y="566" on="1"/>
        <pt x="606" y="566" on="0"/>
        <pt x="634" y="568" on="0"/>
        <pt x="665" y="571" on="0"/>
        <pt x="693" y="574" on="0"/>
        <pt x="696" y="574" on="1"/>
        <pt x="700" y="574" on="0"/>
        <pt x="734" y="571" on="0"/>
        <pt x="748" y="571" on="1"/>
        <pt x="757" y="571" on="0"/>
        <pt x="770" y="573" on="0"/>
        <pt x="772" y="574" on="1"/>
        <pt x="776" y="574" on="0"/>
        <pt x="791" y="583" on="0"/>
        <pt x="796" y="588" on="1"/>
        <pt x="796" y="616" on="1"/>
        <pt x="796" y="666" on="0"/>
        <pt x="762" y="763" on="0"/>
        <pt x="748" y="810" on="1"/>
        <pt x="748" y="812" on="0"/>
        <pt x="746" y="823" on="0"/>
        <pt x="743" y="836" on="0"/>
        <pt x="741" y="846" on="0"/>
        <pt x="741" y="848" on="1"/>
        <pt x="740" y="849" on="0"/>
        <pt x="734" y="862" on="0"/>
        <pt x="726" y="879" on="0"/>
        <pt x="719" y="893" on="0"/>
        <pt x="717" y="896" on="1"/>
        <pt x="712" y="910" on="0"/>
        <pt x="704" y="949" on="0"/>
        <pt x="694" y="989" on="0"/>
        <pt x="681" y="1027" on="0"/>
        <pt x="672" y="1041" on="1"/>
        <pt x="671" y="1042" on="0"/>
        <pt x="661" y="1053" on="0"/>
        <pt x="649" y="1066" on="0"/>
        <pt x="637" y="1078" on="0"/>
        <pt x="634" y="1080" on="1"/>
        <pt x="631" y="1081" on="0"/>
        <pt x="619" y="1086" on="0"/>
        <pt x="615" y="1086" on="1"/>
        <pt x="613" y="1085" on="0"/>
        <pt x="613" y="1085" on="1"/>
        <pt x="607" y="1079" on="1"/>
        <pt x="602" y="1074" on="0"/>
        <pt x="602" y="1071" on="1"/>
        <pt x="594" y="1047" on="0"/>
        <pt x="578" y="991" on="0"/>
        <pt x="559" y="932" on="0"/>
        <pt x="538" y="874" on="0"/>
        <pt x="526" y="848" on="1"/>
        <pt x="525" y="846" on="0"/>
        <pt x="518" y="833" on="0"/>
        <pt x="511" y="818" on="0"/>
        <pt x="506" y="805" on="0"/>
        <pt x="506" y="803" on="1"/>
        <pt x="503" y="800" on="0"/>
        <pt x="493" y="769" on="0"/>
        <pt x="481" y="730" on="0"/>
        <pt x="470" y="690" on="0"/>
        <pt x="466" y="680" on="1"/>
        <pt x="459" y="659" on="0"/>
        <pt x="442" y="614" on="0"/>
        <pt x="442" y="592" on="1"/>
        <pt x="442" y="587" on="0"/>
        <pt x="443" y="576" on="0"/>
      </contour>
      <contour>
        <pt x="236" y="0" on="1"/>
        <pt x="230" y="0" on="0"/>
        <pt x="198" y="-1" on="0"/>
        <pt x="162" y="-1" on="0"/>
        <pt x="128" y="-2" on="0"/>
        <pt x="121" y="-2" on="1"/>
        <pt x="119" y="-2" on="0"/>
        <pt x="106" y="-4" on="0"/>
        <pt x="91" y="-6" on="0"/>
        <pt x="78" y="-7" on="0"/>
        <pt x="76" y="-7" on="1"/>
        <pt x="68" y="-7" on="0"/>
        <pt x="34" y="-6" on="0"/>
        <pt x="-5" y="-4" on="0"/>
        <pt x="-40" y="-2" on="0"/>
        <pt x="-48" y="-2" on="1"/>
        <pt x="-62" y="2" on="0"/>
        <pt x="-71" y="15" on="0"/>
        <pt x="-71" y="31" on="1"/>
        <pt x="-71" y="45" on="0"/>
        <pt x="-56" y="61" on="0"/>
        <pt x="-32" y="69" on="0"/>
        <pt x="-1" y="71" on="0"/>
        <pt x="14" y="71" on="1"/>
        <pt x="30" y="71" on="0"/>
        <pt x="57" y="72" on="0"/>
        <pt x="68" y="74" on="1"/>
        <pt x="70" y="76" on="0"/>
        <pt x="82" y="88" on="0"/>
        <pt x="82" y="90" on="1"/>
        <pt x="84" y="93" on="0"/>
        <pt x="97" y="104" on="0"/>
        <pt x="113" y="117" on="0"/>
        <pt x="126" y="128" on="0"/>
        <pt x="128" y="130" on="1"/>
        <pt x="161" y="159" on="0"/>
        <pt x="190" y="228" on="0"/>
        <pt x="205" y="266" on="1"/>
        <pt x="237" y="348" on="0"/>
        <pt x="316" y="504" on="0"/>
        <pt x="350" y="588" on="1"/>
        <pt x="351" y="589" on="0"/>
        <pt x="355" y="602" on="0"/>
        <pt x="360" y="616" on="0"/>
        <pt x="365" y="630" on="0"/>
        <pt x="365" y="633" on="1"/>
        <pt x="366" y="636" on="0"/>
        <pt x="370" y="652" on="0"/>
        <pt x="376" y="671" on="0"/>
        <pt x="381" y="687" on="0"/>
        <pt x="383" y="689" on="1"/>
        <pt x="383" y="690" on="0"/>
        <pt x="397" y="709" on="0"/>
        <pt x="397" y="713" on="1"/>
        <pt x="399" y="716" on="0"/>
        <pt x="407" y="733" on="0"/>
        <pt x="416" y="752" on="0"/>
        <pt x="424" y="769" on="0"/>
        <pt x="426" y="772" on="1"/>
        <pt x="428" y="774" on="0"/>
        <pt x="434" y="794" on="0"/>
        <pt x="436" y="796" on="1"/>
        <pt x="437" y="797" on="0"/>
        <pt x="441" y="805" on="0"/>
        <pt x="445" y="816" on="0"/>
        <pt x="448" y="825" on="0"/>
        <pt x="448" y="827" on="1"/>
        <pt x="449" y="830" on="0"/>
        <pt x="454" y="852" on="0"/>
        <pt x="460" y="877" on="0"/>
        <pt x="464" y="899" on="0"/>
        <pt x="466" y="901" on="1"/>
        <pt x="467" y="906" on="0"/>
        <pt x="480" y="922" on="0"/>
        <pt x="481" y="924" on="1"/>
        <pt x="481" y="926" on="0"/>
        <pt x="488" y="946" on="0"/>
        <pt x="488" y="948" on="1"/>
        <pt x="489" y="950" on="0"/>
        <pt x="499" y="968" on="0"/>
        <pt x="509" y="989" on="0"/>
        <pt x="518" y="1007" on="0"/>
        <pt x="519" y="1010" on="1"/>
        <pt x="520" y="1011" on="0"/>
        <pt x="524" y="1022" on="0"/>
        <pt x="528" y="1035" on="0"/>
        <pt x="532" y="1046" on="0"/>
        <pt x="533" y="1048" on="1"/>
        <pt x="537" y="1051" on="0"/>
        <pt x="542" y="1062" on="0"/>
        <pt x="544" y="1062" on="1"/>
        <pt x="545" y="1064" on="0"/>
        <pt x="558" y="1080" on="0"/>
        <pt x="573" y="1099" on="0"/>
        <pt x="586" y="1116" on="0"/>
        <pt x="587" y="1118" on="1"/>
        <pt x="588" y="1118" on="0"/>
        <pt x="590" y="1128" on="0"/>
        <pt x="592" y="1133" on="1"/>
        <pt x="594" y="1139" on="0"/>
        <pt x="595" y="1147" on="1"/>
        <pt x="600" y="1165" on="0"/>
        <pt x="613" y="1194" on="0"/>
        <pt x="613" y="1214" on="1"/>
        <pt x="613" y="1224" on="0"/>
        <pt x="607" y="1242" on="0"/>
        <pt x="600" y="1258" on="0"/>
        <pt x="594" y="1275" on="0"/>
        <pt x="594" y="1285" on="1"/>
        <pt x="594" y="1294" on="1"/>
        <pt x="594" y="1297" on="0"/>
        <pt x="595" y="1301" on="1"/>
        <pt x="598" y="1305" on="0"/>
        <pt x="617" y="1310" on="0"/>
        <pt x="641" y="1314" on="0"/>
        <pt x="665" y="1318" on="0"/>
        <pt x="672" y="1323" on="1"/>
        <pt x="690" y="1337" on="0"/>
        <pt x="718" y="1359" on="0"/>
        <pt x="741" y="1362" on="1"/>
        <pt x="757" y="1364" on="0"/>
        <pt x="788" y="1344" on="0"/>
        <pt x="796" y="1332" on="1"/>
        <pt x="817" y="1287" on="0"/>
        <pt x="838" y="1192" on="0"/>
        <pt x="855" y="1147" on="1"/>
        <pt x="856" y="1147" on="0"/>
        <pt x="861" y="1138" on="0"/>
        <pt x="867" y="1128" on="0"/>
        <pt x="871" y="1118" on="0"/>
        <pt x="871" y="1118" on="1"/>
        <pt x="871" y="1114" on="0"/>
        <pt x="876" y="1088" on="0"/>
        <pt x="882" y="1060" on="0"/>
        <pt x="887" y="1035" on="0"/>
        <pt x="888" y="1031" on="1"/>
        <pt x="889" y="1025" on="0"/>
        <pt x="893" y="1004" on="0"/>
        <pt x="898" y="982" on="0"/>
        <pt x="903" y="964" on="0"/>
        <pt x="903" y="962" on="1"/>
        <pt x="904" y="957" on="0"/>
        <pt x="918" y="920" on="0"/>
        <pt x="933" y="876" on="0"/>
        <pt x="947" y="838" on="0"/>
        <pt x="950" y="834" on="1"/>
        <pt x="950" y="833" on="0"/>
        <pt x="951" y="825" on="0"/>
        <pt x="952" y="815" on="0"/>
        <pt x="954" y="806" on="0"/>
        <pt x="955" y="803" on="1"/>
        <pt x="956" y="801" on="0"/>
        <pt x="958" y="790" on="0"/>
        <pt x="960" y="777" on="0"/>
        <pt x="962" y="766" on="0"/>
        <pt x="962" y="765" on="1"/>
        <pt x="962" y="764" on="0"/>
        <pt x="967" y="755" on="0"/>
        <pt x="973" y="744" on="0"/>
        <pt x="979" y="734" on="0"/>
        <pt x="980" y="734" on="1"/>
        <pt x="980" y="732" on="0"/>
        <pt x="984" y="714" on="0"/>
        <pt x="989" y="693" on="0"/>
        <pt x="993" y="674" on="0"/>
        <pt x="993" y="671" on="1"/>
        <pt x="994" y="670" on="0"/>
        <pt x="998" y="661" on="0"/>
        <pt x="1003" y="652" on="0"/>
        <pt x="1007" y="643" on="0"/>
        <pt x="1007" y="642" on="1"/>
        <pt x="1008" y="640" on="0"/>
        <pt x="1012" y="627" on="0"/>
        <pt x="1016" y="611" on="0"/>
        <pt x="1018" y="598" on="0"/>
        <pt x="1018" y="597" on="1"/>
        <pt x="1031" y="533" on="0"/>
        <pt x="1077" y="406" on="0"/>
        <pt x="1094" y="343" on="1"/>
        <pt x="1094" y="341" on="0"/>
        <pt x="1096" y="328" on="0"/>
        <pt x="1098" y="312" on="0"/>
        <pt x="1100" y="298" on="0"/>
        <pt x="1101" y="296" on="1"/>
        <pt x="1102" y="294" on="0"/>
        <pt x="1109" y="274" on="0"/>
        <pt x="1117" y="251" on="0"/>
        <pt x="1124" y="230" on="0"/>
        <pt x="1125" y="228" on="1"/>
        <pt x="1130" y="208" on="0"/>
        <pt x="1140" y="159" on="0"/>
        <pt x="1158" y="114" on="0"/>
        <pt x="1189" y="78" on="0"/>
        <pt x="1215" y="71" on="1"/>
        <pt x="1226" y="68" on="0"/>
        <pt x="1244" y="67" on="0"/>
        <pt x="1248" y="67" on="1"/>
        <pt x="1249" y="67" on="0"/>
        <pt x="1259" y="66" on="0"/>
        <pt x="1271" y="64" on="0"/>
        <pt x="1283" y="62" on="0"/>
        <pt x="1286" y="61" on="1"/>
        <pt x="1292" y="58" on="0"/>
        <pt x="1315" y="52" on="0"/>
        <pt x="1338" y="43" on="0"/>
        <pt x="1355" y="28" on="0"/>
        <pt x="1355" y="16" on="1"/>
        <pt x="1355" y="3" on="0"/>
        <pt x="1336" y="-11" on="0"/>
        <pt x="1311" y="-18" on="0"/>
        <pt x="1284" y="-19" on="0"/>
        <pt x="1275" y="-19" on="1"/>
        <pt x="1210" y="-19" on="0"/>
        <pt x="1083" y="-7" on="0"/>
        <pt x="1018" y="-7" on="1"/>
        <pt x="888" y="-7" on="1"/>
        <pt x="863" y="-16" on="0"/>
        <pt x="831" y="-19" on="0"/>
        <pt x="808" y="-19" on="1"/>
        <pt x="801" y="-19" on="0"/>
        <pt x="774" y="-18" on="0"/>
        <pt x="747" y="-13" on="0"/>
        <pt x="727" y="-1" on="0"/>
        <pt x="727" y="10" on="1"/>
        <pt x="727" y="12" on="1"/>
        <pt x="734" y="26" on="0"/>
        <pt x="766" y="49" on="0"/>
        <pt x="779" y="54" on="1"/>
        <pt x="783" y="54" on="0"/>
        <pt x="816" y="60" on="0"/>
        <pt x="855" y="67" on="0"/>
        <pt x="889" y="74" on="0"/>
        <pt x="893" y="74" on="1"/>
        <pt x="905" y="77" on="0"/>
        <pt x="919" y="92" on="0"/>
        <pt x="925" y="110" on="0"/>
        <pt x="926" y="130" on="0"/>
        <pt x="926" y="140" on="1"/>
        <pt x="926" y="168" on="1"/>
        <pt x="925" y="178" on="0"/>
        <pt x="913" y="229" on="0"/>
        <pt x="896" y="294" on="0"/>
        <pt x="874" y="366" on="0"/>
        <pt x="853" y="427" on="0"/>
        <pt x="833" y="470" on="0"/>
        <pt x="826" y="474" on="1"/>
        <pt x="810" y="483" on="0"/>
        <pt x="784" y="487" on="0"/>
        <pt x="758" y="488" on="0"/>
        <pt x="732" y="491" on="0"/>
        <pt x="717" y="498" on="1"/>
        <pt x="710" y="498" on="0"/>
        <pt x="669" y="494" on="0"/>
        <pt x="622" y="491" on="0"/>
        <pt x="580" y="488" on="0"/>
        <pt x="571" y="488" on="1"/>
        <pt x="554" y="488" on="0"/>
        <pt x="511" y="490" on="0"/>
        <pt x="488" y="490" on="1"/>
        <pt x="454" y="490" on="0"/>
        <pt x="392" y="473" on="0"/>
        <pt x="374" y="443" on="1"/>
        <pt x="373" y="437" on="0"/>
        <pt x="368" y="407" on="0"/>
        <pt x="360" y="373" on="0"/>
        <pt x="353" y="342" on="0"/>
        <pt x="350" y="336" on="1"/>
        <pt x="344" y="315" on="0"/>
        <pt x="328" y="274" on="0"/>
        <pt x="313" y="234" on="0"/>
        <pt x="303" y="192" on="0"/>
        <pt x="303" y="171" on="1"/>
        <pt x="303" y="137" on="1"/>
        <pt x="305" y="127" on="0"/>
        <pt x="320" y="112" on="0"/>
        <pt x="340" y="101" on="0"/>
        <pt x="359" y="93" on="0"/>
        <pt x="365" y="90" on="1"/>
        <pt x="381" y="84" on="0"/>
        <pt x="429" y="78" on="0"/>
        <pt x="474" y="67" on="0"/>
        <pt x="506" y="42" on="0"/>
        <pt x="506" y="16" on="1"/>
        <pt x="506" y="-1" on="0"/>
        <pt x="473" y="-14" on="0"/>
        <pt x="457" y="-19" on="1"/>
        <pt x="412" y="-6" on="0"/>
        <pt x="333" y="0" on="0"/>
        <pt x="293" y="0" on="1"/>
      </contour>
    </TTGlyph>
    <TTGlyph name="AE" xMin="-42" yMin="-14" xMax="2249" yMax="1458">
      <contour>
        <pt x="735" y="787" on="1"/>
        <pt x="737" y="785" on="0"/>
        <pt x="742" y="772" on="0"/>
        <pt x="744" y="772" on="1"/>
        <pt x="792" y="772" on="1"/>
        <pt x="803" y="772" on="0"/>
        <pt x="827" y="770" on="0"/>
        <pt x="849" y="765" on="1"/>
        <pt x="856" y="765" on="0"/>
        <pt x="891" y="766" on="0"/>
        <pt x="911" y="766" on="1"/>
        <pt x="931" y="766" on="0"/>
        <pt x="964" y="765" on="0"/>
        <pt x="974" y="765" on="1"/>
        <pt x="974" y="765" on="0"/>
        <pt x="985" y="762" on="0"/>
        <pt x="997" y="759" on="0"/>
        <pt x="1008" y="756" on="0"/>
        <pt x="1010" y="756" on="1"/>
        <pt x="1026" y="756" on="1"/>
        <pt x="1035" y="757" on="0"/>
        <pt x="1061" y="760" on="0"/>
        <pt x="1073" y="762" on="1"/>
        <pt x="1087" y="764" on="0"/>
        <pt x="1102" y="765" on="1"/>
        <pt x="1109" y="772" on="1"/>
        <pt x="1110" y="772" on="0"/>
        <pt x="1112" y="791" on="0"/>
        <pt x="1114" y="818" on="0"/>
        <pt x="1117" y="847" on="0"/>
        <pt x="1119" y="858" on="1"/>
        <pt x="1119" y="894" on="1"/>
        <pt x="1119" y="895" on="0"/>
        <pt x="1115" y="903" on="1"/>
        <pt x="1113" y="907" on="0"/>
        <pt x="1112" y="910" on="1"/>
        <pt x="1112" y="912" on="0"/>
        <pt x="1115" y="931" on="0"/>
        <pt x="1119" y="932" on="1"/>
        <pt x="1119" y="1297" on="1"/>
        <pt x="1109" y="1311" on="1"/>
        <pt x="1106" y="1317" on="0"/>
        <pt x="1102" y="1317" on="1"/>
        <pt x="1095" y="1317" on="0"/>
        <pt x="1078" y="1301" on="0"/>
        <pt x="1074" y="1292" on="1"/>
        <pt x="1006" y="1211" on="1"/>
        <pt x="996" y="1200" on="0"/>
        <pt x="966" y="1175" on="0"/>
        <pt x="958" y="1161" on="1"/>
        <pt x="956" y="1159" on="0"/>
        <pt x="949" y="1143" on="0"/>
        <pt x="941" y="1124" on="0"/>
        <pt x="935" y="1108" on="0"/>
        <pt x="934" y="1105" on="1"/>
        <pt x="932" y="1105" on="0"/>
        <pt x="925" y="1097" on="0"/>
        <pt x="918" y="1087" on="0"/>
        <pt x="911" y="1079" on="0"/>
        <pt x="910" y="1078" on="1"/>
        <pt x="908" y="1075" on="0"/>
        <pt x="896" y="1055" on="0"/>
        <pt x="896" y="1054" on="1"/>
        <pt x="894" y="1052" on="0"/>
        <pt x="888" y="1039" on="0"/>
        <pt x="881" y="1024" on="0"/>
        <pt x="876" y="1011" on="0"/>
        <pt x="875" y="1009" on="1"/>
        <pt x="873" y="1007" on="0"/>
        <pt x="859" y="994" on="0"/>
        <pt x="843" y="979" on="0"/>
        <pt x="829" y="965" on="0"/>
        <pt x="828" y="962" on="1"/>
        <pt x="825" y="959" on="0"/>
        <pt x="812" y="932" on="0"/>
        <pt x="796" y="901" on="0"/>
        <pt x="783" y="875" on="0"/>
        <pt x="780" y="872" on="1"/>
        <pt x="780" y="870" on="0"/>
        <pt x="775" y="861" on="0"/>
        <pt x="767" y="850" on="0"/>
        <pt x="760" y="842" on="0"/>
        <pt x="759" y="841" on="1"/>
        <pt x="758" y="839" on="0"/>
        <pt x="751" y="826" on="0"/>
        <pt x="744" y="811" on="0"/>
        <pt x="737" y="797" on="0"/>
        <pt x="735" y="794" on="1"/>
      </contour>
      <contour>
        <pt x="844" y="1405" on="1"/>
        <pt x="844" y="1407" on="0"/>
        <pt x="847" y="1419" on="0"/>
        <pt x="849" y="1420" on="1"/>
        <pt x="851" y="1422" on="0"/>
        <pt x="863" y="1430" on="0"/>
        <pt x="878" y="1437" on="0"/>
        <pt x="893" y="1444" on="0"/>
        <pt x="896" y="1446" on="1"/>
        <pt x="946" y="1446" on="1"/>
        <pt x="971" y="1446" on="0"/>
        <pt x="1020" y="1434" on="0"/>
        <pt x="1043" y="1434" on="1"/>
        <pt x="1059" y="1434" on="0"/>
        <pt x="1076" y="1440" on="0"/>
        <pt x="1093" y="1446" on="1"/>
        <pt x="1392" y="1446" on="1"/>
        <pt x="1393" y="1446" on="0"/>
        <pt x="1404" y="1449" on="0"/>
        <pt x="1417" y="1454" on="0"/>
        <pt x="1429" y="1458" on="0"/>
        <pt x="1432" y="1458" on="1"/>
        <pt x="1448" y="1458" on="1"/>
        <pt x="1450" y="1458" on="0"/>
        <pt x="1471" y="1455" on="0"/>
        <pt x="1496" y="1453" on="0"/>
        <pt x="1520" y="1451" on="0"/>
        <pt x="1524" y="1451" on="1"/>
        <pt x="1697" y="1451" on="1"/>
        <pt x="1700" y="1451" on="0"/>
        <pt x="1720" y="1451" on="0"/>
        <pt x="1744" y="1450" on="0"/>
        <pt x="1764" y="1450" on="0"/>
        <pt x="1766" y="1450" on="1"/>
        <pt x="1769" y="1448" on="0"/>
        <pt x="1782" y="1447" on="0"/>
        <pt x="1797" y="1446" on="0"/>
        <pt x="1810" y="1446" on="0"/>
        <pt x="1813" y="1446" on="1"/>
        <pt x="1818" y="1445" on="0"/>
        <pt x="1862" y="1441" on="0"/>
        <pt x="1914" y="1437" on="0"/>
        <pt x="1960" y="1434" on="0"/>
        <pt x="1967" y="1434" on="1"/>
        <pt x="1976" y="1434" on="0"/>
        <pt x="1999" y="1433" on="0"/>
        <pt x="2021" y="1426" on="0"/>
        <pt x="2038" y="1410" on="0"/>
        <pt x="2041" y="1396" on="1"/>
        <pt x="2054" y="1336" on="0"/>
        <pt x="2065" y="1220" on="0"/>
        <pt x="2065" y="1157" on="1"/>
        <pt x="2065" y="1086" on="1"/>
        <pt x="2064" y="1078" on="0"/>
        <pt x="2049" y="1076" on="0"/>
        <pt x="2043" y="1076" on="1"/>
        <pt x="2034" y="1078" on="1"/>
        <pt x="2032" y="1080" on="0"/>
        <pt x="2014" y="1096" on="0"/>
        <pt x="2010" y="1100" on="1"/>
        <pt x="2009" y="1103" on="0"/>
        <pt x="2007" y="1107" on="1"/>
        <pt x="2005" y="1110" on="0"/>
        <pt x="2003" y="1116" on="0"/>
        <pt x="2001" y="1118" on="1"/>
        <pt x="1990" y="1133" on="0"/>
        <pt x="1960" y="1165" on="0"/>
        <pt x="1949" y="1183" on="1"/>
        <pt x="1947" y="1188" on="0"/>
        <pt x="1935" y="1210" on="0"/>
        <pt x="1935" y="1214" on="1"/>
        <pt x="1933" y="1218" on="0"/>
        <pt x="1925" y="1230" on="0"/>
        <pt x="1918" y="1242" on="0"/>
        <pt x="1912" y="1250" on="0"/>
        <pt x="1911" y="1251" on="1"/>
        <pt x="1911" y="1253" on="0"/>
        <pt x="1897" y="1259" on="0"/>
        <pt x="1896" y="1261" on="1"/>
        <pt x="1893" y="1264" on="1"/>
        <pt x="1889" y="1268" on="0"/>
        <pt x="1887" y="1268" on="1"/>
        <pt x="1885" y="1271" on="0"/>
        <pt x="1877" y="1283" on="0"/>
        <pt x="1867" y="1297" on="0"/>
        <pt x="1856" y="1309" on="0"/>
        <pt x="1851" y="1311" on="1"/>
        <pt x="1848" y="1313" on="0"/>
        <pt x="1831" y="1323" on="0"/>
        <pt x="1813" y="1334" on="0"/>
        <pt x="1798" y="1343" on="0"/>
        <pt x="1795" y="1344" on="1"/>
        <pt x="1794" y="1344" on="0"/>
        <pt x="1777" y="1358" on="0"/>
        <pt x="1775" y="1360" on="1"/>
        <pt x="1773" y="1362" on="0"/>
        <pt x="1760" y="1367" on="0"/>
        <pt x="1757" y="1367" on="1"/>
        <pt x="1493" y="1367" on="1"/>
        <pt x="1469" y="1378" on="0"/>
        <pt x="1419" y="1382" on="0"/>
        <pt x="1394" y="1382" on="1"/>
        <pt x="1378" y="1382" on="0"/>
        <pt x="1348" y="1376" on="0"/>
        <pt x="1340" y="1360" on="1"/>
        <pt x="1340" y="1315" on="0"/>
        <pt x="1338" y="1221" on="0"/>
        <pt x="1330" y="1176" on="1"/>
        <pt x="1330" y="1175" on="0"/>
        <pt x="1323" y="1156" on="0"/>
        <pt x="1323" y="1154" on="1"/>
        <pt x="1323" y="1126" on="1"/>
        <pt x="1323" y="1105" on="1"/>
        <pt x="1323" y="1097" on="0"/>
        <pt x="1325" y="1084" on="0"/>
        <pt x="1330" y="1078" on="1"/>
        <pt x="1328" y="1064" on="0"/>
        <pt x="1328" y="1005" on="0"/>
        <pt x="1328" y="971" on="1"/>
        <pt x="1328" y="936" on="0"/>
        <pt x="1328" y="875" on="0"/>
        <pt x="1330" y="863" on="1"/>
        <pt x="1330" y="853" on="0"/>
        <pt x="1331" y="825" on="0"/>
        <pt x="1335" y="795" on="0"/>
        <pt x="1344" y="766" on="0"/>
        <pt x="1352" y="756" on="1"/>
        <pt x="1422" y="756" on="1"/>
        <pt x="1427" y="756" on="0"/>
        <pt x="1454" y="758" on="0"/>
        <pt x="1483" y="760" on="0"/>
        <pt x="1508" y="763" on="0"/>
        <pt x="1513" y="765" on="1"/>
        <pt x="1518" y="765" on="0"/>
        <pt x="1550" y="772" on="0"/>
        <pt x="1564" y="772" on="1"/>
        <pt x="1579" y="772" on="0"/>
        <pt x="1611" y="765" on="0"/>
        <pt x="1628" y="765" on="1"/>
        <pt x="1647" y="765" on="0"/>
        <pt x="1670" y="785" on="0"/>
        <pt x="1685" y="815" on="0"/>
        <pt x="1694" y="849" on="0"/>
        <pt x="1697" y="863" on="1"/>
        <pt x="1698" y="866" on="0"/>
        <pt x="1703" y="893" on="0"/>
        <pt x="1708" y="924" on="0"/>
        <pt x="1712" y="951" on="0"/>
        <pt x="1712" y="955" on="1"/>
        <pt x="1713" y="957" on="0"/>
        <pt x="1718" y="970" on="0"/>
        <pt x="1724" y="986" on="0"/>
        <pt x="1728" y="1000" on="0"/>
        <pt x="1728" y="1003" on="1"/>
        <pt x="1730" y="1010" on="0"/>
        <pt x="1735" y="1030" on="0"/>
        <pt x="1745" y="1049" on="0"/>
        <pt x="1761" y="1062" on="0"/>
        <pt x="1773" y="1062" on="1"/>
        <pt x="1789" y="1062" on="0"/>
        <pt x="1809" y="1047" on="0"/>
        <pt x="1819" y="1022" on="0"/>
        <pt x="1823" y="992" on="0"/>
        <pt x="1823" y="977" on="1"/>
        <pt x="1823" y="964" on="0"/>
        <pt x="1821" y="942" on="0"/>
        <pt x="1821" y="934" on="1"/>
        <pt x="1821" y="872" on="1"/>
        <pt x="1820" y="867" on="0"/>
        <pt x="1814" y="826" on="0"/>
        <pt x="1808" y="779" on="0"/>
        <pt x="1804" y="739" on="0"/>
        <pt x="1804" y="734" on="1"/>
        <pt x="1804" y="695" on="1"/>
        <pt x="1804" y="597" on="1"/>
        <pt x="1804" y="593" on="0"/>
        <pt x="1795" y="570" on="0"/>
        <pt x="1795" y="566" on="1"/>
        <pt x="1795" y="550" on="1"/>
        <pt x="1795" y="525" on="0"/>
        <pt x="1804" y="476" on="0"/>
        <pt x="1804" y="450" on="1"/>
        <pt x="1804" y="435" on="0"/>
        <pt x="1802" y="408" on="0"/>
        <pt x="1791" y="387" on="0"/>
        <pt x="1770" y="375" on="0"/>
        <pt x="1752" y="375" on="1"/>
        <pt x="1728" y="375" on="0"/>
        <pt x="1705" y="411" on="0"/>
        <pt x="1695" y="467" on="0"/>
        <pt x="1693" y="535" on="0"/>
        <pt x="1688" y="599" on="0"/>
        <pt x="1675" y="651" on="0"/>
        <pt x="1659" y="663" on="1"/>
        <pt x="1545" y="663" on="1"/>
        <pt x="1524" y="663" on="0"/>
        <pt x="1503" y="665" on="0"/>
        <pt x="1482" y="668" on="0"/>
        <pt x="1452" y="672" on="0"/>
        <pt x="1423" y="675" on="1"/>
        <pt x="1347" y="675" on="1"/>
        <pt x="1346" y="675" on="0"/>
        <pt x="1340" y="665" on="0"/>
        <pt x="1340" y="663" on="1"/>
        <pt x="1339" y="661" on="0"/>
        <pt x="1335" y="651" on="0"/>
        <pt x="1332" y="639" on="0"/>
        <pt x="1330" y="628" on="0"/>
        <pt x="1330" y="626" on="1"/>
        <pt x="1330" y="559" on="1"/>
        <pt x="1330" y="459" on="0"/>
        <pt x="1323" y="257" on="0"/>
        <pt x="1323" y="154" on="1"/>
        <pt x="1323" y="136" on="0"/>
        <pt x="1329" y="103" on="0"/>
        <pt x="1347" y="90" on="1"/>
        <pt x="1350" y="90" on="0"/>
        <pt x="1368" y="88" on="0"/>
        <pt x="1387" y="87" on="0"/>
        <pt x="1403" y="85" on="0"/>
        <pt x="1406" y="85" on="1"/>
        <pt x="1468" y="85" on="1"/>
        <pt x="1469" y="85" on="0"/>
        <pt x="1481" y="83" on="0"/>
        <pt x="1494" y="80" on="0"/>
        <pt x="1505" y="77" on="0"/>
        <pt x="1506" y="76" on="1"/>
        <pt x="1511" y="77" on="0"/>
        <pt x="1531" y="80" on="0"/>
        <pt x="1552" y="83" on="0"/>
        <pt x="1571" y="85" on="0"/>
        <pt x="1576" y="85" on="1"/>
        <pt x="1578" y="85" on="0"/>
        <pt x="1634" y="76" on="0"/>
        <pt x="1685" y="76" on="1"/>
        <pt x="1821" y="76" on="1"/>
        <pt x="1823" y="76" on="0"/>
        <pt x="1840" y="79" on="0"/>
        <pt x="1861" y="82" on="0"/>
        <pt x="1882" y="85" on="0"/>
        <pt x="1887" y="85" on="1"/>
        <pt x="1894" y="85" on="0"/>
        <pt x="1911" y="83" on="0"/>
        <pt x="1922" y="81" on="1"/>
        <pt x="1926" y="83" on="0"/>
        <pt x="1933" y="83" on="0"/>
        <pt x="1935" y="83" on="1"/>
        <pt x="1946" y="83" on="0"/>
        <pt x="1962" y="78" on="0"/>
        <pt x="1975" y="78" on="1"/>
        <pt x="1978" y="78" on="0"/>
        <pt x="1986" y="80" on="0"/>
        <pt x="1991" y="80" on="1"/>
        <pt x="1994" y="79" on="0"/>
        <pt x="2003" y="81" on="0"/>
        <pt x="2012" y="84" on="0"/>
        <pt x="2019" y="88" on="0"/>
        <pt x="2019" y="90" on="1"/>
        <pt x="2025" y="97" on="0"/>
        <pt x="2032" y="106" on="0"/>
        <pt x="2034" y="107" on="1"/>
        <pt x="2037" y="110" on="0"/>
        <pt x="2047" y="123" on="0"/>
        <pt x="2057" y="135" on="0"/>
        <pt x="2065" y="145" on="0"/>
        <pt x="2065" y="145" on="1"/>
        <pt x="2065" y="146" on="0"/>
        <pt x="2067" y="156" on="0"/>
        <pt x="2068" y="166" on="0"/>
        <pt x="2070" y="175" on="0"/>
        <pt x="2070" y="176" on="1"/>
        <pt x="2071" y="177" on="0"/>
        <pt x="2079" y="187" on="0"/>
        <pt x="2086" y="197" on="0"/>
        <pt x="2093" y="205" on="0"/>
        <pt x="2095" y="206" on="1"/>
        <pt x="2095" y="209" on="0"/>
        <pt x="2104" y="227" on="0"/>
        <pt x="2114" y="247" on="0"/>
        <pt x="2123" y="265" on="0"/>
        <pt x="2124" y="268" on="1"/>
        <pt x="2124" y="270" on="0"/>
        <pt x="2140" y="282" on="0"/>
        <pt x="2141" y="284" on="1"/>
        <pt x="2150" y="296" on="0"/>
        <pt x="2160" y="321" on="0"/>
        <pt x="2171" y="346" on="0"/>
        <pt x="2186" y="367" on="0"/>
        <pt x="2200" y="375" on="1"/>
        <pt x="2212" y="375" on="1"/>
        <pt x="2220" y="375" on="0"/>
        <pt x="2233" y="373" on="0"/>
        <pt x="2238" y="367" on="1"/>
        <pt x="2239" y="363" on="0"/>
        <pt x="2243" y="346" on="0"/>
        <pt x="2245" y="327" on="0"/>
        <pt x="2247" y="309" on="0"/>
        <pt x="2247" y="304" on="1"/>
        <pt x="2248" y="301" on="0"/>
        <pt x="2249" y="261" on="0"/>
        <pt x="2249" y="210" on="0"/>
        <pt x="2249" y="158" on="0"/>
        <pt x="2249" y="144" on="1"/>
        <pt x="2249" y="132" on="0"/>
        <pt x="2249" y="97" on="0"/>
        <pt x="2249" y="64" on="0"/>
        <pt x="2248" y="41" on="0"/>
        <pt x="2247" y="40" on="1"/>
        <pt x="2236" y="16" on="0"/>
        <pt x="2216" y="9" on="1"/>
        <pt x="2216" y="8" on="0"/>
        <pt x="2202" y="7" on="0"/>
        <pt x="2184" y="7" on="0"/>
        <pt x="2165" y="7" on="0"/>
        <pt x="2160" y="7" on="1"/>
        <pt x="2152" y="7" on="0"/>
        <pt x="2124" y="7" on="0"/>
        <pt x="2096" y="7" on="0"/>
        <pt x="2073" y="8" on="0"/>
        <pt x="2070" y="9" on="1"/>
        <pt x="2062" y="9" on="0"/>
        <pt x="2047" y="9" on="0"/>
        <pt x="2036" y="10" on="1"/>
        <pt x="2031" y="10" on="0"/>
        <pt x="2021" y="12" on="0"/>
        <pt x="2017" y="12" on="1"/>
        <pt x="2005" y="12" on="0"/>
        <pt x="1982" y="9" on="0"/>
        <pt x="1968" y="9" on="1"/>
        <pt x="1958" y="9" on="1"/>
        <pt x="1944" y="7" on="1"/>
        <pt x="1938" y="6" on="0"/>
        <pt x="1913" y="5" on="0"/>
        <pt x="1886" y="3" on="0"/>
        <pt x="1859" y="1" on="0"/>
        <pt x="1851" y="0" on="1"/>
        <pt x="1728" y="0" on="1"/>
        <pt x="1725" y="0" on="0"/>
        <pt x="1700" y="-5" on="0"/>
        <pt x="1695" y="-7" on="1"/>
        <pt x="1692" y="-7" on="0"/>
        <pt x="1691" y="-6" on="1"/>
        <pt x="1690" y="-6" on="0"/>
        <pt x="1690" y="-5" on="1"/>
        <pt x="1686" y="-5" on="0"/>
        <pt x="1667" y="-4" on="0"/>
        <pt x="1645" y="-3" on="0"/>
        <pt x="1625" y="-1" on="0"/>
        <pt x="1621" y="0" on="1"/>
        <pt x="910" y="0" on="1"/>
        <pt x="887" y="0" on="0"/>
        <pt x="866" y="27" on="0"/>
        <pt x="866" y="45" on="1"/>
        <pt x="866" y="69" on="1"/>
        <pt x="873" y="77" on="0"/>
        <pt x="898" y="85" on="0"/>
        <pt x="904" y="85" on="1"/>
        <pt x="1058" y="85" on="1"/>
        <pt x="1061" y="85" on="0"/>
        <pt x="1084" y="98" on="0"/>
        <pt x="1088" y="100" on="1"/>
        <pt x="1088" y="101" on="0"/>
        <pt x="1091" y="112" on="0"/>
        <pt x="1096" y="127" on="0"/>
        <pt x="1100" y="141" on="0"/>
        <pt x="1102" y="145" on="1"/>
        <pt x="1115" y="188" on="0"/>
        <pt x="1119" y="273" on="0"/>
        <pt x="1119" y="318" on="1"/>
        <pt x="1119" y="398" on="1"/>
        <pt x="1119" y="400" on="0"/>
        <pt x="1116" y="415" on="0"/>
        <pt x="1112" y="433" on="0"/>
        <pt x="1109" y="448" on="0"/>
        <pt x="1109" y="450" on="1"/>
        <pt x="1109" y="453" on="0"/>
        <pt x="1111" y="470" on="0"/>
        <pt x="1114" y="489" on="0"/>
        <pt x="1117" y="507" on="0"/>
        <pt x="1119" y="512" on="1"/>
        <pt x="1119" y="515" on="0"/>
        <pt x="1109" y="535" on="0"/>
        <pt x="1109" y="543" on="1"/>
        <pt x="1109" y="564" on="0"/>
        <pt x="1119" y="601" on="0"/>
        <pt x="1119" y="626" on="1"/>
        <pt x="1119" y="657" on="1"/>
        <pt x="1109" y="663" on="1"/>
        <pt x="942" y="663" on="1"/>
        <pt x="933" y="658" on="0"/>
        <pt x="925" y="657" on="0"/>
        <pt x="918" y="657" on="1"/>
        <pt x="910" y="657" on="1"/>
        <pt x="908" y="657" on="0"/>
        <pt x="884" y="663" on="0"/>
        <pt x="880" y="663" on="1"/>
        <pt x="877" y="663" on="0"/>
        <pt x="848" y="661" on="0"/>
        <pt x="815" y="659" on="0"/>
        <pt x="784" y="657" on="0"/>
        <pt x="780" y="657" on="1"/>
        <pt x="680" y="657" on="1"/>
        <pt x="668" y="653" on="0"/>
        <pt x="645" y="625" on="0"/>
        <pt x="624" y="589" on="0"/>
        <pt x="605" y="553" on="0"/>
        <pt x="598" y="543" on="1"/>
        <pt x="584" y="520" on="0"/>
        <pt x="558" y="481" on="0"/>
        <pt x="546" y="458" on="1"/>
        <pt x="543" y="452" on="0"/>
        <pt x="530" y="426" on="0"/>
        <pt x="515" y="398" on="0"/>
        <pt x="501" y="372" on="0"/>
        <pt x="498" y="367" on="1"/>
        <pt x="489" y="350" on="0"/>
        <pt x="468" y="313" on="0"/>
        <pt x="450" y="275" on="0"/>
        <pt x="437" y="235" on="0"/>
        <pt x="437" y="215" on="1"/>
        <pt x="437" y="173" on="0"/>
        <pt x="468" y="126" on="0"/>
        <pt x="498" y="100" on="1"/>
        <pt x="502" y="99" on="0"/>
        <pt x="513" y="94" on="0"/>
        <pt x="515" y="90" on="1"/>
        <pt x="517" y="90" on="0"/>
        <pt x="539" y="88" on="0"/>
        <pt x="565" y="87" on="0"/>
        <pt x="588" y="85" on="0"/>
        <pt x="590" y="85" on="1"/>
        <pt x="603" y="83" on="0"/>
        <pt x="633" y="76" on="0"/>
        <pt x="658" y="63" on="0"/>
        <pt x="674" y="42" on="0"/>
        <pt x="674" y="26" on="1"/>
        <pt x="674" y="9" on="1"/>
        <pt x="672" y="8" on="0"/>
        <pt x="666" y="4" on="1"/>
        <pt x="660" y="0" on="1"/>
        <pt x="655" y="-1" on="0"/>
        <pt x="630" y="-3" on="0"/>
        <pt x="600" y="-4" on="0"/>
        <pt x="573" y="-5" on="0"/>
        <pt x="567" y="-5" on="1"/>
        <pt x="555" y="-6" on="0"/>
        <pt x="496" y="-7" on="0"/>
        <pt x="419" y="-8" on="0"/>
        <pt x="331" y="-9" on="0"/>
        <pt x="249" y="-10" on="0"/>
        <pt x="181" y="-10" on="0"/>
        <pt x="162" y="-10" on="1"/>
        <pt x="141" y="-10" on="1"/>
        <pt x="133" y="-11" on="0"/>
        <pt x="93" y="-12" on="0"/>
        <pt x="48" y="-13" on="0"/>
        <pt x="9" y="-14" on="0"/>
        <pt x="1" y="-14" on="1"/>
        <pt x="-22" y="-14" on="0"/>
        <pt x="-42" y="11" on="0"/>
        <pt x="-42" y="36" on="1"/>
        <pt x="-42" y="60" on="0"/>
        <pt x="-21" y="83" on="0"/>
        <pt x="10" y="95" on="0"/>
        <pt x="46" y="101" on="0"/>
        <pt x="62" y="107" on="1"/>
        <pt x="67" y="109" on="0"/>
        <pt x="87" y="117" on="0"/>
        <pt x="106" y="124" on="0"/>
        <pt x="122" y="130" on="0"/>
        <pt x="124" y="130" on="1"/>
        <pt x="127" y="132" on="0"/>
        <pt x="140" y="138" on="0"/>
        <pt x="141" y="138" on="1"/>
        <pt x="143" y="138" on="0"/>
        <pt x="161" y="152" on="0"/>
        <pt x="162" y="154" on="1"/>
        <pt x="163" y="155" on="0"/>
        <pt x="175" y="159" on="0"/>
        <pt x="188" y="165" on="0"/>
        <pt x="199" y="169" on="0"/>
        <pt x="200" y="170" on="1"/>
        <pt x="202" y="171" on="0"/>
        <pt x="215" y="181" on="0"/>
        <pt x="230" y="192" on="0"/>
        <pt x="245" y="203" on="0"/>
        <pt x="249" y="206" on="1"/>
        <pt x="249" y="208" on="0"/>
        <pt x="254" y="221" on="0"/>
        <pt x="256" y="221" on="1"/>
        <pt x="273" y="242" on="0"/>
        <pt x="307" y="277" on="0"/>
        <pt x="325" y="299" on="1"/>
        <pt x="331" y="309" on="1"/>
        <pt x="333" y="313" on="0"/>
        <pt x="338" y="320" on="0"/>
        <pt x="340" y="322" on="1"/>
        <pt x="365" y="362" on="0"/>
        <pt x="418" y="437" on="0"/>
        <pt x="444" y="483" on="1"/>
        <pt x="445" y="483" on="0"/>
        <pt x="450" y="492" on="0"/>
        <pt x="455" y="502" on="0"/>
        <pt x="459" y="511" on="0"/>
        <pt x="460" y="512" on="1"/>
        <pt x="507" y="559" on="1"/>
        <pt x="508" y="561" on="0"/>
        <pt x="513" y="581" on="0"/>
        <pt x="515" y="581" on="1"/>
        <pt x="516" y="583" on="0"/>
        <pt x="527" y="600" on="0"/>
        <pt x="542" y="622" on="0"/>
        <pt x="556" y="643" on="0"/>
        <pt x="560" y="649" on="1"/>
        <pt x="560" y="651" on="0"/>
        <pt x="567" y="656" on="0"/>
        <pt x="567" y="657" on="1"/>
        <pt x="576" y="671" on="0"/>
        <pt x="592" y="689" on="0"/>
        <pt x="598" y="702" on="1"/>
        <pt x="598" y="704" on="0"/>
        <pt x="605" y="725" on="0"/>
        <pt x="605" y="727" on="1"/>
        <pt x="607" y="729" on="0"/>
        <pt x="618" y="740" on="0"/>
        <pt x="630" y="752" on="0"/>
        <pt x="641" y="763" on="0"/>
        <pt x="643" y="765" on="1"/>
        <pt x="647" y="766" on="0"/>
        <pt x="656" y="789" on="0"/>
        <pt x="660" y="794" on="1"/>
        <pt x="685" y="855" on="0"/>
        <pt x="765" y="976" on="0"/>
        <pt x="804" y="1031" on="1"/>
        <pt x="806" y="1033" on="0"/>
        <pt x="817" y="1045" on="0"/>
        <pt x="820" y="1047" on="1"/>
        <pt x="821" y="1047" on="0"/>
        <pt x="832" y="1056" on="0"/>
        <pt x="845" y="1067" on="0"/>
        <pt x="856" y="1076" on="0"/>
        <pt x="858" y="1078" on="1"/>
        <pt x="858" y="1080" on="0"/>
        <pt x="871" y="1101" on="0"/>
        <pt x="875" y="1105" on="1"/>
        <pt x="881" y="1123" on="0"/>
        <pt x="905" y="1160" on="0"/>
        <pt x="934" y="1196" on="0"/>
        <pt x="963" y="1228" on="0"/>
        <pt x="975" y="1242" on="1"/>
        <pt x="1050" y="1334" on="1"/>
        <pt x="1050" y="1343" on="0"/>
        <pt x="1037" y="1349" on="0"/>
        <pt x="1032" y="1351" on="1"/>
        <pt x="1025" y="1351" on="0"/>
        <pt x="1018" y="1352" on="1"/>
        <pt x="1012" y="1352" on="0"/>
        <pt x="1000" y="1353" on="0"/>
        <pt x="996" y="1353" on="1"/>
        <pt x="992" y="1353" on="0"/>
        <pt x="977" y="1352" on="0"/>
        <pt x="962" y="1352" on="0"/>
        <pt x="950" y="1351" on="0"/>
        <pt x="949" y="1351" on="1"/>
        <pt x="948" y="1351" on="0"/>
        <pt x="929" y="1344" on="0"/>
        <pt x="927" y="1344" on="1"/>
        <pt x="926" y="1344" on="0"/>
        <pt x="924" y="1343" on="0"/>
        <pt x="922" y="1343" on="1"/>
        <pt x="920" y="1342" on="0"/>
        <pt x="918" y="1342" on="1"/>
        <pt x="917" y="1342" on="0"/>
        <pt x="912" y="1344" on="0"/>
        <pt x="910" y="1344" on="1"/>
        <pt x="849" y="1382" on="1"/>
        <pt x="847" y="1384" on="0"/>
        <pt x="844" y="1400" on="0"/>
      </contour>
    </TTGlyph>
    <TTGlyph name="Aacute" xMin="-71" yMin="-19" xMax="1355" yMax="1884">
      <component glyphName="A" x="0" y="0" flags="0x204"/>
      <component glyphName="Acute" x="367" y="-59" flags="0x4"/>
    </TTGlyph>
    <TTGlyph name="Abreve" xMin="-71" yMin="-19" xMax="1355" yMax="1815">
      <component glyphName="A" x="0" y="0" flags="0x204"/>
      <component glyphName="Breve" x="264" y="-59" flags="0x4"/>
    </TTGlyph>
    <TTGlyph name="Acircumflex" xMin="-71" yMin="-19" xMax="1355" yMax="1856">
      <component glyphName="A" x="0" y="0" flags="0x204"/>
      <component glyphName="Circumflex" x="294" y="-59" flags="0x4"/>
    </TTGlyph>
    <TTGlyph name="Acute" xMin="322" yMin="1517" xMax="803" yMax="1943">
      <contour>
        <pt x="323" y="1558" on="1"/>
        <pt x="326" y="1576" on="0"/>
        <pt x="346" y="1608" on="0"/>
        <pt x="373" y="1636" on="0"/>
        <pt x="402" y="1662" on="0"/>
        <pt x="416" y="1673" on="1"/>
        <pt x="464" y="1716" on="0"/>
        <pt x="550" y="1799" on="0"/>
        <pt x="597" y="1841" on="1"/>
        <pt x="611" y="1854" on="0"/>
        <pt x="643" y="1891" on="0"/>
        <pt x="677" y="1923" on="0"/>
        <pt x="715" y="1943" on="0"/>
        <pt x="735" y="1939" on="1"/>
        <pt x="748" y="1936" on="0"/>
        <pt x="774" y="1918" on="0"/>
        <pt x="794" y="1891" on="0"/>
        <pt x="803" y="1861" on="0"/>
        <pt x="800" y="1846" on="1"/>
        <pt x="797" y="1827" on="0"/>
        <pt x="780" y="1804" on="0"/>
        <pt x="756" y="1788" on="0"/>
        <pt x="728" y="1773" on="0"/>
        <pt x="714" y="1762" on="1"/>
        <pt x="712" y="1761" on="0"/>
        <pt x="698" y="1750" on="0"/>
        <pt x="683" y="1738" on="0"/>
        <pt x="669" y="1728" on="0"/>
        <pt x="667" y="1727" on="1"/>
        <pt x="662" y="1724" on="0"/>
        <pt x="634" y="1704" on="0"/>
        <pt x="603" y="1683" on="0"/>
        <pt x="576" y="1663" on="0"/>
        <pt x="570" y="1660" on="1"/>
        <pt x="566" y="1649" on="0"/>
        <pt x="533" y="1632" on="0"/>
        <pt x="494" y="1614" on="0"/>
        <pt x="460" y="1591" on="0"/>
        <pt x="454" y="1574" on="1"/>
        <pt x="449" y="1571" on="0"/>
        <pt x="424" y="1556" on="0"/>
        <pt x="396" y="1539" on="0"/>
        <pt x="372" y="1524" on="0"/>
        <pt x="367" y="1521" on="1"/>
        <pt x="356" y="1517" on="0"/>
        <pt x="350" y="1517" on="1"/>
        <pt x="348" y="1517" on="0"/>
        <pt x="343" y="1518" on="0"/>
        <pt x="341" y="1518" on="1"/>
        <pt x="330" y="1520" on="0"/>
        <pt x="322" y="1537" on="0"/>
        <pt x="322" y="1547" on="1"/>
        <pt x="322" y="1555" on="0"/>
      </contour>
    </TTGlyph>
    <TTGlyph name="Adieresis" xMin="-71" yMin="-19" xMax="1355" yMax="1786">
      <component glyphName="A" x="0" y="0" flags="0x204"/>
      <component glyphName="Dieresis" x="156" y="-59" flags="0x4"/>
    </TTGlyph>
    <TTGlyph name="Agrave" xMin="-71" yMin="-19" xMax="1355" yMax="1882">
      <component glyphName="A" x="0" y="0" flags="0x204"/>
      <component glyphName="Grave" x="177" y="-59" flags="0x4"/>
    </TTGlyph>
    <TTGlyph name="Amacron" xMin="-71" yMin="-19" xMax="1355" yMax="1694">
      <component glyphName="A" x="0" y="0" flags="0x204"/>
      <component glyphName="Macron" x="180" y="-59" flags="0x4"/>
    </TTGlyph>
    <TTGlyph name="Aogonek" xMin="-71" yMin="-431" xMax="1355" yMax="1364">
      <contour>
        <pt x="236" y="0" on="1"/>
        <pt x="230" y="0" on="0"/>
        <pt x="198" y="-1" on="0"/>
        <pt x="162" y="-1" on="0"/>
        <pt x="128" y="-2" on="0"/>
        <pt x="121" y="-2" on="1"/>
        <pt x="119" y="-2" on="0"/>
        <pt x="106" y="-4" on="0"/>
        <pt x="91" y="-6" on="0"/>
        <pt x="78" y="-7" on="0"/>
        <pt x="76" y="-7" on="1"/>
        <pt x="68" y="-7" on="0"/>
        <pt x="34" y="-6" on="0"/>
        <pt x="-5" y="-4" on="0"/>
        <pt x="-40" y="-2" on="0"/>
        <pt x="-48" y="-2" on="1"/>
        <pt x="-62" y="2" on="0"/>
        <pt x="-71" y="15" on="0"/>
        <pt x="-71" y="31" on="1"/>
        <pt x="-71" y="45" on="0"/>
        <pt x="-56" y="61" on="0"/>
        <pt x="-32" y="69" on="0"/>
        <pt x="-1" y="71" on="0"/>
        <pt x="14" y="71" on="1"/>
        <pt x="30" y="71" on="0"/>
        <pt x="57" y="72" on="0"/>
        <pt x="68" y="74" on="1"/>
        <pt x="70" y="76" on="0"/>
        <pt x="82" y="88" on="0"/>
        <pt x="82" y="90" on="1"/>
        <pt x="84" y="93" on="0"/>
        <pt x="97" y="104" on="0"/>
        <pt x="113" y="117" on="0"/>
        <pt x="126" y="128" on="0"/>
        <pt x="128" y="130" on="1"/>
        <pt x="161" y="159" on="0"/>
        <pt x="190" y="228" on="0"/>
        <pt x="205" y="266" on="1"/>
        <pt x="237" y="348" on="0"/>
        <pt x="316" y="504" on="0"/>
        <pt x="350" y="588" on="1"/>
        <pt x="351" y="589" on="0"/>
        <pt x="355" y="602" on="0"/>
        <pt x="360" y="616" on="0"/>
        <pt x="365" y="630" on="0"/>
        <pt x="365" y="633" on="1"/>
        <pt x="366" y="636" on="0"/>
        <pt x="370" y="652" on="0"/>
        <pt x="376" y="671" on="0"/>
        <pt x="381" y="687" on="0"/>
        <pt x="383" y="689" on="1"/>
        <pt x="383" y="690" on="0"/>
        <pt x="397" y="709" on="0"/>
        <pt x="397" y="713" on="1"/>
        <pt x="399" y="716" on="0"/>
        <pt x="407" y="733" on="0"/>
        <pt x="416" y="752" on="0"/>
        <pt x="424" y="769" on="0"/>
        <pt x="426" y="772" on="1"/>
        <pt x="428" y="774" on="0"/>
        <pt x="434" y="794" on="0"/>
        <pt x="436" y="796" on="1"/>
        <pt x="437" y="797" on="0"/>
        <pt x="441" y="805" on="0"/>
        <pt x="445" y="816" on="0"/>
        <pt x="448" y="825" on="0"/>
        <pt x="448" y="827" on="1"/>
        <pt x="449" y="830" on="0"/>
        <pt x="454" y="852" on="0"/>
        <pt x="460" y="877" on="0"/>
        <pt x="464" y="899" on="0"/>
        <pt x="466" y="901" on="1"/>
        <pt x="467" y="906" on="0"/>
        <pt x="480" y="922" on="0"/>
        <pt x="481" y="924" on="1"/>
        <pt x="481" y="926" on="0"/>
        <pt x="488" y="946" on="0"/>
        <pt x="488" y="948" on="1"/>
        <pt x="489" y="950" on="0"/>
        <pt x="499" y="968" on="0"/>
        <pt x="509" y="989" on="0"/>
        <pt x="518" y="1007" on="0"/>
        <pt x="519" y="1010" on="1"/>
        <pt x="520" y="1011" on="0"/>
        <pt x="524" y="1022" on="0"/>
        <pt x="528" y="1035" on="0"/>
        <pt x="532" y="1046" on="0"/>
        <pt x="533" y="1048" on="1"/>
        <pt x="537" y="1051" on="0"/>
        <pt x="542" y="1062" on="0"/>
        <pt x="544" y="1062" on="1"/>
        <pt x="545" y="1064" on="0"/>
        <pt x="558" y="1080" on="0"/>
        <pt x="573" y="1099" on="0"/>
        <pt x="586" y="1116" on="0"/>
        <pt x="587" y="1118" on="1"/>
        <pt x="588" y="1118" on="0"/>
        <pt x="590" y="1128" on="0"/>
        <pt x="592" y="1133" on="1"/>
        <pt x="594" y="1139" on="0"/>
        <pt x="595" y="1147" on="1"/>
        <pt x="600" y="1165" on="0"/>
        <pt x="613" y="1194" on="0"/>
        <pt x="613" y="1214" on="1"/>
        <pt x="613" y="1224" on="0"/>
        <pt x="607" y="1242" on="0"/>
        <pt x="600" y="1258" on="0"/>
        <pt x="594" y="1275" on="0"/>
        <pt x="594" y="1285" on="1"/>
        <pt x="594" y="1294" on="1"/>
        <pt x="594" y="1297" on="0"/>
        <pt x="595" y="1301" on="1"/>
        <pt x="598" y="1305" on="0"/>
        <pt x="617" y="1310" on="0"/>
        <pt x="641" y="1314" on="0"/>
        <pt x="665" y="1318" on="0"/>
        <pt x="672" y="1323" on="1"/>
        <pt x="690" y="1337" on="0"/>
        <pt x="718" y="1359" on="0"/>
        <pt x="741" y="1362" on="1"/>
        <pt x="757" y="1364" on="0"/>
        <pt x="788" y="1344" on="0"/>
        <pt x="796" y="1332" on="1"/>
        <pt x="817" y="1287" on="0"/>
        <pt x="838" y="1192" on="0"/>
        <pt x="855" y="1147" on="1"/>
        <pt x="856" y="1147" on="0"/>
        <pt x="861" y="1138" on="0"/>
        <pt x="867" y="1128" on="0"/>
        <pt x="871" y="1118" on="0"/>
        <pt x="871" y="1118" on="1"/>
        <pt x="871" y="1114" on="0"/>
        <pt x="876" y="1088" on="0"/>
        <pt x="882" y="1060" on="0"/>
        <pt x="887" y="1035" on="0"/>
        <pt x="888" y="1031" on="1"/>
        <pt x="889" y="1025" on="0"/>
        <pt x="893" y="1004" on="0"/>
        <pt x="898" y="982" on="0"/>
        <pt x="903" y="964" on="0"/>
        <pt x="903" y="962" on="1"/>
        <pt x="904" y="957" on="0"/>
        <pt x="918" y="920" on="0"/>
        <pt x="933" y="876" on="0"/>
        <pt x="947" y="838" on="0"/>
        <pt x="950" y="834" on="1"/>
        <pt x="950" y="833" on="0"/>
        <pt x="951" y="825" on="0"/>
        <pt x="952" y="815" on="0"/>
        <pt x="954" y="806" on="0"/>
        <pt x="955" y="803" on="1"/>
        <pt x="956" y="801" on="0"/>
        <pt x="958" y="790" on="0"/>
        <pt x="960" y="777" on="0"/>
        <pt x="962" y="766" on="0"/>
        <pt x="962" y="765" on="1"/>
        <pt x="962" y="764" on="0"/>
        <pt x="967" y="755" on="0"/>
        <pt x="973" y="744" on="0"/>
        <pt x="979" y="734" on="0"/>
        <pt x="980" y="734" on="1"/>
        <pt x="980" y="732" on="0"/>
        <pt x="984" y="714" on="0"/>
        <pt x="989" y="693" on="0"/>
        <pt x="993" y="674" on="0"/>
        <pt x="993" y="671" on="1"/>
        <pt x="994" y="670" on="0"/>
        <pt x="998" y="661" on="0"/>
        <pt x="1003" y="652" on="0"/>
        <pt x="1007" y="643" on="0"/>
        <pt x="1007" y="642" on="1"/>
        <pt x="1008" y="640" on="0"/>
        <pt x="1012" y="627" on="0"/>
        <pt x="1016" y="611" on="0"/>
        <pt x="1018" y="598" on="0"/>
        <pt x="1018" y="597" on="1"/>
        <pt x="1031" y="533" on="0"/>
        <pt x="1077" y="406" on="0"/>
        <pt x="1094" y="343" on="1"/>
        <pt x="1094" y="341" on="0"/>
        <pt x="1096" y="328" on="0"/>
        <pt x="1098" y="312" on="0"/>
        <pt x="1100" y="298" on="0"/>
        <pt x="1101" y="296" on="1"/>
        <pt x="1102" y="294" on="0"/>
        <pt x="1109" y="274" on="0"/>
        <pt x="1117" y="251" on="0"/>
        <pt x="1124" y="230" on="0"/>
        <pt x="1125" y="228" on="1"/>
        <pt x="1130" y="208" on="0"/>
        <pt x="1140" y="159" on="0"/>
        <pt x="1158" y="114" on="0"/>
        <pt x="1189" y="78" on="0"/>
        <pt x="1215" y="71" on="1"/>
        <pt x="1226" y="68" on="0"/>
        <pt x="1244" y="67" on="0"/>
        <pt x="1248" y="67" on="1"/>
        <pt x="1249" y="67" on="0"/>
        <pt x="1259" y="66" on="0"/>
        <pt x="1271" y="64" on="0"/>
        <pt x="1283" y="62" on="0"/>
        <pt x="1286" y="61" on="1"/>
        <pt x="1292" y="58" on="0"/>
        <pt x="1315" y="52" on="0"/>
        <pt x="1338" y="43" on="0"/>
        <pt x="1355" y="28" on="0"/>
        <pt x="1355" y="16" on="1"/>
        <pt x="1355" y="3" on="0"/>
        <pt x="1336" y="-11" on="0"/>
        <pt x="1311" y="-18" on="0"/>
        <pt x="1284" y="-19" on="0"/>
        <pt x="1275" y="-19" on="1"/>
        <pt x="1238" y="-19" on="0"/>
        <pt x="1166" y="-14" on="0"/>
        <pt x="1130" y="-12" on="1"/>
        <pt x="1117" y="-43" on="0"/>
        <pt x="1091" y="-104" on="0"/>
        <pt x="1091" y="-137" on="1"/>
        <pt x="1091" y="-148" on="0"/>
        <pt x="1095" y="-173" on="0"/>
        <pt x="1097" y="-185" on="1"/>
        <pt x="1100" y="-201" on="0"/>
        <pt x="1102" y="-243" on="0"/>
        <pt x="1112" y="-256" on="1"/>
        <pt x="1121" y="-268" on="0"/>
        <pt x="1142" y="-287" on="0"/>
        <pt x="1148" y="-301" on="1"/>
        <pt x="1163" y="-310" on="1"/>
        <pt x="1173" y="-310" on="1"/>
        <pt x="1180" y="-310" on="0"/>
        <pt x="1188" y="-313" on="0"/>
        <pt x="1194" y="-315" on="1"/>
        <pt x="1202" y="-319" on="0"/>
        <pt x="1211" y="-318" on="0"/>
        <pt x="1221" y="-319" on="1"/>
        <pt x="1229" y="-319" on="0"/>
        <pt x="1242" y="-327" on="0"/>
        <pt x="1250" y="-327" on="1"/>
        <pt x="1258" y="-327" on="0"/>
        <pt x="1273" y="-323" on="0"/>
        <pt x="1283" y="-322" on="1"/>
        <pt x="1310" y="-319" on="0"/>
        <pt x="1332" y="-307" on="1"/>
        <pt x="1336" y="-307" on="1"/>
        <pt x="1355" y="-307" on="0"/>
        <pt x="1355" y="-325" on="1"/>
        <pt x="1355" y="-333" on="0"/>
        <pt x="1348" y="-342" on="1"/>
        <pt x="1326" y="-370" on="0"/>
        <pt x="1267" y="-406" on="0"/>
        <pt x="1234" y="-416" on="1"/>
        <pt x="1209" y="-428" on="1"/>
        <pt x="1198" y="-430" on="0"/>
        <pt x="1171" y="-431" on="0"/>
        <pt x="1159" y="-431" on="1"/>
        <pt x="1150" y="-431" on="0"/>
        <pt x="1118" y="-427" on="0"/>
        <pt x="1106" y="-425" on="1"/>
        <pt x="1091" y="-418" on="1"/>
        <pt x="1077" y="-414" on="0"/>
        <pt x="1052" y="-402" on="0"/>
        <pt x="1038" y="-397" on="1"/>
        <pt x="1021" y="-388" on="1"/>
        <pt x="1009" y="-371" on="1"/>
        <pt x="1005" y="-359" on="0"/>
        <pt x="992" y="-339" on="0"/>
        <pt x="980" y="-318" on="0"/>
        <pt x="971" y="-295" on="0"/>
        <pt x="971" y="-282" on="1"/>
        <pt x="971" y="-255" on="0"/>
        <pt x="984" y="-207" on="0"/>
        <pt x="981" y="-181" on="1"/>
        <pt x="990" y="-163" on="1"/>
        <pt x="999" y="-135" on="1"/>
        <pt x="1008" y="-98" on="1"/>
        <pt x="1022" y="-73" on="0"/>
        <pt x="1053" y="-28" on="0"/>
        <pt x="1073" y="-8" on="1"/>
        <pt x="1059" y="-7" on="0"/>
        <pt x="1032" y="-7" on="0"/>
        <pt x="1018" y="-7" on="1"/>
        <pt x="888" y="-7" on="1"/>
        <pt x="863" y="-16" on="0"/>
        <pt x="831" y="-19" on="0"/>
        <pt x="808" y="-19" on="1"/>
        <pt x="801" y="-19" on="0"/>
        <pt x="774" y="-18" on="0"/>
        <pt x="747" y="-13" on="0"/>
        <pt x="727" y="-1" on="0"/>
        <pt x="727" y="10" on="1"/>
        <pt x="727" y="12" on="1"/>
        <pt x="734" y="26" on="0"/>
        <pt x="766" y="49" on="0"/>
        <pt x="779" y="54" on="1"/>
        <pt x="783" y="54" on="0"/>
        <pt x="816" y="60" on="0"/>
        <pt x="855" y="67" on="0"/>
        <pt x="889" y="74" on="0"/>
        <pt x="893" y="74" on="1"/>
        <pt x="905" y="77" on="0"/>
        <pt x="919" y="92" on="0"/>
        <pt x="925" y="110" on="0"/>
        <pt x="926" y="130" on="0"/>
        <pt x="926" y="140" on="1"/>
        <pt x="926" y="168" on="1"/>
        <pt x="925" y="178" on="0"/>
        <pt x="913" y="229" on="0"/>
        <pt x="896" y="294" on="0"/>
        <pt x="874" y="366" on="0"/>
        <pt x="853" y="427" on="0"/>
        <pt x="833" y="470" on="0"/>
        <pt x="826" y="474" on="1"/>
        <pt x="810" y="483" on="0"/>
        <pt x="784" y="487" on="0"/>
        <pt x="758" y="488" on="0"/>
        <pt x="732" y="491" on="0"/>
        <pt x="717" y="498" on="1"/>
        <pt x="710" y="498" on="0"/>
        <pt x="669" y="494" on="0"/>
        <pt x="622" y="491" on="0"/>
        <pt x="580" y="488" on="0"/>
        <pt x="571" y="488" on="1"/>
        <pt x="554" y="488" on="0"/>
        <pt x="511" y="490" on="0"/>
        <pt x="488" y="490" on="1"/>
        <pt x="454" y="490" on="0"/>
        <pt x="392" y="473" on="0"/>
        <pt x="374" y="443" on="1"/>
        <pt x="373" y="437" on="0"/>
        <pt x="368" y="407" on="0"/>
        <pt x="360" y="373" on="0"/>
        <pt x="353" y="342" on="0"/>
        <pt x="350" y="336" on="1"/>
        <pt x="344" y="315" on="0"/>
        <pt x="328" y="274" on="0"/>
        <pt x="313" y="234" on="0"/>
        <pt x="303" y="192" on="0"/>
        <pt x="303" y="171" on="1"/>
        <pt x="303" y="137" on="1"/>
        <pt x="305" y="127" on="0"/>
        <pt x="320" y="112" on="0"/>
        <pt x="340" y="101" on="0"/>
        <pt x="359" y="93" on="0"/>
        <pt x="365" y="90" on="1"/>
        <pt x="381" y="84" on="0"/>
        <pt x="429" y="78" on="0"/>
        <pt x="474" y="67" on="0"/>
        <pt x="506" y="42" on="0"/>
        <pt x="506" y="16" on="1"/>
        <pt x="506" y="-1" on="0"/>
        <pt x="473" y="-14" on="0"/>
        <pt x="457" y="-19" on="1"/>
        <pt x="412" y="-6" on="0"/>
        <pt x="333" y="0" on="0"/>
        <pt x="293" y="0" on="1"/>
      </contour>
      <contour>
        <pt x="448" y="574" on="1"/>
        <pt x="486" y="576" on="0"/>
        <pt x="549" y="566" on="0"/>
        <pt x="583" y="566" on="1"/>
        <pt x="602" y="566" on="1"/>
        <pt x="606" y="566" on="0"/>
        <pt x="634" y="568" on="0"/>
        <pt x="665" y="571" on="0"/>
        <pt x="693" y="574" on="0"/>
        <pt x="696" y="574" on="1"/>
        <pt x="700" y="574" on="0"/>
        <pt x="734" y="571" on="0"/>
        <pt x="748" y="571" on="1"/>
        <pt x="757" y="571" on="0"/>
        <pt x="770" y="573" on="0"/>
        <pt x="772" y="574" on="1"/>
        <pt x="776" y="574" on="0"/>
        <pt x="791" y="583" on="0"/>
        <pt x="796" y="588" on="1"/>
        <pt x="796" y="616" on="1"/>
        <pt x="796" y="666" on="0"/>
        <pt x="762" y="763" on="0"/>
        <pt x="748" y="810" on="1"/>
        <pt x="748" y="812" on="0"/>
        <pt x="746" y="823" on="0"/>
        <pt x="743" y="836" on="0"/>
        <pt x="741" y="846" on="0"/>
        <pt x="741" y="848" on="1"/>
        <pt x="740" y="849" on="0"/>
        <pt x="734" y="862" on="0"/>
        <pt x="726" y="879" on="0"/>
        <pt x="719" y="893" on="0"/>
        <pt x="717" y="896" on="1"/>
        <pt x="712" y="910" on="0"/>
        <pt x="704" y="949" on="0"/>
        <pt x="694" y="989" on="0"/>
        <pt x="681" y="1027" on="0"/>
        <pt x="672" y="1041" on="1"/>
        <pt x="671" y="1042" on="0"/>
        <pt x="661" y="1053" on="0"/>
        <pt x="649" y="1066" on="0"/>
        <pt x="637" y="1078" on="0"/>
        <pt x="634" y="1080" on="1"/>
        <pt x="631" y="1081" on="0"/>
        <pt x="619" y="1086" on="0"/>
        <pt x="615" y="1086" on="1"/>
        <pt x="613" y="1085" on="0"/>
        <pt x="613" y="1085" on="1"/>
        <pt x="607" y="1079" on="1"/>
        <pt x="602" y="1074" on="0"/>
        <pt x="602" y="1071" on="1"/>
        <pt x="594" y="1047" on="0"/>
        <pt x="578" y="991" on="0"/>
        <pt x="559" y="932" on="0"/>
        <pt x="538" y="874" on="0"/>
        <pt x="526" y="848" on="1"/>
        <pt x="525" y="846" on="0"/>
        <pt x="518" y="833" on="0"/>
        <pt x="511" y="818" on="0"/>
        <pt x="506" y="805" on="0"/>
        <pt x="506" y="803" on="1"/>
        <pt x="503" y="800" on="0"/>
        <pt x="493" y="769" on="0"/>
        <pt x="481" y="730" on="0"/>
        <pt x="470" y="690" on="0"/>
        <pt x="466" y="680" on="1"/>
        <pt x="459" y="659" on="0"/>
        <pt x="442" y="614" on="0"/>
        <pt x="442" y="592" on="1"/>
        <pt x="442" y="587" on="0"/>
        <pt x="443" y="576" on="0"/>
      </contour>
    </TTGlyph>
    <TTGlyph name="Aring" xMin="-71" yMin="-19" xMax="1355" yMax="1825">
      <component glyphName="A" x="0" y="0" flags="0x204"/>
      <component glyphName="Ring" x="152" y="-115" flags="0x4"/>
    </TTGlyph>
    <TTGlyph name="Atilde" xMin="-71" yMin="-19" xMax="1355" yMax="1812">
      <component glyphName="A" x="0" y="0" flags="0x204"/>
      <component glyphName="Tilde" x="229" y="-59" flags="0x4"/>
    </TTGlyph>
    <TTGlyph name="B" xMin="53" yMin="-16" xMax="1227" yMax="1443">
      <contour>
        <pt x="532" y="905" on="1"/>
        <pt x="532" y="892" on="0"/>
        <pt x="536" y="854" on="0"/>
        <pt x="545" y="817" on="0"/>
        <pt x="561" y="785" on="0"/>
        <pt x="572" y="777" on="1"/>
        <pt x="610" y="777" on="1"/>
        <pt x="646" y="777" on="0"/>
        <pt x="699" y="785" on="0"/>
        <pt x="733" y="799" on="1"/>
        <pt x="765" y="814" on="0"/>
        <pt x="826" y="844" on="0"/>
        <pt x="877" y="883" on="0"/>
        <pt x="913" y="937" on="0"/>
        <pt x="921" y="976" on="1"/>
        <pt x="922" y="979" on="0"/>
        <pt x="925" y="996" on="0"/>
        <pt x="928" y="1016" on="0"/>
        <pt x="931" y="1035" on="0"/>
        <pt x="932" y="1038" on="1"/>
        <pt x="932" y="1041" on="0"/>
        <pt x="935" y="1061" on="0"/>
        <pt x="940" y="1083" on="0"/>
        <pt x="944" y="1103" on="0"/>
        <pt x="945" y="1105" on="1"/>
        <pt x="945" y="1114" on="1"/>
        <pt x="945" y="1150" on="1"/>
        <pt x="945" y="1166" on="0"/>
        <pt x="941" y="1198" on="0"/>
        <pt x="932" y="1211" on="1"/>
        <pt x="927" y="1218" on="0"/>
        <pt x="912" y="1241" on="0"/>
        <pt x="897" y="1263" on="0"/>
        <pt x="885" y="1279" on="0"/>
        <pt x="883" y="1280" on="1"/>
        <pt x="860" y="1312" on="0"/>
        <pt x="796" y="1348" on="0"/>
        <pt x="762" y="1365" on="1"/>
        <pt x="760" y="1367" on="0"/>
        <pt x="742" y="1372" on="0"/>
        <pt x="738" y="1374" on="1"/>
        <pt x="708" y="1380" on="0"/>
        <pt x="659" y="1385" on="0"/>
        <pt x="625" y="1387" on="1"/>
        <pt x="622" y="1387" on="1"/>
        <pt x="595" y="1387" on="0"/>
        <pt x="562" y="1368" on="0"/>
        <pt x="546" y="1337" on="0"/>
        <pt x="541" y="1296" on="0"/>
        <pt x="541" y="1275" on="1"/>
        <pt x="541" y="1263" on="0"/>
        <pt x="542" y="1239" on="0"/>
        <pt x="542" y="1228" on="1"/>
        <pt x="542" y="1223" on="0"/>
        <pt x="541" y="1207" on="0"/>
        <pt x="541" y="1202" on="1"/>
        <pt x="541" y="1200" on="0"/>
        <pt x="539" y="1190" on="0"/>
        <pt x="536" y="1179" on="0"/>
        <pt x="534" y="1169" on="0"/>
        <pt x="534" y="1168" on="1"/>
        <pt x="533" y="1166" on="0"/>
        <pt x="532" y="1149" on="0"/>
        <pt x="532" y="1126" on="0"/>
        <pt x="532" y="1102" on="0"/>
        <pt x="532" y="1095" on="1"/>
        <pt x="532" y="1088" on="0"/>
        <pt x="532" y="1064" on="0"/>
        <pt x="532" y="1040" on="0"/>
        <pt x="533" y="1023" on="0"/>
        <pt x="534" y="1022" on="1"/>
        <pt x="534" y="1021" on="0"/>
        <pt x="535" y="1012" on="0"/>
        <pt x="537" y="1007" on="1"/>
        <pt x="541" y="993" on="1"/>
        <pt x="541" y="988" on="1"/>
        <pt x="541" y="967" on="0"/>
        <pt x="532" y="925" on="0"/>
      </contour>
      <contour>
        <pt x="541" y="138" on="1"/>
        <pt x="541" y="134" on="0"/>
        <pt x="547" y="122" on="0"/>
        <pt x="549" y="119" on="1"/>
        <pt x="579" y="83" on="0"/>
        <pt x="656" y="67" on="0"/>
        <pt x="703" y="67" on="1"/>
        <pt x="733" y="67" on="0"/>
        <pt x="782" y="74" on="0"/>
        <pt x="827" y="90" on="0"/>
        <pt x="872" y="113" on="0"/>
        <pt x="899" y="130" on="1"/>
        <pt x="900" y="130" on="0"/>
        <pt x="910" y="134" on="0"/>
        <pt x="922" y="139" on="0"/>
        <pt x="931" y="143" on="0"/>
        <pt x="932" y="144" on="1"/>
        <pt x="934" y="147" on="0"/>
        <pt x="945" y="157" on="0"/>
        <pt x="957" y="169" on="0"/>
        <pt x="968" y="180" on="0"/>
        <pt x="970" y="182" on="1"/>
        <pt x="994" y="218" on="0"/>
        <pt x="1015" y="311" on="0"/>
        <pt x="1021" y="351" on="1"/>
        <pt x="1021" y="354" on="0"/>
        <pt x="1018" y="373" on="0"/>
        <pt x="1015" y="394" on="0"/>
        <pt x="1013" y="410" on="0"/>
        <pt x="1013" y="412" on="1"/>
        <pt x="1013" y="450" on="1"/>
        <pt x="1013" y="467" on="1"/>
        <pt x="1010" y="486" on="0"/>
        <pt x="998" y="525" on="0"/>
        <pt x="980" y="561" on="0"/>
        <pt x="954" y="591" on="0"/>
        <pt x="937" y="602" on="1"/>
        <pt x="928" y="606" on="0"/>
        <pt x="904" y="621" on="0"/>
        <pt x="880" y="638" on="0"/>
        <pt x="858" y="656" on="0"/>
        <pt x="852" y="663" on="1"/>
        <pt x="834" y="670" on="0"/>
        <pt x="788" y="686" on="0"/>
        <pt x="738" y="701" on="0"/>
        <pt x="689" y="713" on="0"/>
        <pt x="670" y="718" on="1"/>
        <pt x="653" y="718" on="1"/>
        <pt x="618" y="718" on="0"/>
        <pt x="576" y="708" on="0"/>
        <pt x="553" y="681" on="0"/>
        <pt x="543" y="636" on="0"/>
        <pt x="541" y="602" on="1"/>
        <pt x="540" y="594" on="0"/>
        <pt x="538" y="552" on="0"/>
        <pt x="536" y="506" on="0"/>
        <pt x="534" y="465" on="0"/>
        <pt x="534" y="458" on="1"/>
        <pt x="534" y="458" on="0"/>
        <pt x="533" y="444" on="0"/>
        <pt x="533" y="427" on="0"/>
        <pt x="532" y="411" on="0"/>
        <pt x="532" y="407" on="1"/>
        <pt x="532" y="401" on="0"/>
        <pt x="533" y="383" on="0"/>
        <pt x="533" y="366" on="0"/>
        <pt x="534" y="352" on="0"/>
        <pt x="534" y="351" on="1"/>
        <pt x="534" y="339" on="0"/>
        <pt x="536" y="279" on="0"/>
        <pt x="538" y="211" on="0"/>
        <pt x="540" y="150" on="0"/>
      </contour>
      <contour>
        <pt x="89" y="24" on="1"/>
        <pt x="89" y="35" on="1"/>
        <pt x="89" y="47" on="0"/>
        <pt x="102" y="70" on="0"/>
        <pt x="123" y="88" on="0"/>
        <pt x="147" y="99" on="0"/>
        <pt x="158" y="99" on="1"/>
        <pt x="175" y="100" on="0"/>
        <pt x="208" y="102" on="0"/>
        <pt x="224" y="102" on="1"/>
        <pt x="245" y="102" on="0"/>
        <pt x="284" y="100" on="0"/>
        <pt x="302" y="99" on="1"/>
        <pt x="320" y="97" on="0"/>
        <pt x="329" y="119" on="0"/>
        <pt x="329" y="135" on="1"/>
        <pt x="329" y="140" on="0"/>
        <pt x="328" y="157" on="0"/>
        <pt x="328" y="159" on="1"/>
        <pt x="328" y="182" on="0"/>
        <pt x="319" y="229" on="0"/>
        <pt x="319" y="254" on="1"/>
        <pt x="319" y="259" on="1"/>
        <pt x="321" y="261" on="0"/>
        <pt x="328" y="287" on="0"/>
        <pt x="328" y="289" on="1"/>
        <pt x="328" y="292" on="1"/>
        <pt x="328" y="298" on="1"/>
        <pt x="328" y="300" on="0"/>
        <pt x="325" y="322" on="0"/>
        <pt x="322" y="347" on="0"/>
        <pt x="319" y="371" on="0"/>
        <pt x="319" y="374" on="1"/>
        <pt x="319" y="535" on="1"/>
        <pt x="314" y="546" on="0"/>
        <pt x="312" y="571" on="0"/>
        <pt x="312" y="583" on="1"/>
        <pt x="312" y="588" on="0"/>
        <pt x="314" y="610" on="0"/>
        <pt x="314" y="612" on="1"/>
        <pt x="316" y="620" on="0"/>
        <pt x="321" y="647" on="0"/>
        <pt x="321" y="657" on="1"/>
        <pt x="321" y="671" on="0"/>
        <pt x="319" y="698" on="0"/>
        <pt x="319" y="702" on="1"/>
        <pt x="320" y="704" on="0"/>
        <pt x="323" y="725" on="0"/>
        <pt x="326" y="748" on="0"/>
        <pt x="328" y="768" on="0"/>
        <pt x="328" y="770" on="1"/>
        <pt x="328" y="777" on="1"/>
        <pt x="326" y="780" on="0"/>
        <pt x="324" y="791" on="0"/>
        <pt x="322" y="803" on="0"/>
        <pt x="320" y="813" on="0"/>
        <pt x="319" y="815" on="1"/>
        <pt x="319" y="827" on="0"/>
        <pt x="320" y="869" on="0"/>
        <pt x="320" y="924" on="0"/>
        <pt x="321" y="987" on="0"/>
        <pt x="321" y="1019" on="1"/>
        <pt x="321" y="1051" on="0"/>
        <pt x="320" y="1113" on="0"/>
        <pt x="320" y="1167" on="0"/>
        <pt x="319" y="1209" on="0"/>
        <pt x="319" y="1220" on="1"/>
        <pt x="319" y="1224" on="0"/>
        <pt x="317" y="1248" on="0"/>
        <pt x="316" y="1275" on="0"/>
        <pt x="314" y="1299" on="0"/>
        <pt x="314" y="1303" on="1"/>
        <pt x="312" y="1316" on="0"/>
        <pt x="282" y="1342" on="0"/>
        <pt x="269" y="1342" on="1"/>
        <pt x="239" y="1342" on="0"/>
        <pt x="178" y="1336" on="0"/>
        <pt x="146" y="1336" on="1"/>
        <pt x="128" y="1336" on="0"/>
        <pt x="100" y="1337" on="0"/>
        <pt x="77" y="1345" on="0"/>
        <pt x="60" y="1363" on="0"/>
        <pt x="53" y="1381" on="1"/>
        <pt x="53" y="1384" on="1"/>
        <pt x="53" y="1394" on="0"/>
        <pt x="64" y="1410" on="0"/>
        <pt x="80" y="1421" on="0"/>
        <pt x="98" y="1426" on="0"/>
        <pt x="106" y="1426" on="1"/>
        <pt x="110" y="1426" on="0"/>
        <pt x="142" y="1428" on="0"/>
        <pt x="180" y="1430" on="0"/>
        <pt x="217" y="1432" on="0"/>
        <pt x="227" y="1432" on="1"/>
        <pt x="250" y="1432" on="1"/>
        <pt x="266" y="1432" on="0"/>
        <pt x="296" y="1424" on="0"/>
        <pt x="314" y="1426" on="1"/>
        <pt x="379" y="1432" on="0"/>
        <pt x="510" y="1443" on="0"/>
        <pt x="579" y="1443" on="1"/>
        <pt x="615" y="1443" on="0"/>
        <pt x="685" y="1432" on="0"/>
        <pt x="720" y="1432" on="1"/>
        <pt x="725" y="1432" on="0"/>
        <pt x="751" y="1443" on="0"/>
        <pt x="755" y="1443" on="1"/>
        <pt x="757" y="1443" on="0"/>
        <pt x="772" y="1440" on="0"/>
        <pt x="790" y="1435" on="0"/>
        <pt x="805" y="1432" on="0"/>
        <pt x="807" y="1432" on="1"/>
        <pt x="811" y="1432" on="0"/>
        <pt x="849" y="1434" on="0"/>
        <pt x="868" y="1434" on="1"/>
        <pt x="876" y="1434" on="0"/>
        <pt x="889" y="1432" on="0"/>
        <pt x="892" y="1432" on="1"/>
        <pt x="911" y="1431" on="0"/>
        <pt x="937" y="1422" on="0"/>
        <pt x="962" y="1410" on="0"/>
        <pt x="989" y="1395" on="0"/>
        <pt x="1008" y="1387" on="1"/>
        <pt x="1009" y="1386" on="0"/>
        <pt x="1017" y="1384" on="0"/>
        <pt x="1021" y="1382" on="1"/>
        <pt x="1026" y="1377" on="0"/>
        <pt x="1039" y="1373" on="0"/>
        <pt x="1044" y="1368" on="1"/>
        <pt x="1075" y="1339" on="0"/>
        <pt x="1124" y="1273" on="0"/>
        <pt x="1136" y="1230" on="1"/>
        <pt x="1136" y="1228" on="0"/>
        <pt x="1138" y="1214" on="0"/>
        <pt x="1141" y="1197" on="0"/>
        <pt x="1143" y="1183" on="0"/>
        <pt x="1143" y="1180" on="1"/>
        <pt x="1145" y="1179" on="0"/>
        <pt x="1150" y="1166" on="0"/>
        <pt x="1155" y="1151" on="0"/>
        <pt x="1158" y="1138" on="0"/>
        <pt x="1158" y="1137" on="1"/>
        <pt x="1158" y="1135" on="0"/>
        <pt x="1160" y="1117" on="0"/>
        <pt x="1160" y="1112" on="1"/>
        <pt x="1160" y="1093" on="0"/>
        <pt x="1152" y="1032" on="0"/>
        <pt x="1137" y="967" on="0"/>
        <pt x="1117" y="908" on="0"/>
        <pt x="1105" y="893" on="1"/>
        <pt x="1097" y="881" on="0"/>
        <pt x="1076" y="863" on="0"/>
        <pt x="1051" y="848" on="0"/>
        <pt x="1025" y="834" on="0"/>
        <pt x="1013" y="825" on="1"/>
        <pt x="1013" y="823" on="0"/>
        <pt x="1001" y="808" on="0"/>
        <pt x="997" y="808" on="1"/>
        <pt x="991" y="804" on="0"/>
        <pt x="970" y="796" on="0"/>
        <pt x="951" y="785" on="0"/>
        <pt x="937" y="770" on="0"/>
        <pt x="937" y="758" on="1"/>
        <pt x="937" y="747" on="1"/>
        <pt x="939" y="745" on="0"/>
        <pt x="951" y="736" on="0"/>
        <pt x="966" y="727" on="0"/>
        <pt x="980" y="719" on="0"/>
        <pt x="983" y="718" on="1"/>
        <pt x="986" y="716" on="0"/>
        <pt x="1004" y="707" on="0"/>
        <pt x="1025" y="697" on="0"/>
        <pt x="1043" y="687" on="0"/>
        <pt x="1044" y="685" on="1"/>
        <pt x="1139" y="630" on="0"/>
        <pt x="1227" y="483" on="0"/>
        <pt x="1227" y="374" on="1"/>
        <pt x="1227" y="339" on="0"/>
        <pt x="1213" y="290" on="0"/>
        <pt x="1207" y="259" on="1"/>
        <pt x="1205" y="258" on="0"/>
        <pt x="1205" y="238" on="0"/>
        <pt x="1205" y="235" on="1"/>
        <pt x="1201" y="218" on="0"/>
        <pt x="1190" y="179" on="0"/>
        <pt x="1174" y="141" on="0"/>
        <pt x="1151" y="109" on="0"/>
        <pt x="1136" y="99" on="1"/>
        <pt x="1133" y="98" on="0"/>
        <pt x="1108" y="83" on="0"/>
        <pt x="1077" y="63" on="0"/>
        <pt x="1046" y="42" on="0"/>
        <pt x="1037" y="36" on="1"/>
        <pt x="1033" y="36" on="0"/>
        <pt x="1021" y="31" on="0"/>
        <pt x="1021" y="29" on="1"/>
        <pt x="1020" y="29" on="0"/>
        <pt x="1007" y="27" on="0"/>
        <pt x="991" y="26" on="0"/>
        <pt x="977" y="24" on="0"/>
        <pt x="975" y="24" on="1"/>
        <pt x="973" y="23" on="0"/>
        <pt x="961" y="17" on="0"/>
        <pt x="946" y="11" on="0"/>
        <pt x="933" y="7" on="0"/>
        <pt x="932" y="7" on="1"/>
        <pt x="929" y="7" on="0"/>
        <pt x="913" y="5" on="0"/>
        <pt x="902" y="5" on="1"/>
        <pt x="891" y="5" on="0"/>
        <pt x="868" y="6" on="0"/>
        <pt x="847" y="6" on="0"/>
        <pt x="832" y="7" on="0"/>
        <pt x="829" y="7" on="1"/>
        <pt x="825" y="6" on="0"/>
        <pt x="792" y="2" on="0"/>
        <pt x="754" y="-3" on="0"/>
        <pt x="721" y="-7" on="0"/>
        <pt x="717" y="-7" on="1"/>
        <pt x="715" y="-9" on="0"/>
        <pt x="692" y="-9" on="0"/>
        <pt x="684" y="-9" on="1"/>
        <pt x="661" y="-9" on="0"/>
        <pt x="632" y="0" on="0"/>
        <pt x="610" y="0" on="1"/>
        <pt x="390" y="0" on="1"/>
        <pt x="385" y="0" on="0"/>
        <pt x="363" y="-2" on="0"/>
        <pt x="339" y="-4" on="0"/>
        <pt x="318" y="-6" on="0"/>
        <pt x="314" y="-7" on="1"/>
        <pt x="312" y="-9" on="0"/>
        <pt x="291" y="-16" on="0"/>
        <pt x="290" y="-16" on="1"/>
        <pt x="287" y="-16" on="0"/>
        <pt x="267" y="-9" on="0"/>
        <pt x="265" y="-7" on="1"/>
        <pt x="243" y="-4" on="0"/>
        <pt x="198" y="-5" on="0"/>
        <pt x="153" y="-2" on="0"/>
        <pt x="110" y="10" on="0"/>
      </contour>
    </TTGlyph>
    <TTGlyph name="Breve" xMin="147" yMin="1592" xMax="680" yMax="1874">
      <contour>
        <pt x="396" y="1592" on="1"/>
        <pt x="386" y="1592" on="0"/>
        <pt x="366" y="1593" on="0"/>
        <pt x="358" y="1595" on="1"/>
        <pt x="358" y="1595" on="0"/>
        <pt x="341" y="1599" on="0"/>
        <pt x="322" y="1604" on="0"/>
        <pt x="307" y="1608" on="0"/>
        <pt x="307" y="1608" on="1"/>
        <pt x="304" y="1609" on="1"/>
        <pt x="290" y="1610" on="1"/>
        <pt x="273" y="1612" on="0"/>
        <pt x="252" y="1631" on="0"/>
        <pt x="242" y="1635" on="1"/>
        <pt x="222" y="1644" on="1"/>
        <pt x="210" y="1653" on="0"/>
        <pt x="195" y="1676" on="0"/>
        <pt x="183" y="1700" on="0"/>
        <pt x="169" y="1725" on="0"/>
        <pt x="159" y="1736" on="1"/>
        <pt x="158" y="1751" on="1"/>
        <pt x="151" y="1761" on="1"/>
        <pt x="149" y="1767" on="0"/>
        <pt x="149" y="1774" on="1"/>
        <pt x="150" y="1786" on="1"/>
        <pt x="150" y="1824" on="1"/>
        <pt x="150" y="1832" on="0"/>
        <pt x="148" y="1851" on="0"/>
        <pt x="147" y="1860" on="1"/>
        <pt x="152" y="1866" on="0"/>
        <pt x="164" y="1874" on="0"/>
        <pt x="175" y="1874" on="1"/>
        <pt x="193" y="1874" on="0"/>
        <pt x="202" y="1860" on="1"/>
        <pt x="202" y="1843" on="0"/>
        <pt x="224" y="1819" on="0"/>
        <pt x="235" y="1805" on="1"/>
        <pt x="239" y="1799" on="0"/>
        <pt x="244" y="1785" on="0"/>
        <pt x="250" y="1772" on="0"/>
        <pt x="259" y="1760" on="0"/>
        <pt x="267" y="1754" on="1"/>
        <pt x="276" y="1747" on="0"/>
        <pt x="313" y="1729" on="0"/>
        <pt x="327" y="1724" on="1"/>
        <pt x="345" y="1717" on="0"/>
        <pt x="380" y="1711" on="0"/>
        <pt x="400" y="1710" on="1"/>
        <pt x="410" y="1708" on="0"/>
        <pt x="433" y="1706" on="0"/>
        <pt x="447" y="1706" on="1"/>
        <pt x="453" y="1706" on="0"/>
        <pt x="464" y="1708" on="0"/>
        <pt x="469" y="1710" on="1"/>
        <pt x="532" y="1736" on="1"/>
        <pt x="557" y="1756" on="1"/>
        <pt x="571" y="1764" on="1"/>
        <pt x="574" y="1767" on="0"/>
        <pt x="574" y="1769" on="1"/>
        <pt x="578" y="1772" on="1"/>
        <pt x="586" y="1778" on="0"/>
        <pt x="595" y="1806" on="0"/>
        <pt x="606" y="1816" on="1"/>
        <pt x="610" y="1820" on="1"/>
        <pt x="612" y="1828" on="1"/>
        <pt x="624" y="1860" on="1"/>
        <pt x="634" y="1874" on="0"/>
        <pt x="651" y="1874" on="1"/>
        <pt x="661" y="1874" on="0"/>
        <pt x="675" y="1865" on="0"/>
        <pt x="680" y="1860" on="1"/>
        <pt x="680" y="1827" on="1"/>
        <pt x="680" y="1774" on="0"/>
        <pt x="646" y="1691" on="0"/>
        <pt x="600" y="1646" on="1"/>
        <pt x="580" y="1626" on="0"/>
        <pt x="534" y="1614" on="0"/>
        <pt x="507" y="1603" on="1"/>
        <pt x="489" y="1595" on="0"/>
        <pt x="434" y="1593" on="0"/>
        <pt x="412" y="1592" on="1"/>
      </contour>
    </TTGlyph>
    <TTGlyph name="C" xMin="98" yMin="-5" xMax="1259" yMax="1434">
      <contour>
        <pt x="104" y="798" on="1"/>
        <pt x="106" y="800" on="0"/>
        <pt x="112" y="833" on="0"/>
        <pt x="116" y="868" on="1"/>
        <pt x="117" y="888" on="0"/>
        <pt x="123" y="925" on="0"/>
        <pt x="128" y="941" on="1"/>
        <pt x="129" y="942" on="0"/>
        <pt x="135" y="958" on="0"/>
        <pt x="142" y="977" on="0"/>
        <pt x="148" y="993" on="0"/>
        <pt x="149" y="995" on="1"/>
        <pt x="150" y="999" on="0"/>
        <pt x="157" y="1024" on="0"/>
        <pt x="165" y="1052" on="0"/>
        <pt x="172" y="1077" on="0"/>
        <pt x="173" y="1080" on="1"/>
        <pt x="179" y="1103" on="0"/>
        <pt x="211" y="1144" on="0"/>
        <pt x="225" y="1164" on="1"/>
        <pt x="240" y="1183" on="1"/>
        <pt x="282" y="1241" on="0"/>
        <pt x="389" y="1335" on="0"/>
        <pt x="513" y="1399" on="0"/>
        <pt x="651" y="1434" on="0"/>
        <pt x="723" y="1434" on="1"/>
        <pt x="777" y="1434" on="0"/>
        <pt x="873" y="1424" on="0"/>
        <pt x="964" y="1405" on="0"/>
        <pt x="1054" y="1377" on="0"/>
        <pt x="1104" y="1358" on="1"/>
        <pt x="1116" y="1358" on="1"/>
        <pt x="1131" y="1358" on="0"/>
        <pt x="1151" y="1381" on="0"/>
        <pt x="1157" y="1394" on="1"/>
        <pt x="1165" y="1408" on="0"/>
        <pt x="1188" y="1434" on="0"/>
        <pt x="1211" y="1434" on="1"/>
        <pt x="1224" y="1434" on="0"/>
        <pt x="1242" y="1420" on="0"/>
        <pt x="1253" y="1398" on="0"/>
        <pt x="1259" y="1373" on="0"/>
        <pt x="1259" y="1362" on="1"/>
        <pt x="1258" y="1360" on="0"/>
        <pt x="1258" y="1358" on="1"/>
        <pt x="1257" y="1356" on="0"/>
        <pt x="1257" y="1351" on="0"/>
        <pt x="1256" y="1349" on="1"/>
        <pt x="1254" y="1346" on="0"/>
        <pt x="1252" y="1341" on="1"/>
        <pt x="1252" y="1338" on="0"/>
        <pt x="1249" y="1323" on="0"/>
        <pt x="1249" y="1315" on="1"/>
        <pt x="1247" y="1301" on="0"/>
        <pt x="1244" y="1273" on="0"/>
        <pt x="1242" y="1265" on="1"/>
        <pt x="1242" y="1244" on="1"/>
        <pt x="1251" y="1187" on="0"/>
        <pt x="1259" y="1069" on="0"/>
        <pt x="1259" y="1012" on="1"/>
        <pt x="1259" y="969" on="1"/>
        <pt x="1254" y="962" on="0"/>
        <pt x="1236" y="950" on="0"/>
        <pt x="1228" y="950" on="1"/>
        <pt x="1216" y="950" on="0"/>
        <pt x="1196" y="969" on="0"/>
        <pt x="1181" y="997" on="0"/>
        <pt x="1170" y="1029" on="0"/>
        <pt x="1166" y="1043" on="1"/>
        <pt x="1162" y="1054" on="0"/>
        <pt x="1157" y="1069" on="0"/>
        <pt x="1155" y="1074" on="1"/>
        <pt x="1154" y="1076" on="0"/>
        <pt x="1145" y="1090" on="0"/>
        <pt x="1134" y="1106" on="0"/>
        <pt x="1126" y="1119" on="0"/>
        <pt x="1126" y="1121" on="1"/>
        <pt x="1123" y="1124" on="0"/>
        <pt x="1107" y="1150" on="0"/>
        <pt x="1089" y="1179" on="0"/>
        <pt x="1073" y="1205" on="0"/>
        <pt x="1072" y="1209" on="1"/>
        <pt x="1066" y="1213" on="0"/>
        <pt x="1064" y="1215" on="0"/>
        <pt x="1064" y="1220" on="1"/>
        <pt x="1047" y="1227" on="0"/>
        <pt x="1036" y="1239" on="1"/>
        <pt x="993" y="1270" on="0"/>
        <pt x="908" y="1326" on="0"/>
        <pt x="856" y="1337" on="1"/>
        <pt x="825" y="1337" on="1"/>
        <pt x="823" y="1337" on="0"/>
        <pt x="816" y="1339" on="0"/>
        <pt x="811" y="1341" on="1"/>
        <pt x="809" y="1341" on="0"/>
        <pt x="806" y="1342" on="0"/>
        <pt x="799" y="1343" on="0"/>
        <pt x="787" y="1344" on="0"/>
        <pt x="775" y="1346" on="1"/>
        <pt x="738" y="1346" on="0"/>
        <pt x="672" y="1333" on="0"/>
        <pt x="638" y="1322" on="1"/>
        <pt x="635" y="1321" on="0"/>
        <pt x="631" y="1320" on="1"/>
        <pt x="628" y="1319" on="0"/>
        <pt x="623" y="1317" on="0"/>
        <pt x="621" y="1317" on="1"/>
        <pt x="614" y="1315" on="0"/>
        <pt x="611" y="1315" on="0"/>
        <pt x="607" y="1315" on="1"/>
        <pt x="603" y="1313" on="0"/>
        <pt x="598" y="1311" on="0"/>
        <pt x="585" y="1306" on="1"/>
        <pt x="580" y="1304" on="0"/>
        <pt x="560" y="1285" on="0"/>
        <pt x="538" y="1265" on="1"/>
        <pt x="533" y="1260" on="0"/>
        <pt x="520" y="1249" on="0"/>
        <pt x="517" y="1247" on="1"/>
        <pt x="512" y="1242" on="0"/>
        <pt x="500" y="1232" on="0"/>
        <pt x="498" y="1230" on="1"/>
        <pt x="496" y="1228" on="0"/>
        <pt x="481" y="1212" on="0"/>
        <pt x="481" y="1211" on="1"/>
        <pt x="479" y="1208" on="0"/>
        <pt x="471" y="1190" on="0"/>
        <pt x="461" y="1170" on="0"/>
        <pt x="452" y="1154" on="0"/>
        <pt x="450" y="1152" on="1"/>
        <pt x="448" y="1150" on="0"/>
        <pt x="443" y="1140" on="0"/>
        <pt x="439" y="1135" on="1"/>
        <pt x="434" y="1127" on="0"/>
        <pt x="420" y="1108" on="0"/>
        <pt x="407" y="1090" on="0"/>
        <pt x="398" y="1077" on="0"/>
        <pt x="398" y="1076" on="1"/>
        <pt x="397" y="1075" on="0"/>
        <pt x="395" y="1066" on="0"/>
        <pt x="393" y="1055" on="0"/>
        <pt x="391" y="1044" on="0"/>
        <pt x="391" y="1043" on="1"/>
        <pt x="389" y="1041" on="0"/>
        <pt x="380" y="1021" on="0"/>
        <pt x="369" y="997" on="0"/>
        <pt x="360" y="977" on="0"/>
        <pt x="360" y="974" on="1"/>
        <pt x="357" y="969" on="0"/>
        <pt x="356" y="963" on="1"/>
        <pt x="354" y="955" on="1"/>
        <pt x="352" y="946" on="0"/>
        <pt x="345" y="909" on="0"/>
        <pt x="339" y="870" on="0"/>
        <pt x="335" y="838" on="0"/>
        <pt x="335" y="834" on="1"/>
        <pt x="335" y="683" on="1"/>
        <pt x="337" y="681" on="0"/>
        <pt x="344" y="652" on="0"/>
        <pt x="344" y="638" on="1"/>
        <pt x="344" y="642" on="0"/>
        <pt x="335" y="593" on="1"/>
        <pt x="342" y="578" on="0"/>
        <pt x="345" y="541" on="0"/>
        <pt x="348" y="522" on="1"/>
        <pt x="350" y="507" on="0"/>
        <pt x="355" y="470" on="0"/>
        <pt x="360" y="450" on="1"/>
        <pt x="364" y="434" on="0"/>
        <pt x="390" y="390" on="0"/>
        <pt x="403" y="370" on="1"/>
        <pt x="407" y="364" on="0"/>
        <pt x="420" y="346" on="0"/>
        <pt x="431" y="324" on="1"/>
        <pt x="441" y="304" on="0"/>
        <pt x="462" y="265" on="0"/>
        <pt x="479" y="256" on="1"/>
        <pt x="483" y="254" on="0"/>
        <pt x="485" y="253" on="0"/>
        <pt x="489" y="251" on="1"/>
        <pt x="494" y="248" on="0"/>
        <pt x="515" y="232" on="0"/>
        <pt x="538" y="209" on="1"/>
        <pt x="551" y="195" on="0"/>
        <pt x="578" y="170" on="0"/>
        <pt x="585" y="166" on="1"/>
        <pt x="586" y="166" on="0"/>
        <pt x="588" y="162" on="0"/>
        <pt x="595" y="159" on="1"/>
        <pt x="595" y="158" on="0"/>
        <pt x="600" y="156" on="1"/>
        <pt x="605" y="154" on="0"/>
        <pt x="619" y="149" on="0"/>
        <pt x="628" y="144" on="1"/>
        <pt x="640" y="139" on="0"/>
        <pt x="665" y="128" on="0"/>
        <pt x="689" y="118" on="0"/>
        <pt x="708" y="111" on="0"/>
        <pt x="713" y="111" on="1"/>
        <pt x="775" y="111" on="1"/>
        <pt x="779" y="109" on="0"/>
        <pt x="783" y="108" on="0"/>
        <pt x="794" y="104" on="1"/>
        <pt x="820" y="104" on="1"/>
        <pt x="857" y="104" on="0"/>
        <pt x="932" y="134" on="0"/>
        <pt x="1002" y="181" on="0"/>
        <pt x="1063" y="238" on="0"/>
        <pt x="1085" y="265" on="1"/>
        <pt x="1099" y="282" on="0"/>
        <pt x="1112" y="306" on="0"/>
        <pt x="1119" y="320" on="1"/>
        <pt x="1133" y="349" on="1"/>
        <pt x="1137" y="360" on="0"/>
        <pt x="1146" y="381" on="0"/>
        <pt x="1150" y="393" on="1"/>
        <pt x="1159" y="419" on="0"/>
        <pt x="1181" y="471" on="0"/>
        <pt x="1195" y="497" on="1"/>
        <pt x="1199" y="503" on="0"/>
        <pt x="1219" y="503" on="1"/>
        <pt x="1236" y="503" on="0"/>
        <pt x="1248" y="489" on="0"/>
        <pt x="1258" y="472" on="1"/>
        <pt x="1258" y="429" on="1"/>
        <pt x="1258" y="382" on="0"/>
        <pt x="1252" y="336" on="1"/>
        <pt x="1250" y="312" on="0"/>
        <pt x="1247" y="268" on="0"/>
        <pt x="1247" y="239" on="1"/>
        <pt x="1247" y="234" on="0"/>
        <pt x="1249" y="195" on="0"/>
        <pt x="1253" y="152" on="0"/>
        <pt x="1256" y="115" on="0"/>
        <pt x="1258" y="111" on="1"/>
        <pt x="1258" y="99" on="1"/>
        <pt x="1258" y="92" on="0"/>
        <pt x="1251" y="72" on="0"/>
        <pt x="1240" y="53" on="0"/>
        <pt x="1226" y="40" on="0"/>
        <pt x="1219" y="40" on="1"/>
        <pt x="1205" y="40" on="0"/>
        <pt x="1194" y="58" on="0"/>
        <pt x="1192" y="69" on="1"/>
        <pt x="1190" y="71" on="0"/>
        <pt x="1190" y="75" on="0"/>
        <pt x="1188" y="78" on="1"/>
        <pt x="1188" y="81" on="0"/>
        <pt x="1179" y="99" on="0"/>
        <pt x="1168" y="120" on="0"/>
        <pt x="1158" y="137" on="0"/>
        <pt x="1157" y="140" on="1"/>
        <pt x="1151" y="144" on="0"/>
        <pt x="1143" y="144" on="1"/>
        <pt x="1123" y="144" on="0"/>
        <pt x="1090" y="119" on="0"/>
        <pt x="1076" y="106" on="1"/>
        <pt x="1067" y="96" on="0"/>
        <pt x="1050" y="79" on="0"/>
        <pt x="1043" y="76" on="1"/>
        <pt x="1040" y="76" on="0"/>
        <pt x="1036" y="74" on="1"/>
        <pt x="1032" y="73" on="0"/>
        <pt x="1023" y="71" on="0"/>
        <pt x="1021" y="71" on="1"/>
        <pt x="1014" y="63" on="0"/>
        <pt x="995" y="56" on="0"/>
        <pt x="984" y="52" on="1"/>
        <pt x="973" y="48" on="0"/>
        <pt x="945" y="41" on="0"/>
        <pt x="929" y="36" on="1"/>
        <pt x="904" y="30" on="0"/>
        <pt x="856" y="13" on="0"/>
        <pt x="835" y="0" on="1"/>
        <pt x="808" y="-2" on="0"/>
        <pt x="752" y="-5" on="0"/>
        <pt x="723" y="-5" on="1"/>
        <pt x="700" y="-5" on="0"/>
        <pt x="651" y="-2" on="0"/>
        <pt x="626" y="0" on="1"/>
        <pt x="624" y="1" on="0"/>
        <pt x="612" y="5" on="0"/>
        <pt x="598" y="10" on="0"/>
        <pt x="586" y="13" on="0"/>
        <pt x="583" y="14" on="1"/>
        <pt x="585" y="14" on="0"/>
        <pt x="568" y="17" on="0"/>
        <pt x="559" y="17" on="1"/>
        <pt x="549" y="20" on="0"/>
        <pt x="537" y="22" on="0"/>
        <pt x="534" y="24" on="1"/>
        <pt x="525" y="29" on="0"/>
        <pt x="522" y="31" on="0"/>
        <pt x="521" y="31" on="1"/>
        <pt x="511" y="37" on="0"/>
        <pt x="496" y="40" on="1"/>
        <pt x="471" y="49" on="0"/>
        <pt x="422" y="70" on="0"/>
        <pt x="399" y="83" on="1"/>
        <pt x="364" y="105" on="0"/>
        <pt x="304" y="164" on="0"/>
        <pt x="278" y="195" on="1"/>
        <pt x="275" y="199" on="0"/>
        <pt x="253" y="227" on="0"/>
        <pt x="227" y="258" on="0"/>
        <pt x="205" y="286" on="0"/>
        <pt x="202" y="289" on="1"/>
        <pt x="201" y="292" on="0"/>
        <pt x="191" y="311" on="0"/>
        <pt x="178" y="335" on="0"/>
        <pt x="167" y="358" on="0"/>
        <pt x="164" y="363" on="1"/>
        <pt x="162" y="367" on="0"/>
        <pt x="156" y="382" on="0"/>
        <pt x="154" y="391" on="1"/>
        <pt x="150" y="402" on="0"/>
        <pt x="143" y="421" on="0"/>
        <pt x="142" y="426" on="1"/>
        <pt x="138" y="440" on="0"/>
        <pt x="125" y="490" on="0"/>
        <pt x="113" y="538" on="0"/>
        <pt x="105" y="575" on="0"/>
        <pt x="105" y="576" on="1"/>
        <pt x="103" y="603" on="0"/>
        <pt x="98" y="662" on="0"/>
        <pt x="98" y="694" on="1"/>
        <pt x="98" y="742" on="0"/>
      </contour>
    </TTGlyph>
    <TTGlyph name="Cacute" xMin="98" yMin="-5" xMax="1259" yMax="1943">
      <component glyphName="C" x="0" y="0" flags="0x204"/>
      <component glyphName="Acute" x="454" y="0" flags="0x4"/>
    </TTGlyph>
    <TTGlyph name="Caron" xMin="215" yMin="1511" xMax="690" yMax="1898">
      <contour>
        <pt x="446" y="1511" on="1"/>
        <pt x="433" y="1511" on="0"/>
        <pt x="406" y="1537" on="0"/>
        <pt x="395" y="1554" on="1"/>
        <pt x="377" y="1576" on="0"/>
        <pt x="342" y="1629" on="0"/>
        <pt x="333" y="1658" on="1"/>
        <pt x="330" y="1661" on="0"/>
        <pt x="318" y="1678" on="0"/>
        <pt x="304" y="1698" on="0"/>
        <pt x="292" y="1717" on="0"/>
        <pt x="288" y="1722" on="1"/>
        <pt x="276" y="1738" on="0"/>
        <pt x="258" y="1764" on="0"/>
        <pt x="243" y="1790" on="0"/>
        <pt x="228" y="1819" on="0"/>
        <pt x="219" y="1839" on="1"/>
        <pt x="216" y="1844" on="0"/>
        <pt x="215" y="1862" on="0"/>
        <pt x="215" y="1870" on="1"/>
        <pt x="215" y="1875" on="0"/>
        <pt x="217" y="1889" on="0"/>
        <pt x="224" y="1898" on="1"/>
        <pt x="246" y="1898" on="1"/>
        <pt x="254" y="1893" on="0"/>
        <pt x="261" y="1884" on="0"/>
        <pt x="271" y="1870" on="0"/>
        <pt x="290" y="1849" on="0"/>
        <pt x="310" y="1833" on="1"/>
        <pt x="315" y="1828" on="0"/>
        <pt x="331" y="1806" on="0"/>
        <pt x="348" y="1786" on="1"/>
        <pt x="363" y="1777" on="0"/>
        <pt x="384" y="1753" on="0"/>
        <pt x="405" y="1728" on="0"/>
        <pt x="427" y="1704" on="0"/>
        <pt x="444" y="1694" on="1"/>
        <pt x="448" y="1700" on="0"/>
        <pt x="463" y="1710" on="0"/>
        <pt x="478" y="1722" on="0"/>
        <pt x="491" y="1736" on="0"/>
        <pt x="492" y="1744" on="1"/>
        <pt x="515" y="1754" on="0"/>
        <pt x="546" y="1784" on="0"/>
        <pt x="572" y="1818" on="0"/>
        <pt x="599" y="1853" on="0"/>
        <pt x="619" y="1870" on="1"/>
        <pt x="627" y="1870" on="0"/>
        <pt x="657" y="1882" on="0"/>
        <pt x="661" y="1882" on="1"/>
        <pt x="668" y="1882" on="1"/>
        <pt x="682" y="1882" on="0"/>
        <pt x="690" y="1872" on="0"/>
        <pt x="690" y="1863" on="1"/>
        <pt x="690" y="1853" on="0"/>
        <pt x="679" y="1830" on="0"/>
        <pt x="675" y="1821" on="1"/>
        <pt x="674" y="1818" on="0"/>
        <pt x="654" y="1788" on="0"/>
        <pt x="630" y="1753" on="0"/>
        <pt x="608" y="1722" on="0"/>
        <pt x="605" y="1718" on="1"/>
        <pt x="605" y="1712" on="0"/>
        <pt x="592" y="1696" on="0"/>
        <pt x="573" y="1674" on="0"/>
        <pt x="549" y="1647" on="0"/>
        <pt x="539" y="1629" on="1"/>
        <pt x="528" y="1610" on="0"/>
        <pt x="509" y="1574" on="0"/>
        <pt x="489" y="1548" on="1"/>
        <pt x="479" y="1535" on="0"/>
        <pt x="457" y="1511" on="0"/>
      </contour>
    </TTGlyph>
    <TTGlyph name="Ccaron" xMin="98" yMin="-5" xMax="1259" yMax="1898">
      <component glyphName="C" x="0" y="0" flags="0x204"/>
      <component glyphName="Caron" x="307" y="0" flags="0x4"/>
    </TTGlyph>
    <TTGlyph name="Ccedilla" xMin="98" yMin="-540" xMax="1259" yMax="1434">
      <contour>
        <pt x="588" y="-502" on="1"/>
        <pt x="590" y="-499" on="0"/>
        <pt x="591" y="-493" on="0"/>
        <pt x="593" y="-491" on="1"/>
        <pt x="612" y="-486" on="0"/>
        <pt x="643" y="-481" on="0"/>
        <pt x="659" y="-472" on="1"/>
        <pt x="662" y="-470" on="0"/>
        <pt x="680" y="-460" on="0"/>
        <pt x="700" y="-449" on="0"/>
        <pt x="715" y="-441" on="0"/>
        <pt x="716" y="-441" on="1"/>
        <pt x="722" y="-435" on="0"/>
        <pt x="727" y="-429" on="1"/>
        <pt x="732" y="-424" on="0"/>
        <pt x="742" y="-413" on="0"/>
        <pt x="747" y="-408" on="1"/>
        <pt x="748" y="-408" on="0"/>
        <pt x="755" y="-402" on="0"/>
        <pt x="762" y="-395" on="0"/>
        <pt x="769" y="-389" on="0"/>
        <pt x="770" y="-389" on="1"/>
        <pt x="776" y="-381" on="0"/>
        <pt x="794" y="-356" on="0"/>
        <pt x="796" y="-355" on="1"/>
        <pt x="796" y="-337" on="1"/>
        <pt x="795" y="-333" on="0"/>
        <pt x="792" y="-312" on="0"/>
        <pt x="788" y="-286" on="0"/>
        <pt x="781" y="-262" on="0"/>
        <pt x="777" y="-256" on="1"/>
        <pt x="774" y="-252" on="0"/>
        <pt x="756" y="-236" on="0"/>
        <pt x="751" y="-234" on="1"/>
        <pt x="750" y="-233" on="0"/>
        <pt x="737" y="-226" on="0"/>
        <pt x="720" y="-218" on="0"/>
        <pt x="704" y="-211" on="0"/>
        <pt x="701" y="-209" on="1"/>
        <pt x="696" y="-208" on="0"/>
        <pt x="676" y="-206" on="0"/>
        <pt x="675" y="-206" on="1"/>
        <pt x="657" y="-206" on="1"/>
        <pt x="642" y="-208" on="0"/>
        <pt x="615" y="-218" on="0"/>
        <pt x="602" y="-225" on="1"/>
        <pt x="582" y="-234" on="0"/>
        <pt x="546" y="-266" on="0"/>
        <pt x="528" y="-275" on="1"/>
        <pt x="526" y="-275" on="0"/>
        <pt x="524" y="-277" on="0"/>
        <pt x="522" y="-277" on="1"/>
        <pt x="518" y="-277" on="0"/>
        <pt x="508" y="-269" on="0"/>
        <pt x="505" y="-266" on="1"/>
        <pt x="505" y="-252" on="0"/>
        <pt x="509" y="-236" on="0"/>
        <pt x="517" y="-225" on="1"/>
        <pt x="521" y="-220" on="0"/>
        <pt x="539" y="-197" on="0"/>
        <pt x="558" y="-171" on="0"/>
        <pt x="575" y="-149" on="0"/>
        <pt x="578" y="-145" on="1"/>
        <pt x="612" y="-111" on="1"/>
        <pt x="616" y="-107" on="0"/>
        <pt x="632" y="-88" on="0"/>
        <pt x="649" y="-68" on="0"/>
        <pt x="662" y="-51" on="0"/>
        <pt x="664" y="-48" on="1"/>
        <pt x="671" y="-42" on="0"/>
        <pt x="675" y="-30" on="0"/>
        <pt x="675" y="-22" on="1"/>
        <pt x="675" y="-16" on="1"/>
        <pt x="681" y="-8" on="0"/>
        <pt x="683" y="-4" on="1"/>
        <pt x="669" y="-3" on="0"/>
        <pt x="640" y="-1" on="0"/>
        <pt x="626" y="0" on="1"/>
        <pt x="624" y="1" on="0"/>
        <pt x="612" y="5" on="0"/>
        <pt x="599" y="9" on="0"/>
        <pt x="586" y="13" on="0"/>
        <pt x="583" y="14" on="1"/>
        <pt x="584" y="14" on="0"/>
        <pt x="567" y="17" on="0"/>
        <pt x="559" y="17" on="1"/>
        <pt x="549" y="20" on="0"/>
        <pt x="537" y="22" on="0"/>
        <pt x="534" y="24" on="1"/>
        <pt x="525" y="29" on="0"/>
        <pt x="522" y="31" on="0"/>
        <pt x="521" y="31" on="1"/>
        <pt x="511" y="37" on="0"/>
        <pt x="496" y="40" on="1"/>
        <pt x="471" y="49" on="0"/>
        <pt x="422" y="70" on="0"/>
        <pt x="399" y="83" on="1"/>
        <pt x="364" y="105" on="0"/>
        <pt x="304" y="164" on="0"/>
        <pt x="278" y="195" on="1"/>
        <pt x="275" y="199" on="0"/>
        <pt x="253" y="227" on="0"/>
        <pt x="227" y="258" on="0"/>
        <pt x="205" y="286" on="0"/>
        <pt x="202" y="289" on="1"/>
        <pt x="201" y="292" on="0"/>
        <pt x="191" y="311" on="0"/>
        <pt x="178" y="335" on="0"/>
        <pt x="167" y="358" on="0"/>
        <pt x="164" y="363" on="1"/>
        <pt x="162" y="367" on="0"/>
        <pt x="156" y="382" on="0"/>
        <pt x="154" y="391" on="1"/>
        <pt x="150" y="402" on="0"/>
        <pt x="143" y="421" on="0"/>
        <pt x="142" y="426" on="1"/>
        <pt x="138" y="440" on="0"/>
        <pt x="125" y="490" on="0"/>
        <pt x="113" y="538" on="0"/>
        <pt x="105" y="575" on="0"/>
        <pt x="105" y="576" on="1"/>
        <pt x="103" y="603" on="0"/>
        <pt x="98" y="662" on="0"/>
        <pt x="98" y="694" on="1"/>
        <pt x="98" y="742" on="0"/>
        <pt x="104" y="798" on="1"/>
        <pt x="106" y="800" on="0"/>
        <pt x="112" y="833" on="0"/>
        <pt x="116" y="868" on="1"/>
        <pt x="117" y="888" on="0"/>
        <pt x="123" y="925" on="0"/>
        <pt x="128" y="941" on="1"/>
        <pt x="129" y="942" on="0"/>
        <pt x="135" y="958" on="0"/>
        <pt x="142" y="977" on="0"/>
        <pt x="148" y="993" on="0"/>
        <pt x="149" y="995" on="1"/>
        <pt x="150" y="999" on="0"/>
        <pt x="157" y="1024" on="0"/>
        <pt x="165" y="1052" on="0"/>
        <pt x="172" y="1077" on="0"/>
        <pt x="173" y="1080" on="1"/>
        <pt x="179" y="1103" on="0"/>
        <pt x="211" y="1144" on="0"/>
        <pt x="225" y="1164" on="1"/>
        <pt x="240" y="1183" on="1"/>
        <pt x="282" y="1241" on="0"/>
        <pt x="389" y="1335" on="0"/>
        <pt x="513" y="1399" on="0"/>
        <pt x="651" y="1434" on="0"/>
        <pt x="723" y="1434" on="1"/>
        <pt x="777" y="1434" on="0"/>
        <pt x="873" y="1424" on="0"/>
        <pt x="964" y="1405" on="0"/>
        <pt x="1054" y="1377" on="0"/>
        <pt x="1104" y="1358" on="1"/>
        <pt x="1116" y="1358" on="1"/>
        <pt x="1131" y="1358" on="0"/>
        <pt x="1151" y="1381" on="0"/>
        <pt x="1157" y="1394" on="1"/>
        <pt x="1165" y="1408" on="0"/>
        <pt x="1188" y="1434" on="0"/>
        <pt x="1211" y="1434" on="1"/>
        <pt x="1224" y="1434" on="0"/>
        <pt x="1242" y="1420" on="0"/>
        <pt x="1253" y="1398" on="0"/>
        <pt x="1259" y="1373" on="0"/>
        <pt x="1259" y="1362" on="1"/>
        <pt x="1258" y="1360" on="0"/>
        <pt x="1258" y="1358" on="1"/>
        <pt x="1257" y="1356" on="0"/>
        <pt x="1257" y="1351" on="0"/>
        <pt x="1256" y="1349" on="1"/>
        <pt x="1254" y="1346" on="0"/>
        <pt x="1252" y="1341" on="1"/>
        <pt x="1252" y="1338" on="0"/>
        <pt x="1249" y="1323" on="0"/>
        <pt x="1249" y="1315" on="1"/>
        <pt x="1247" y="1301" on="0"/>
        <pt x="1244" y="1273" on="0"/>
        <pt x="1242" y="1265" on="1"/>
        <pt x="1242" y="1244" on="1"/>
        <pt x="1251" y="1187" on="0"/>
        <pt x="1259" y="1069" on="0"/>
        <pt x="1259" y="1012" on="1"/>
        <pt x="1259" y="969" on="1"/>
        <pt x="1254" y="962" on="0"/>
        <pt x="1236" y="950" on="0"/>
        <pt x="1228" y="950" on="1"/>
        <pt x="1216" y="950" on="0"/>
        <pt x="1196" y="969" on="0"/>
        <pt x="1181" y="997" on="0"/>
        <pt x="1170" y="1029" on="0"/>
        <pt x="1166" y="1043" on="1"/>
        <pt x="1162" y="1054" on="0"/>
        <pt x="1157" y="1069" on="0"/>
        <pt x="1155" y="1074" on="1"/>
        <pt x="1154" y="1076" on="0"/>
        <pt x="1145" y="1090" on="0"/>
        <pt x="1134" y="1106" on="0"/>
        <pt x="1126" y="1119" on="0"/>
        <pt x="1126" y="1121" on="1"/>
        <pt x="1123" y="1124" on="0"/>
        <pt x="1107" y="1150" on="0"/>
        <pt x="1089" y="1179" on="0"/>
        <pt x="1073" y="1205" on="0"/>
        <pt x="1072" y="1209" on="1"/>
        <pt x="1066" y="1213" on="0"/>
        <pt x="1064" y="1215" on="0"/>
        <pt x="1064" y="1220" on="1"/>
        <pt x="1047" y="1227" on="0"/>
        <pt x="1036" y="1239" on="1"/>
        <pt x="993" y="1270" on="0"/>
        <pt x="908" y="1326" on="0"/>
        <pt x="856" y="1337" on="1"/>
        <pt x="825" y="1337" on="1"/>
        <pt x="823" y="1337" on="0"/>
        <pt x="816" y="1339" on="0"/>
        <pt x="811" y="1341" on="1"/>
        <pt x="809" y="1341" on="0"/>
        <pt x="806" y="1342" on="0"/>
        <pt x="799" y="1343" on="0"/>
        <pt x="787" y="1344" on="0"/>
        <pt x="775" y="1346" on="1"/>
        <pt x="738" y="1346" on="0"/>
        <pt x="672" y="1333" on="0"/>
        <pt x="638" y="1322" on="1"/>
        <pt x="635" y="1321" on="0"/>
        <pt x="631" y="1320" on="1"/>
        <pt x="628" y="1319" on="0"/>
        <pt x="623" y="1317" on="0"/>
        <pt x="621" y="1317" on="1"/>
        <pt x="614" y="1315" on="0"/>
        <pt x="611" y="1315" on="0"/>
        <pt x="607" y="1315" on="1"/>
        <pt x="603" y="1313" on="0"/>
        <pt x="598" y="1311" on="0"/>
        <pt x="585" y="1306" on="1"/>
        <pt x="580" y="1304" on="0"/>
        <pt x="560" y="1285" on="0"/>
        <pt x="538" y="1265" on="1"/>
        <pt x="533" y="1260" on="0"/>
        <pt x="520" y="1249" on="0"/>
        <pt x="517" y="1247" on="1"/>
        <pt x="512" y="1242" on="0"/>
        <pt x="500" y="1232" on="0"/>
        <pt x="498" y="1230" on="1"/>
        <pt x="496" y="1228" on="0"/>
        <pt x="481" y="1212" on="0"/>
        <pt x="481" y="1211" on="1"/>
        <pt x="479" y="1208" on="0"/>
        <pt x="471" y="1190" on="0"/>
        <pt x="461" y="1170" on="0"/>
        <pt x="452" y="1154" on="0"/>
        <pt x="450" y="1152" on="1"/>
        <pt x="448" y="1150" on="0"/>
        <pt x="443" y="1140" on="0"/>
        <pt x="439" y="1135" on="1"/>
        <pt x="434" y="1127" on="0"/>
        <pt x="420" y="1108" on="0"/>
        <pt x="407" y="1090" on="0"/>
        <pt x="398" y="1077" on="0"/>
        <pt x="398" y="1076" on="1"/>
        <pt x="397" y="1075" on="0"/>
        <pt x="395" y="1066" on="0"/>
        <pt x="393" y="1055" on="0"/>
        <pt x="391" y="1044" on="0"/>
        <pt x="391" y="1043" on="1"/>
        <pt x="389" y="1041" on="0"/>
        <pt x="380" y="1021" on="0"/>
        <pt x="369" y="997" on="0"/>
        <pt x="360" y="977" on="0"/>
        <pt x="360" y="974" on="1"/>
        <pt x="357" y="969" on="0"/>
        <pt x="356" y="963" on="1"/>
        <pt x="354" y="955" on="1"/>
        <pt x="352" y="946" on="0"/>
        <pt x="345" y="909" on="0"/>
        <pt x="339" y="870" on="0"/>
        <pt x="335" y="838" on="0"/>
        <pt x="335" y="834" on="1"/>
        <pt x="335" y="683" on="1"/>
        <pt x="337" y="681" on="0"/>
        <pt x="344" y="652" on="0"/>
        <pt x="344" y="638" on="1"/>
        <pt x="344" y="642" on="0"/>
        <pt x="335" y="593" on="1"/>
        <pt x="342" y="578" on="0"/>
        <pt x="345" y="541" on="0"/>
        <pt x="348" y="522" on="1"/>
        <pt x="350" y="507" on="0"/>
        <pt x="355" y="470" on="0"/>
        <pt x="360" y="450" on="1"/>
        <pt x="364" y="434" on="0"/>
        <pt x="390" y="390" on="0"/>
        <pt x="403" y="370" on="1"/>
        <pt x="407" y="364" on="0"/>
        <pt x="420" y="346" on="0"/>
        <pt x="431" y="324" on="1"/>
        <pt x="441" y="304" on="0"/>
        <pt x="462" y="265" on="0"/>
        <pt x="479" y="256" on="1"/>
        <pt x="483" y="254" on="0"/>
        <pt x="485" y="253" on="0"/>
        <pt x="489" y="251" on="1"/>
        <pt x="494" y="248" on="0"/>
        <pt x="515" y="232" on="0"/>
        <pt x="538" y="209" on="1"/>
        <pt x="551" y="195" on="0"/>
        <pt x="578" y="170" on="0"/>
        <pt x="585" y="166" on="1"/>
        <pt x="586" y="166" on="0"/>
        <pt x="588" y="162" on="0"/>
        <pt x="595" y="159" on="1"/>
        <pt x="595" y="158" on="0"/>
        <pt x="600" y="156" on="1"/>
        <pt x="605" y="154" on="0"/>
        <pt x="619" y="149" on="0"/>
        <pt x="628" y="144" on="1"/>
        <pt x="640" y="139" on="0"/>
        <pt x="665" y="128" on="0"/>
        <pt x="689" y="118" on="0"/>
        <pt x="708" y="111" on="0"/>
        <pt x="713" y="111" on="1"/>
        <pt x="775" y="111" on="1"/>
        <pt x="779" y="109" on="0"/>
        <pt x="783" y="108" on="0"/>
        <pt x="794" y="104" on="1"/>
        <pt x="820" y="104" on="1"/>
        <pt x="857" y="104" on="0"/>
        <pt x="932" y="134" on="0"/>
        <pt x="1002" y="181" on="0"/>
        <pt x="1063" y="238" on="0"/>
        <pt x="1085" y="265" on="1"/>
        <pt x="1099" y="282" on="0"/>
        <pt x="1112" y="306" on="0"/>
        <pt x="1119" y="320" on="1"/>
        <pt x="1133" y="349" on="1"/>
        <pt x="1137" y="360" on="0"/>
        <pt x="1146" y="381" on="0"/>
        <pt x="1150" y="393" on="1"/>
        <pt x="1159" y="419" on="0"/>
        <pt x="1181" y="471" on="0"/>
        <pt x="1195" y="497" on="1"/>
        <pt x="1199" y="503" on="0"/>
        <pt x="1219" y="503" on="1"/>
        <pt x="1236" y="503" on="0"/>
        <pt x="1248" y="489" on="0"/>
        <pt x="1258" y="472" on="1"/>
        <pt x="1258" y="429" on="1"/>
        <pt x="1258" y="382" on="0"/>
        <pt x="1252" y="336" on="1"/>
        <pt x="1250" y="312" on="0"/>
        <pt x="1247" y="268" on="0"/>
        <pt x="1247" y="239" on="1"/>
        <pt x="1247" y="234" on="0"/>
        <pt x="1249" y="195" on="0"/>
        <pt x="1253" y="152" on="0"/>
        <pt x="1256" y="115" on="0"/>
        <pt x="1258" y="111" on="1"/>
        <pt x="1258" y="99" on="1"/>
        <pt x="1258" y="92" on="0"/>
        <pt x="1251" y="72" on="0"/>
        <pt x="1240" y="53" on="0"/>
        <pt x="1226" y="40" on="0"/>
        <pt x="1219" y="40" on="1"/>
        <pt x="1205" y="40" on="0"/>
        <pt x="1194" y="58" on="0"/>
        <pt x="1192" y="69" on="1"/>
        <pt x="1190" y="71" on="0"/>
        <pt x="1190" y="75" on="0"/>
        <pt x="1188" y="78" on="1"/>
        <pt x="1188" y="81" on="0"/>
        <pt x="1179" y="99" on="0"/>
        <pt x="1168" y="120" on="0"/>
        <pt x="1158" y="137" on="0"/>
        <pt x="1157" y="140" on="1"/>
        <pt x="1151" y="144" on="0"/>
        <pt x="1143" y="144" on="1"/>
        <pt x="1123" y="144" on="0"/>
        <pt x="1090" y="119" on="0"/>
        <pt x="1076" y="106" on="1"/>
        <pt x="1067" y="96" on="0"/>
        <pt x="1050" y="79" on="0"/>
        <pt x="1043" y="76" on="1"/>
        <pt x="1040" y="76" on="0"/>
        <pt x="1036" y="74" on="1"/>
        <pt x="1032" y="73" on="0"/>
        <pt x="1023" y="71" on="0"/>
        <pt x="1021" y="71" on="1"/>
        <pt x="1014" y="63" on="0"/>
        <pt x="995" y="56" on="0"/>
        <pt x="984" y="52" on="1"/>
        <pt x="973" y="48" on="0"/>
        <pt x="945" y="41" on="0"/>
        <pt x="929" y="36" on="1"/>
        <pt x="904" y="30" on="0"/>
        <pt x="856" y="13" on="0"/>
        <pt x="835" y="0" on="1"/>
        <pt x="790" y="-3" on="1"/>
        <pt x="789" y="-4" on="0"/>
        <pt x="789" y="-5" on="1"/>
        <pt x="780" y="-23" on="0"/>
        <pt x="752" y="-55" on="0"/>
        <pt x="752" y="-76" on="1"/>
        <pt x="752" y="-85" on="1"/>
        <pt x="756" y="-89" on="1"/>
        <pt x="760" y="-93" on="0"/>
        <pt x="763" y="-93" on="1"/>
        <pt x="766" y="-95" on="0"/>
        <pt x="776" y="-104" on="0"/>
        <pt x="787" y="-112" on="0"/>
        <pt x="795" y="-119" on="0"/>
        <pt x="796" y="-119" on="1"/>
        <pt x="797" y="-120" on="0"/>
        <pt x="810" y="-125" on="0"/>
        <pt x="825" y="-131" on="0"/>
        <pt x="839" y="-136" on="0"/>
        <pt x="841" y="-137" on="1"/>
        <pt x="871" y="-150" on="0"/>
        <pt x="897" y="-196" on="0"/>
        <pt x="910" y="-225" on="1"/>
        <pt x="921" y="-247" on="0"/>
        <pt x="929" y="-298" on="0"/>
        <pt x="929" y="-324" on="1"/>
        <pt x="929" y="-326" on="0"/>
        <pt x="928" y="-333" on="0"/>
        <pt x="928" y="-337" on="1"/>
        <pt x="927" y="-341" on="0"/>
        <pt x="927" y="-346" on="1"/>
        <pt x="926" y="-350" on="0"/>
        <pt x="918" y="-370" on="0"/>
        <pt x="907" y="-392" on="0"/>
        <pt x="896" y="-413" on="0"/>
        <pt x="893" y="-417" on="1"/>
        <pt x="890" y="-420" on="0"/>
        <pt x="873" y="-436" on="0"/>
        <pt x="854" y="-455" on="0"/>
        <pt x="836" y="-473" on="0"/>
        <pt x="832" y="-476" on="1"/>
        <pt x="830" y="-478" on="0"/>
        <pt x="819" y="-484" on="0"/>
        <pt x="807" y="-490" on="0"/>
        <pt x="797" y="-494" on="0"/>
        <pt x="796" y="-495" on="1"/>
        <pt x="795" y="-495" on="0"/>
        <pt x="788" y="-500" on="0"/>
        <pt x="779" y="-506" on="0"/>
        <pt x="771" y="-511" on="0"/>
        <pt x="770" y="-512" on="1"/>
        <pt x="765" y="-515" on="0"/>
        <pt x="748" y="-523" on="0"/>
        <pt x="732" y="-532" on="0"/>
        <pt x="719" y="-538" on="0"/>
        <pt x="718" y="-538" on="1"/>
        <pt x="711" y="-539" on="0"/>
        <pt x="704" y="-539" on="1"/>
        <pt x="698" y="-540" on="0"/>
        <pt x="686" y="-540" on="0"/>
        <pt x="682" y="-540" on="1"/>
        <pt x="678" y="-540" on="0"/>
        <pt x="664" y="-539" on="0"/>
        <pt x="650" y="-539" on="0"/>
        <pt x="639" y="-538" on="0"/>
        <pt x="638" y="-538" on="1"/>
        <pt x="630" y="-536" on="0"/>
        <pt x="604" y="-524" on="0"/>
        <pt x="599" y="-519" on="1"/>
        <pt x="597" y="-517" on="0"/>
        <pt x="590" y="-504" on="0"/>
      </contour>
    </TTGlyph>
    <TTGlyph name="Circumflex" xMin="151" yMin="1528" xMax="626" yMax="1915">
      <contour>
        <pt x="395" y="1915" on="1"/>
        <pt x="408" y="1915" on="0"/>
        <pt x="435" y="1889" on="0"/>
        <pt x="446" y="1872" on="1"/>
        <pt x="464" y="1850" on="0"/>
        <pt x="499" y="1797" on="0"/>
        <pt x="508" y="1768" on="1"/>
        <pt x="511" y="1765" on="0"/>
        <pt x="523" y="1748" on="0"/>
        <pt x="536" y="1728" on="0"/>
        <pt x="549" y="1709" on="0"/>
        <pt x="553" y="1704" on="1"/>
        <pt x="565" y="1688" on="0"/>
        <pt x="583" y="1662" on="0"/>
        <pt x="598" y="1636" on="0"/>
        <pt x="613" y="1606" on="0"/>
        <pt x="622" y="1587" on="1"/>
        <pt x="625" y="1582" on="0"/>
        <pt x="626" y="1564" on="0"/>
        <pt x="626" y="1556" on="1"/>
        <pt x="626" y="1551" on="0"/>
        <pt x="624" y="1537" on="0"/>
        <pt x="617" y="1528" on="1"/>
        <pt x="595" y="1528" on="1"/>
        <pt x="587" y="1532" on="0"/>
        <pt x="580" y="1542" on="0"/>
        <pt x="570" y="1556" on="0"/>
        <pt x="551" y="1577" on="0"/>
        <pt x="531" y="1593" on="1"/>
        <pt x="526" y="1598" on="0"/>
        <pt x="510" y="1620" on="0"/>
        <pt x="493" y="1640" on="1"/>
        <pt x="478" y="1649" on="0"/>
        <pt x="457" y="1673" on="0"/>
        <pt x="436" y="1698" on="0"/>
        <pt x="413" y="1722" on="0"/>
        <pt x="397" y="1732" on="1"/>
        <pt x="393" y="1726" on="0"/>
        <pt x="378" y="1716" on="0"/>
        <pt x="363" y="1704" on="0"/>
        <pt x="350" y="1690" on="0"/>
        <pt x="349" y="1682" on="1"/>
        <pt x="326" y="1672" on="0"/>
        <pt x="295" y="1642" on="0"/>
        <pt x="269" y="1608" on="0"/>
        <pt x="241" y="1572" on="0"/>
        <pt x="222" y="1556" on="1"/>
        <pt x="214" y="1556" on="0"/>
        <pt x="184" y="1544" on="0"/>
        <pt x="180" y="1544" on="1"/>
        <pt x="173" y="1544" on="1"/>
        <pt x="159" y="1544" on="0"/>
        <pt x="151" y="1554" on="0"/>
        <pt x="151" y="1563" on="1"/>
        <pt x="151" y="1573" on="0"/>
        <pt x="162" y="1596" on="0"/>
        <pt x="166" y="1605" on="1"/>
        <pt x="167" y="1608" on="0"/>
        <pt x="187" y="1638" on="0"/>
        <pt x="211" y="1673" on="0"/>
        <pt x="233" y="1704" on="0"/>
        <pt x="236" y="1708" on="1"/>
        <pt x="236" y="1714" on="0"/>
        <pt x="249" y="1730" on="0"/>
        <pt x="268" y="1752" on="0"/>
        <pt x="291" y="1779" on="0"/>
        <pt x="302" y="1797" on="1"/>
        <pt x="313" y="1816" on="0"/>
        <pt x="332" y="1852" on="0"/>
        <pt x="352" y="1878" on="1"/>
        <pt x="362" y="1891" on="0"/>
        <pt x="384" y="1915" on="0"/>
      </contour>
    </TTGlyph>
    <TTGlyph name="D" xMin="82" yMin="-22" xMax="1522" yMax="1464">
      <contour>
        <pt x="496" y="348" on="1"/>
        <pt x="496" y="346" on="0"/>
        <pt x="498" y="334" on="0"/>
        <pt x="501" y="320" on="0"/>
        <pt x="503" y="309" on="0"/>
        <pt x="503" y="308" on="1"/>
        <pt x="503" y="292" on="1"/>
        <pt x="503" y="284" on="0"/>
        <pt x="505" y="255" on="0"/>
        <pt x="508" y="226" on="0"/>
        <pt x="511" y="203" on="0"/>
        <pt x="513" y="202" on="1"/>
        <pt x="513" y="198" on="0"/>
        <pt x="518" y="185" on="0"/>
        <pt x="518" y="178" on="1"/>
        <pt x="518" y="133" on="1"/>
        <pt x="521" y="103" on="0"/>
        <pt x="554" y="68" on="0"/>
        <pt x="600" y="51" on="0"/>
        <pt x="652" y="47" on="0"/>
        <pt x="674" y="47" on="1"/>
        <pt x="678" y="47" on="0"/>
        <pt x="695" y="47" on="0"/>
        <pt x="713" y="47" on="0"/>
        <pt x="730" y="48" on="0"/>
        <pt x="734" y="48" on="1"/>
        <pt x="744" y="65" on="0"/>
        <pt x="783" y="75" on="0"/>
        <pt x="800" y="78" on="1"/>
        <pt x="809" y="79" on="0"/>
        <pt x="838" y="84" on="0"/>
        <pt x="866" y="89" on="0"/>
        <pt x="886" y="93" on="0"/>
        <pt x="887" y="93" on="1"/>
        <pt x="890" y="95" on="0"/>
        <pt x="914" y="111" on="0"/>
        <pt x="942" y="130" on="0"/>
        <pt x="967" y="146" on="0"/>
        <pt x="971" y="149" on="1"/>
        <pt x="972" y="150" on="0"/>
        <pt x="985" y="156" on="0"/>
        <pt x="999" y="163" on="0"/>
        <pt x="1013" y="169" on="0"/>
        <pt x="1016" y="170" on="1"/>
        <pt x="1018" y="172" on="0"/>
        <pt x="1037" y="178" on="0"/>
        <pt x="1039" y="178" on="1"/>
        <pt x="1043" y="181" on="0"/>
        <pt x="1054" y="193" on="0"/>
        <pt x="1065" y="208" on="0"/>
        <pt x="1073" y="222" on="0"/>
        <pt x="1075" y="225" on="1"/>
        <pt x="1078" y="225" on="0"/>
        <pt x="1092" y="230" on="0"/>
        <pt x="1094" y="230" on="1"/>
        <pt x="1122" y="259" on="0"/>
        <pt x="1173" y="329" on="0"/>
        <pt x="1193" y="362" on="1"/>
        <pt x="1205" y="382" on="0"/>
        <pt x="1212" y="419" on="0"/>
        <pt x="1222" y="438" on="1"/>
        <pt x="1224" y="440" on="0"/>
        <pt x="1228" y="452" on="0"/>
        <pt x="1229" y="452" on="1"/>
        <pt x="1232" y="460" on="0"/>
        <pt x="1247" y="489" on="0"/>
        <pt x="1247" y="493" on="1"/>
        <pt x="1247" y="495" on="0"/>
        <pt x="1251" y="510" on="0"/>
        <pt x="1256" y="528" on="0"/>
        <pt x="1259" y="543" on="0"/>
        <pt x="1259" y="545" on="1"/>
        <pt x="1267" y="571" on="0"/>
        <pt x="1292" y="630" on="0"/>
        <pt x="1292" y="659" on="1"/>
        <pt x="1292" y="668" on="1"/>
        <pt x="1292" y="669" on="0"/>
        <pt x="1290" y="680" on="0"/>
        <pt x="1287" y="693" on="0"/>
        <pt x="1285" y="704" on="0"/>
        <pt x="1285" y="706" on="1"/>
        <pt x="1285" y="768" on="1"/>
        <pt x="1285" y="769" on="0"/>
        <pt x="1283" y="781" on="0"/>
        <pt x="1280" y="795" on="0"/>
        <pt x="1278" y="808" on="0"/>
        <pt x="1278" y="811" on="1"/>
        <pt x="1276" y="816" on="0"/>
        <pt x="1269" y="834" on="0"/>
        <pt x="1269" y="836" on="1"/>
        <pt x="1265" y="859" on="0"/>
        <pt x="1260" y="907" on="0"/>
        <pt x="1253" y="929" on="1"/>
        <pt x="1235" y="985" on="0"/>
        <pt x="1176" y="1097" on="0"/>
        <pt x="1138" y="1142" on="1"/>
        <pt x="1137" y="1144" on="0"/>
        <pt x="1124" y="1157" on="0"/>
        <pt x="1109" y="1173" on="0"/>
        <pt x="1095" y="1187" on="0"/>
        <pt x="1094" y="1190" on="1"/>
        <pt x="1092" y="1191" on="0"/>
        <pt x="1085" y="1202" on="0"/>
        <pt x="1078" y="1215" on="0"/>
        <pt x="1071" y="1226" on="0"/>
        <pt x="1070" y="1227" on="1"/>
        <pt x="1068" y="1229" on="0"/>
        <pt x="1048" y="1240" on="0"/>
        <pt x="1046" y="1242" on="1"/>
        <pt x="1023" y="1260" on="0"/>
        <pt x="972" y="1289" on="0"/>
        <pt x="949" y="1304" on="1"/>
        <pt x="944" y="1306" on="0"/>
        <pt x="932" y="1310" on="0"/>
        <pt x="932" y="1311" on="1"/>
        <pt x="930" y="1312" on="0"/>
        <pt x="915" y="1316" on="0"/>
        <pt x="897" y="1321" on="0"/>
        <pt x="882" y="1327" on="0"/>
        <pt x="880" y="1329" on="1"/>
        <pt x="878" y="1329" on="0"/>
        <pt x="869" y="1335" on="0"/>
        <pt x="858" y="1342" on="0"/>
        <pt x="849" y="1349" on="0"/>
        <pt x="849" y="1349" on="1"/>
        <pt x="820" y="1368" on="0"/>
        <pt x="756" y="1379" on="0"/>
        <pt x="724" y="1379" on="1"/>
        <pt x="686" y="1379" on="1"/>
        <pt x="665" y="1383" on="0"/>
        <pt x="624" y="1396" on="0"/>
        <pt x="601" y="1396" on="1"/>
        <pt x="589" y="1396" on="0"/>
        <pt x="564" y="1383" on="0"/>
        <pt x="543" y="1363" on="0"/>
        <pt x="529" y="1339" on="0"/>
        <pt x="527" y="1329" on="1"/>
        <pt x="525" y="1322" on="0"/>
        <pt x="520" y="1297" on="0"/>
        <pt x="516" y="1272" on="0"/>
        <pt x="513" y="1252" on="0"/>
        <pt x="513" y="1249" on="1"/>
        <pt x="511" y="1244" on="0"/>
        <pt x="508" y="1209" on="0"/>
        <pt x="505" y="1168" on="0"/>
        <pt x="503" y="1132" on="0"/>
        <pt x="503" y="1128" on="1"/>
        <pt x="503" y="1124" on="0"/>
        <pt x="497" y="1099" on="0"/>
        <pt x="496" y="1095" on="1"/>
        <pt x="496" y="1069" on="1"/>
        <pt x="496" y="1043" on="1"/>
        <pt x="497" y="1041" on="0"/>
        <pt x="503" y="1016" on="0"/>
        <pt x="503" y="1014" on="1"/>
        <pt x="505" y="1001" on="0"/>
        <pt x="510" y="953" on="0"/>
        <pt x="515" y="904" on="0"/>
        <pt x="518" y="864" on="0"/>
        <pt x="518" y="860" on="1"/>
        <pt x="518" y="856" on="0"/>
        <pt x="517" y="840" on="0"/>
        <pt x="515" y="823" on="0"/>
        <pt x="514" y="809" on="0"/>
        <pt x="513" y="806" on="1"/>
        <pt x="513" y="432" on="1"/>
        <pt x="513" y="430" on="0"/>
        <pt x="510" y="414" on="0"/>
        <pt x="507" y="394" on="0"/>
        <pt x="503" y="375" on="0"/>
        <pt x="503" y="370" on="1"/>
        <pt x="503" y="368" on="0"/>
        <pt x="496" y="349" on="0"/>
      </contour>
      <contour>
        <pt x="113" y="-12" on="1"/>
        <pt x="96" y="-3" on="0"/>
        <pt x="82" y="8" on="0"/>
        <pt x="82" y="26" on="1"/>
        <pt x="82" y="35" on="0"/>
        <pt x="95" y="51" on="0"/>
        <pt x="113" y="63" on="0"/>
        <pt x="134" y="70" on="0"/>
        <pt x="143" y="71" on="1"/>
        <pt x="165" y="73" on="0"/>
        <pt x="223" y="80" on="0"/>
        <pt x="250" y="80" on="1"/>
        <pt x="259" y="80" on="0"/>
        <pt x="275" y="78" on="0"/>
        <pt x="281" y="78" on="1"/>
        <pt x="293" y="86" on="0"/>
        <pt x="308" y="113" on="0"/>
        <pt x="312" y="125" on="1"/>
        <pt x="312" y="209" on="1"/>
        <pt x="312" y="292" on="1"/>
        <pt x="311" y="322" on="0"/>
        <pt x="297" y="382" on="0"/>
        <pt x="297" y="412" on="1"/>
        <pt x="297" y="423" on="0"/>
        <pt x="299" y="435" on="0"/>
        <pt x="304" y="446" on="1"/>
        <pt x="304" y="659" on="1"/>
        <pt x="299" y="682" on="0"/>
        <pt x="290" y="728" on="0"/>
        <pt x="290" y="751" on="1"/>
        <pt x="290" y="785" on="0"/>
        <pt x="295" y="851" on="0"/>
        <pt x="304" y="882" on="1"/>
        <pt x="304" y="1227" on="1"/>
        <pt x="299" y="1242" on="0"/>
        <pt x="295" y="1281" on="0"/>
        <pt x="295" y="1301" on="1"/>
        <pt x="295" y="1312" on="0"/>
        <pt x="295" y="1333" on="0"/>
        <pt x="297" y="1341" on="1"/>
        <pt x="294" y="1343" on="0"/>
        <pt x="279" y="1348" on="0"/>
        <pt x="261" y="1353" on="0"/>
        <pt x="246" y="1356" on="0"/>
        <pt x="243" y="1356" on="1"/>
        <pt x="241" y="1356" on="0"/>
        <pt x="230" y="1358" on="0"/>
        <pt x="222" y="1358" on="1"/>
        <pt x="205" y="1358" on="0"/>
        <pt x="170" y="1356" on="0"/>
        <pt x="167" y="1356" on="1"/>
        <pt x="158" y="1357" on="0"/>
        <pt x="134" y="1362" on="0"/>
        <pt x="111" y="1372" on="0"/>
        <pt x="96" y="1387" on="0"/>
        <pt x="96" y="1398" on="1"/>
        <pt x="96" y="1408" on="0"/>
        <pt x="106" y="1422" on="0"/>
        <pt x="121" y="1432" on="0"/>
        <pt x="137" y="1438" on="0"/>
        <pt x="143" y="1441" on="1"/>
        <pt x="155" y="1442" on="0"/>
        <pt x="187" y="1443" on="0"/>
        <pt x="221" y="1443" on="0"/>
        <pt x="253" y="1443" on="0"/>
        <pt x="264" y="1443" on="1"/>
        <pt x="300" y="1443" on="0"/>
        <pt x="378" y="1441" on="0"/>
        <pt x="406" y="1434" on="1"/>
        <pt x="420" y="1446" on="0"/>
        <pt x="462" y="1448" on="0"/>
        <pt x="480" y="1450" on="1"/>
        <pt x="484" y="1450" on="0"/>
        <pt x="505" y="1449" on="0"/>
        <pt x="533" y="1449" on="0"/>
        <pt x="565" y="1448" on="0"/>
        <pt x="579" y="1448" on="1"/>
        <pt x="593" y="1448" on="0"/>
        <pt x="614" y="1450" on="0"/>
        <pt x="617" y="1450" on="1"/>
        <pt x="620" y="1450" on="0"/>
        <pt x="643" y="1454" on="0"/>
        <pt x="669" y="1460" on="0"/>
        <pt x="692" y="1464" on="0"/>
        <pt x="696" y="1464" on="1"/>
        <pt x="699" y="1464" on="0"/>
        <pt x="723" y="1463" on="0"/>
        <pt x="726" y="1458" on="1"/>
        <pt x="800" y="1458" on="1"/>
        <pt x="825" y="1458" on="0"/>
        <pt x="871" y="1457" on="0"/>
        <pt x="880" y="1455" on="1"/>
        <pt x="883" y="1455" on="0"/>
        <pt x="899" y="1454" on="0"/>
        <pt x="917" y="1452" on="0"/>
        <pt x="935" y="1450" on="0"/>
        <pt x="939" y="1450" on="1"/>
        <pt x="1002" y="1438" on="0"/>
        <pt x="1123" y="1408" on="0"/>
        <pt x="1177" y="1374" on="1"/>
        <pt x="1179" y="1372" on="0"/>
        <pt x="1191" y="1360" on="0"/>
        <pt x="1204" y="1347" on="0"/>
        <pt x="1215" y="1336" on="0"/>
        <pt x="1217" y="1336" on="1"/>
        <pt x="1226" y="1327" on="0"/>
        <pt x="1244" y="1319" on="0"/>
        <pt x="1263" y="1314" on="0"/>
        <pt x="1283" y="1310" on="0"/>
        <pt x="1292" y="1304" on="1"/>
        <pt x="1323" y="1283" on="0"/>
        <pt x="1387" y="1209" on="0"/>
        <pt x="1441" y="1122" on="0"/>
        <pt x="1482" y="1032" on="0"/>
        <pt x="1490" y="996" on="1"/>
        <pt x="1491" y="993" on="0"/>
        <pt x="1496" y="967" on="0"/>
        <pt x="1501" y="936" on="0"/>
        <pt x="1505" y="909" on="0"/>
        <pt x="1506" y="905" on="1"/>
        <pt x="1507" y="903" on="0"/>
        <pt x="1511" y="893" on="0"/>
        <pt x="1516" y="880" on="0"/>
        <pt x="1520" y="869" on="0"/>
        <pt x="1520" y="867" on="1"/>
        <pt x="1522" y="865" on="0"/>
        <pt x="1522" y="835" on="0"/>
        <pt x="1522" y="827" on="1"/>
        <pt x="1522" y="730" on="0"/>
        <pt x="1494" y="546" on="0"/>
        <pt x="1468" y="452" on="1"/>
        <pt x="1456" y="410" on="0"/>
        <pt x="1414" y="335" on="0"/>
        <pt x="1362" y="267" on="0"/>
        <pt x="1301" y="206" on="0"/>
        <pt x="1269" y="178" on="1"/>
        <pt x="1267" y="177" on="0"/>
        <pt x="1254" y="163" on="0"/>
        <pt x="1238" y="147" on="0"/>
        <pt x="1224" y="134" on="0"/>
        <pt x="1222" y="133" on="1"/>
        <pt x="1220" y="130" on="0"/>
        <pt x="1198" y="121" on="0"/>
        <pt x="1173" y="111" on="0"/>
        <pt x="1149" y="103" on="0"/>
        <pt x="1146" y="102" on="1"/>
        <pt x="1108" y="84" on="0"/>
        <pt x="1033" y="45" on="0"/>
        <pt x="994" y="31" on="1"/>
        <pt x="982" y="27" on="0"/>
        <pt x="960" y="24" on="0"/>
        <pt x="938" y="22" on="0"/>
        <pt x="914" y="20" on="0"/>
        <pt x="901" y="17" on="1"/>
        <pt x="899" y="17" on="0"/>
        <pt x="888" y="10" on="0"/>
        <pt x="887" y="9" on="1"/>
        <pt x="883" y="7" on="0"/>
        <pt x="870" y="2" on="0"/>
        <pt x="858" y="-2" on="0"/>
        <pt x="849" y="-5" on="0"/>
        <pt x="849" y="-5" on="1"/>
        <pt x="800" y="-5" on="1"/>
        <pt x="798" y="-5" on="0"/>
        <pt x="783" y="-7" on="0"/>
        <pt x="766" y="-10" on="0"/>
        <pt x="750" y="-12" on="0"/>
        <pt x="748" y="-12" on="1"/>
        <pt x="747" y="-12" on="0"/>
        <pt x="725" y="-14" on="0"/>
        <pt x="721" y="-14" on="1"/>
        <pt x="653" y="-14" on="0"/>
        <pt x="517" y="-5" on="0"/>
        <pt x="451" y="-5" on="1"/>
        <pt x="406" y="-5" on="1"/>
        <pt x="402" y="-5" on="0"/>
        <pt x="376" y="-12" on="0"/>
        <pt x="375" y="-12" on="1"/>
        <pt x="371" y="-12" on="1"/>
        <pt x="364" y="-12" on="1"/>
        <pt x="361" y="-12" on="0"/>
        <pt x="335" y="-10" on="0"/>
        <pt x="304" y="-7" on="0"/>
        <pt x="277" y="-5" on="0"/>
        <pt x="273" y="-5" on="1"/>
        <pt x="271" y="-5" on="1"/>
        <pt x="267" y="-5" on="1"/>
        <pt x="256" y="-8" on="0"/>
        <pt x="218" y="-22" on="0"/>
        <pt x="205" y="-22" on="1"/>
        <pt x="196" y="-22" on="1"/>
        <pt x="191" y="-22" on="0"/>
        <pt x="168" y="-19" on="0"/>
        <pt x="141" y="-16" on="0"/>
        <pt x="118" y="-13" on="0"/>
      </contour>
    </TTGlyph>
    <TTGlyph name="Dcaron" xMin="82" yMin="-22" xMax="1522" yMax="1898">
      <component glyphName="D" x="0" y="0" flags="0x204"/>
      <component glyphName="Caron" x="339" y="0" flags="0x4"/>
    </TTGlyph>
    <TTGlyph name="Dcroat" xMin="82" yMin="-22" xMax="1522" yMax="1464">
      <component glyphName="Eth" x="0" y="0" flags="0x204"/>
    </TTGlyph>
    <TTGlyph name="Dieresis" xMin="238" yMin="1651" xMax="845" yMax="1845">
      <contour>
        <pt x="641" y="1751" on="1"/>
        <pt x="641" y="1766" on="0"/>
        <pt x="649" y="1799" on="0"/>
        <pt x="665" y="1827" on="0"/>
        <pt x="691" y="1845" on="0"/>
        <pt x="708" y="1845" on="1"/>
        <pt x="736" y="1845" on="0"/>
        <pt x="780" y="1841" on="0"/>
        <pt x="809" y="1836" on="1"/>
        <pt x="820" y="1828" on="0"/>
        <pt x="845" y="1791" on="0"/>
        <pt x="845" y="1776" on="1"/>
        <pt x="845" y="1756" on="0"/>
        <pt x="823" y="1718" on="0"/>
        <pt x="790" y="1687" on="0"/>
        <pt x="750" y="1668" on="0"/>
        <pt x="731" y="1668" on="1"/>
        <pt x="726" y="1668" on="1"/>
        <pt x="709" y="1675" on="0"/>
        <pt x="678" y="1687" on="0"/>
        <pt x="655" y="1705" on="0"/>
        <pt x="641" y="1730" on="0"/>
      </contour>
      <contour>
        <pt x="238" y="1705" on="1"/>
        <pt x="238" y="1719" on="1"/>
        <pt x="238" y="1730" on="0"/>
        <pt x="241" y="1755" on="0"/>
        <pt x="248" y="1762" on="1"/>
        <pt x="265" y="1785" on="0"/>
        <pt x="302" y="1817" on="0"/>
        <pt x="329" y="1817" on="1"/>
        <pt x="372" y="1817" on="0"/>
        <pt x="423" y="1780" on="0"/>
        <pt x="423" y="1734" on="1"/>
        <pt x="423" y="1714" on="0"/>
        <pt x="404" y="1686" on="0"/>
        <pt x="374" y="1667" on="0"/>
        <pt x="338" y="1655" on="0"/>
        <pt x="321" y="1651" on="1"/>
        <pt x="303" y="1651" on="1"/>
        <pt x="274" y="1651" on="0"/>
        <pt x="238" y="1676" on="0"/>
      </contour>
    </TTGlyph>
    <TTGlyph name="Dotaccent" xMin="249" yMin="1618" xMax="510" yMax="1879">
      <contour>
        <pt x="249" y="1744" on="1"/>
        <pt x="249" y="1775" on="0"/>
        <pt x="277" y="1826" on="0"/>
        <pt x="322" y="1860" on="0"/>
        <pt x="378" y="1879" on="0"/>
        <pt x="407" y="1879" on="1"/>
        <pt x="410" y="1879" on="0"/>
        <pt x="427" y="1873" on="0"/>
        <pt x="445" y="1866" on="0"/>
        <pt x="462" y="1860" on="0"/>
        <pt x="466" y="1859" on="1"/>
        <pt x="485" y="1830" on="0"/>
        <pt x="510" y="1785" on="0"/>
        <pt x="510" y="1750" on="1"/>
        <pt x="510" y="1712" on="0"/>
        <pt x="484" y="1651" on="0"/>
        <pt x="446" y="1637" on="1"/>
        <pt x="444" y="1636" on="0"/>
        <pt x="432" y="1630" on="0"/>
        <pt x="418" y="1623" on="0"/>
        <pt x="405" y="1618" on="0"/>
        <pt x="402" y="1618" on="1"/>
        <pt x="392" y="1618" on="1"/>
        <pt x="364" y="1618" on="0"/>
        <pt x="313" y="1635" on="0"/>
        <pt x="273" y="1668" on="0"/>
        <pt x="249" y="1715" on="0"/>
      </contour>
    </TTGlyph>
    <TTGlyph name="E" xMin="71" yMin="-10" xMax="1403" yMax="1443">
      <contour>
        <pt x="939" y="2" on="1"/>
        <pt x="935" y="2" on="0"/>
        <pt x="920" y="1" on="0"/>
        <pt x="905" y="1" on="0"/>
        <pt x="893" y="0" on="0"/>
        <pt x="893" y="0" on="1"/>
        <pt x="869" y="-9" on="1"/>
        <pt x="746" y="-2" on="1"/>
        <pt x="484" y="-2" on="1"/>
        <pt x="469" y="3" on="0"/>
        <pt x="448" y="7" on="0"/>
        <pt x="434" y="7" on="1"/>
        <pt x="423" y="7" on="0"/>
        <pt x="411" y="5" on="0"/>
        <pt x="401" y="0" on="1"/>
        <pt x="391" y="0" on="0"/>
        <pt x="344" y="2" on="0"/>
        <pt x="318" y="2" on="1"/>
        <pt x="292" y="2" on="0"/>
        <pt x="245" y="0" on="0"/>
        <pt x="237" y="0" on="1"/>
        <pt x="234" y="0" on="0"/>
        <pt x="219" y="-2" on="0"/>
        <pt x="202" y="-3" on="0"/>
        <pt x="187" y="-5" on="0"/>
        <pt x="185" y="-5" on="1"/>
        <pt x="182" y="-6" on="0"/>
        <pt x="178" y="-6" on="1"/>
        <pt x="175" y="-7" on="0"/>
        <pt x="170" y="-7" on="0"/>
        <pt x="168" y="-7" on="1"/>
        <pt x="141" y="-7" on="0"/>
        <pt x="114" y="4" on="0"/>
        <pt x="104" y="31" on="1"/>
        <pt x="100" y="31" on="0"/>
        <pt x="100" y="33" on="1"/>
        <pt x="99" y="34" on="0"/>
        <pt x="100" y="36" on="1"/>
        <pt x="100" y="44" on="0"/>
        <pt x="111" y="63" on="0"/>
        <pt x="128" y="79" on="0"/>
        <pt x="147" y="90" on="0"/>
        <pt x="156" y="90" on="1"/>
        <pt x="251" y="90" on="1"/>
        <pt x="253" y="90" on="0"/>
        <pt x="275" y="113" on="0"/>
        <pt x="282" y="119" on="1"/>
        <pt x="284" y="121" on="0"/>
        <pt x="289" y="134" on="0"/>
        <pt x="289" y="137" on="1"/>
        <pt x="301" y="196" on="0"/>
        <pt x="305" y="312" on="0"/>
        <pt x="305" y="375" on="1"/>
        <pt x="305" y="380" on="0"/>
        <pt x="306" y="415" on="0"/>
        <pt x="307" y="463" on="0"/>
        <pt x="309" y="516" on="0"/>
        <pt x="310" y="564" on="0"/>
        <pt x="311" y="599" on="0"/>
        <pt x="311" y="605" on="1"/>
        <pt x="311" y="659" on="1"/>
        <pt x="311" y="739" on="0"/>
        <pt x="305" y="895" on="0"/>
        <pt x="305" y="972" on="1"/>
        <pt x="305" y="979" on="1"/>
        <pt x="305" y="982" on="0"/>
        <pt x="307" y="1007" on="0"/>
        <pt x="309" y="1035" on="0"/>
        <pt x="311" y="1059" on="0"/>
        <pt x="311" y="1062" on="1"/>
        <pt x="312" y="1071" on="0"/>
        <pt x="314" y="1116" on="0"/>
        <pt x="316" y="1167" on="0"/>
        <pt x="318" y="1211" on="0"/>
        <pt x="318" y="1220" on="1"/>
        <pt x="313" y="1235" on="0"/>
        <pt x="311" y="1268" on="0"/>
        <pt x="307" y="1299" on="0"/>
        <pt x="295" y="1327" on="0"/>
        <pt x="282" y="1337" on="1"/>
        <pt x="276" y="1338" on="0"/>
        <pt x="246" y="1340" on="0"/>
        <pt x="213" y="1341" on="0"/>
        <pt x="183" y="1343" on="0"/>
        <pt x="178" y="1344" on="1"/>
        <pt x="162" y="1346" on="0"/>
        <pt x="124" y="1353" on="0"/>
        <pt x="92" y="1368" on="0"/>
        <pt x="71" y="1394" on="0"/>
        <pt x="71" y="1415" on="1"/>
        <pt x="75" y="1417" on="1"/>
        <pt x="77" y="1418" on="0"/>
        <pt x="79" y="1420" on="0"/>
        <pt x="81" y="1420" on="1"/>
        <pt x="105" y="1434" on="0"/>
        <pt x="143" y="1443" on="0"/>
        <pt x="173" y="1443" on="1"/>
        <pt x="178" y="1443" on="1"/>
        <pt x="181" y="1440" on="0"/>
        <pt x="184" y="1438" on="1"/>
        <pt x="190" y="1434" on="0"/>
        <pt x="192" y="1434" on="1"/>
        <pt x="242" y="1430" on="0"/>
        <pt x="342" y="1427" on="0"/>
        <pt x="393" y="1427" on="1"/>
        <pt x="435" y="1427" on="0"/>
        <pt x="515" y="1429" on="0"/>
        <pt x="554" y="1429" on="1"/>
        <pt x="775" y="1429" on="1"/>
        <pt x="779" y="1429" on="0"/>
        <pt x="797" y="1431" on="0"/>
        <pt x="818" y="1432" on="0"/>
        <pt x="838" y="1434" on="0"/>
        <pt x="843" y="1434" on="1"/>
        <pt x="850" y="1434" on="1"/>
        <pt x="856" y="1434" on="1"/>
        <pt x="859" y="1434" on="0"/>
        <pt x="881" y="1432" on="0"/>
        <pt x="907" y="1431" on="0"/>
        <pt x="930" y="1429" on="0"/>
        <pt x="933" y="1429" on="1"/>
        <pt x="1052" y="1429" on="1"/>
        <pt x="1060" y="1428" on="0"/>
        <pt x="1091" y="1426" on="0"/>
        <pt x="1122" y="1424" on="0"/>
        <pt x="1146" y="1421" on="0"/>
        <pt x="1147" y="1420" on="1"/>
        <pt x="1148" y="1420" on="0"/>
        <pt x="1162" y="1414" on="0"/>
        <pt x="1179" y="1405" on="0"/>
        <pt x="1196" y="1395" on="0"/>
        <pt x="1201" y="1391" on="1"/>
        <pt x="1211" y="1385" on="0"/>
        <pt x="1224" y="1340" on="0"/>
        <pt x="1232" y="1286" on="0"/>
        <pt x="1237" y="1234" on="0"/>
        <pt x="1239" y="1220" on="1"/>
        <pt x="1239" y="1215" on="0"/>
        <pt x="1242" y="1190" on="0"/>
        <pt x="1244" y="1162" on="0"/>
        <pt x="1246" y="1136" on="0"/>
        <pt x="1246" y="1131" on="1"/>
        <pt x="1246" y="1104" on="1"/>
        <pt x="1246" y="1076" on="1"/>
        <pt x="1241" y="1067" on="0"/>
        <pt x="1225" y="1062" on="0"/>
        <pt x="1216" y="1062" on="1"/>
        <pt x="1209" y="1062" on="1"/>
        <pt x="1198" y="1069" on="0"/>
        <pt x="1188" y="1083" on="0"/>
        <pt x="1182" y="1098" on="0"/>
        <pt x="1177" y="1114" on="0"/>
        <pt x="1171" y="1123" on="1"/>
        <pt x="1171" y="1124" on="0"/>
        <pt x="1164" y="1131" on="0"/>
        <pt x="1156" y="1139" on="0"/>
        <pt x="1148" y="1146" on="0"/>
        <pt x="1147" y="1147" on="1"/>
        <pt x="1133" y="1167" on="0"/>
        <pt x="1106" y="1218" on="0"/>
        <pt x="1088" y="1240" on="1"/>
        <pt x="1087" y="1242" on="0"/>
        <pt x="1076" y="1252" on="0"/>
        <pt x="1074" y="1256" on="1"/>
        <pt x="1073" y="1258" on="0"/>
        <pt x="1061" y="1261" on="0"/>
        <pt x="1059" y="1263" on="1"/>
        <pt x="1047" y="1271" on="0"/>
        <pt x="1033" y="1291" on="0"/>
        <pt x="1018" y="1310" on="0"/>
        <pt x="1000" y="1328" on="0"/>
        <pt x="984" y="1334" on="1"/>
        <pt x="976" y="1334" on="0"/>
        <pt x="931" y="1337" on="0"/>
        <pt x="881" y="1340" on="0"/>
        <pt x="836" y="1343" on="0"/>
        <pt x="827" y="1344" on="1"/>
        <pt x="775" y="1344" on="1"/>
        <pt x="774" y="1344" on="0"/>
        <pt x="759" y="1347" on="0"/>
        <pt x="741" y="1350" on="0"/>
        <pt x="725" y="1353" on="0"/>
        <pt x="723" y="1353" on="1"/>
        <pt x="708" y="1353" on="1"/>
        <pt x="694" y="1353" on="1"/>
        <pt x="690" y="1353" on="0"/>
        <pt x="663" y="1350" on="0"/>
        <pt x="632" y="1347" on="0"/>
        <pt x="605" y="1344" on="0"/>
        <pt x="602" y="1344" on="1"/>
        <pt x="543" y="1344" on="1"/>
        <pt x="539" y="1344" on="0"/>
        <pt x="529" y="1339" on="0"/>
        <pt x="529" y="1337" on="1"/>
        <pt x="529" y="1213" on="1"/>
        <pt x="528" y="1181" on="0"/>
        <pt x="512" y="1123" on="0"/>
        <pt x="512" y="1093" on="1"/>
        <pt x="512" y="1048" on="0"/>
        <pt x="521" y="957" on="0"/>
        <pt x="521" y="910" on="1"/>
        <pt x="521" y="878" on="0"/>
        <pt x="512" y="812" on="0"/>
        <pt x="512" y="777" on="1"/>
        <pt x="512" y="770" on="1"/>
        <pt x="515" y="767" on="0"/>
        <pt x="525" y="756" on="0"/>
        <pt x="529" y="756" on="1"/>
        <pt x="554" y="756" on="1"/>
        <pt x="580" y="756" on="1"/>
        <pt x="582" y="756" on="0"/>
        <pt x="596" y="759" on="0"/>
        <pt x="612" y="762" on="0"/>
        <pt x="625" y="765" on="0"/>
        <pt x="626" y="765" on="1"/>
        <pt x="715" y="765" on="1"/>
        <pt x="722" y="765" on="0"/>
        <pt x="759" y="767" on="0"/>
        <pt x="800" y="768" on="0"/>
        <pt x="836" y="770" on="0"/>
        <pt x="843" y="770" on="1"/>
        <pt x="858" y="783" on="0"/>
        <pt x="872" y="834" on="0"/>
        <pt x="879" y="851" on="1"/>
        <pt x="880" y="854" on="0"/>
        <pt x="883" y="877" on="0"/>
        <pt x="887" y="903" on="0"/>
        <pt x="891" y="926" on="0"/>
        <pt x="893" y="929" on="1"/>
        <pt x="893" y="930" on="0"/>
        <pt x="898" y="939" on="0"/>
        <pt x="904" y="948" on="0"/>
        <pt x="909" y="956" on="0"/>
        <pt x="910" y="957" on="1"/>
        <pt x="914" y="970" on="0"/>
        <pt x="916" y="1000" on="0"/>
        <pt x="924" y="1025" on="0"/>
        <pt x="942" y="1041" on="0"/>
        <pt x="962" y="1041" on="1"/>
        <pt x="984" y="1041" on="0"/>
        <pt x="998" y="1021" on="0"/>
        <pt x="998" y="998" on="1"/>
        <pt x="998" y="990" on="0"/>
        <pt x="996" y="983" on="0"/>
        <pt x="993" y="972" on="1"/>
        <pt x="993" y="971" on="0"/>
        <pt x="991" y="963" on="0"/>
        <pt x="991" y="958" on="1"/>
        <pt x="991" y="950" on="0"/>
        <pt x="993" y="937" on="0"/>
        <pt x="993" y="934" on="1"/>
        <pt x="992" y="928" on="0"/>
        <pt x="990" y="890" on="0"/>
        <pt x="986" y="840" on="0"/>
        <pt x="982" y="783" on="0"/>
        <pt x="978" y="732" on="0"/>
        <pt x="975" y="694" on="0"/>
        <pt x="974" y="687" on="1"/>
        <pt x="974" y="685" on="0"/>
        <pt x="976" y="652" on="0"/>
        <pt x="976" y="635" on="1"/>
        <pt x="976" y="627" on="0"/>
        <pt x="972" y="608" on="0"/>
        <pt x="971" y="605" on="1"/>
        <pt x="971" y="605" on="0"/>
        <pt x="968" y="595" on="0"/>
        <pt x="965" y="582" on="0"/>
        <pt x="962" y="571" on="0"/>
        <pt x="962" y="569" on="1"/>
        <pt x="962" y="566" on="0"/>
        <pt x="964" y="544" on="0"/>
        <pt x="967" y="519" on="0"/>
        <pt x="969" y="498" on="0"/>
        <pt x="969" y="495" on="1"/>
        <pt x="969" y="491" on="0"/>
        <pt x="970" y="476" on="0"/>
        <pt x="970" y="461" on="0"/>
        <pt x="971" y="447" on="0"/>
        <pt x="971" y="443" on="1"/>
        <pt x="971" y="426" on="0"/>
        <pt x="964" y="398" on="0"/>
        <pt x="953" y="381" on="1"/>
        <pt x="952" y="376" on="0"/>
        <pt x="935" y="365" on="0"/>
        <pt x="933" y="365" on="1"/>
        <pt x="931" y="365" on="0"/>
        <pt x="913" y="376" on="0"/>
        <pt x="910" y="381" on="1"/>
        <pt x="893" y="395" on="0"/>
        <pt x="880" y="445" on="0"/>
        <pt x="876" y="504" on="0"/>
        <pt x="876" y="566" on="0"/>
        <pt x="869" y="619" on="0"/>
        <pt x="849" y="655" on="0"/>
        <pt x="827" y="659" on="1"/>
        <pt x="819" y="657" on="0"/>
        <pt x="785" y="657" on="0"/>
        <pt x="765" y="657" on="1"/>
        <pt x="744" y="657" on="0"/>
        <pt x="707" y="657" on="0"/>
        <pt x="701" y="659" on="1"/>
        <pt x="696" y="659" on="0"/>
        <pt x="674" y="661" on="0"/>
        <pt x="651" y="662" on="0"/>
        <pt x="630" y="664" on="0"/>
        <pt x="626" y="664" on="1"/>
        <pt x="625" y="667" on="0"/>
        <pt x="611" y="675" on="0"/>
        <pt x="609" y="675" on="1"/>
        <pt x="599" y="675" on="1"/>
        <pt x="573" y="675" on="0"/>
        <pt x="526" y="650" on="0"/>
        <pt x="521" y="623" on="1"/>
        <pt x="520" y="616" on="0"/>
        <pt x="513" y="575" on="0"/>
        <pt x="506" y="527" on="0"/>
        <pt x="499" y="482" on="0"/>
        <pt x="498" y="471" on="1"/>
        <pt x="498" y="465" on="1"/>
        <pt x="498" y="458" on="1"/>
        <pt x="498" y="450" on="0"/>
        <pt x="500" y="414" on="0"/>
        <pt x="502" y="373" on="0"/>
        <pt x="505" y="336" on="0"/>
        <pt x="505" y="329" on="1"/>
        <pt x="510" y="321" on="0"/>
        <pt x="512" y="313" on="0"/>
        <pt x="512" y="308" on="1"/>
        <pt x="512" y="269" on="0"/>
        <pt x="504" y="195" on="0"/>
        <pt x="504" y="154" on="1"/>
        <pt x="504" y="150" on="0"/>
        <pt x="505" y="124" on="0"/>
        <pt x="505" y="119" on="1"/>
        <pt x="506" y="117" on="0"/>
        <pt x="514" y="108" on="0"/>
        <pt x="523" y="99" on="0"/>
        <pt x="533" y="91" on="0"/>
        <pt x="535" y="90" on="1"/>
        <pt x="536" y="88" on="0"/>
        <pt x="553" y="86" on="0"/>
        <pt x="575" y="85" on="0"/>
        <pt x="596" y="82" on="0"/>
        <pt x="602" y="81" on="1"/>
        <pt x="614" y="81" on="0"/>
        <pt x="673" y="79" on="0"/>
        <pt x="740" y="77" on="0"/>
        <pt x="799" y="76" on="0"/>
        <pt x="811" y="76" on="1"/>
        <pt x="823" y="71" on="0"/>
        <pt x="848" y="67" on="0"/>
        <pt x="860" y="67" on="1"/>
        <pt x="888" y="67" on="1"/>
        <pt x="933" y="67" on="1"/>
        <pt x="934" y="67" on="0"/>
        <pt x="946" y="70" on="0"/>
        <pt x="961" y="73" on="0"/>
        <pt x="973" y="76" on="0"/>
        <pt x="974" y="76" on="1"/>
        <pt x="1164" y="76" on="1"/>
        <pt x="1175" y="79" on="0"/>
        <pt x="1195" y="96" on="0"/>
        <pt x="1213" y="117" on="0"/>
        <pt x="1227" y="140" on="0"/>
        <pt x="1232" y="149" on="1"/>
        <pt x="1235" y="152" on="0"/>
        <pt x="1246" y="174" on="0"/>
        <pt x="1257" y="199" on="0"/>
        <pt x="1267" y="221" on="0"/>
        <pt x="1268" y="223" on="1"/>
        <pt x="1270" y="226" on="0"/>
        <pt x="1284" y="244" on="0"/>
        <pt x="1284" y="246" on="1"/>
        <pt x="1285" y="248" on="0"/>
        <pt x="1291" y="266" on="0"/>
        <pt x="1291" y="268" on="1"/>
        <pt x="1292" y="269" on="0"/>
        <pt x="1301" y="279" on="0"/>
        <pt x="1311" y="289" on="0"/>
        <pt x="1319" y="299" on="0"/>
        <pt x="1320" y="301" on="1"/>
        <pt x="1321" y="302" on="0"/>
        <pt x="1328" y="313" on="0"/>
        <pt x="1335" y="328" on="0"/>
        <pt x="1340" y="341" on="0"/>
        <pt x="1341" y="343" on="1"/>
        <pt x="1343" y="347" on="0"/>
        <pt x="1362" y="363" on="0"/>
        <pt x="1363" y="365" on="1"/>
        <pt x="1365" y="367" on="0"/>
        <pt x="1371" y="370" on="0"/>
        <pt x="1373" y="372" on="1"/>
        <pt x="1376" y="374" on="0"/>
        <pt x="1379" y="375" on="1"/>
        <pt x="1383" y="373" on="0"/>
        <pt x="1399" y="357" on="0"/>
        <pt x="1403" y="353" on="1"/>
        <pt x="1403" y="348" on="1"/>
        <pt x="1403" y="336" on="0"/>
        <pt x="1396" y="314" on="0"/>
        <pt x="1396" y="303" on="1"/>
        <pt x="1396" y="289" on="0"/>
        <pt x="1403" y="268" on="0"/>
        <pt x="1403" y="254" on="1"/>
        <pt x="1403" y="246" on="1"/>
        <pt x="1403" y="243" on="0"/>
        <pt x="1396" y="227" on="0"/>
        <pt x="1396" y="223" on="1"/>
        <pt x="1396" y="106" on="1"/>
        <pt x="1395" y="94" on="0"/>
        <pt x="1391" y="57" on="0"/>
        <pt x="1379" y="24" on="0"/>
        <pt x="1357" y="0" on="0"/>
        <pt x="1339" y="0" on="1"/>
        <pt x="1334" y="0" on="1"/>
        <pt x="1331" y="1" on="0"/>
        <pt x="1317" y="3" on="0"/>
        <pt x="1303" y="5" on="0"/>
        <pt x="1292" y="7" on="0"/>
        <pt x="1291" y="7" on="1"/>
        <pt x="1285" y="11" on="1"/>
        <pt x="1279" y="15" on="0"/>
        <pt x="1279" y="16" on="1"/>
        <pt x="1273" y="16" on="1"/>
        <pt x="1268" y="16" on="1"/>
        <pt x="1233" y="4" on="0"/>
        <pt x="1171" y="4" on="0"/>
        <pt x="1137" y="0" on="1"/>
        <pt x="1134" y="0" on="0"/>
        <pt x="1118" y="-2" on="0"/>
        <pt x="1099" y="-5" on="0"/>
        <pt x="1083" y="-9" on="0"/>
        <pt x="1081" y="-10" on="1"/>
        <pt x="1076" y="-10" on="1"/>
        <pt x="1058" y="-10" on="0"/>
        <pt x="1027" y="0" on="0"/>
        <pt x="1007" y="0" on="1"/>
        <pt x="1005" y="0" on="0"/>
        <pt x="988" y="1" on="0"/>
        <pt x="967" y="1" on="0"/>
        <pt x="946" y="2" on="0"/>
      </contour>
    </TTGlyph>
    <TTGlyph name="Eacute" xMin="71" yMin="-10" xMax="1403" yMax="1943">
      <component glyphName="E" x="0" y="0" flags="0x204"/>
      <component glyphName="Acute" x="412" y="0" flags="0x4"/>
    </TTGlyph>
    <TTGlyph name="Ecaron" xMin="71" yMin="-10" xMax="1403" yMax="1898">
      <component glyphName="E" x="0" y="0" flags="0x204"/>
      <component glyphName="Caron" x="329" y="0" flags="0x4"/>
    </TTGlyph>
    <TTGlyph name="Ecircumflex" xMin="71" yMin="-10" xMax="1403" yMax="1915">
      <component glyphName="E" x="0" y="0" flags="0x204"/>
      <component glyphName="Circumflex" x="336" y="0" flags="0x4"/>
    </TTGlyph>
    <TTGlyph name="Edieresis" xMin="71" yMin="-10" xMax="1403" yMax="1845">
      <component glyphName="E" x="0" y="0" flags="0x204"/>
      <component glyphName="Dieresis" x="232" y="0" flags="0x4"/>
    </TTGlyph>
    <TTGlyph name="Edotaccent" xMin="71" yMin="-10" xMax="1403" yMax="1879">
      <component glyphName="E" x="0" y="0" flags="0x204"/>
      <component glyphName="Dotaccent" x="368" y="0" flags="0x4"/>
    </TTGlyph>
    <TTGlyph name="Egrave" xMin="71" yMin="-10" xMax="1403" yMax="1941">
      <component glyphName="E" x="0" y="0" flags="0x204"/>
      <component glyphName="Grave" x="248" y="0" flags="0x4"/>
    </TTGlyph>
    <TTGlyph name="Emacron" xMin="71" yMin="-10" xMax="1403" yMax="1753">
      <component glyphName="E" x="0" y="0" flags="0x204"/>
      <component glyphName="Macron" x="230" y="0" flags="0x4"/>
    </TTGlyph>
    <TTGlyph name="Eogonek" xMin="71" yMin="-431" xMax="1419" yMax="1443">
      <contour>
        <pt x="939" y="2" on="1"/>
        <pt x="935" y="2" on="0"/>
        <pt x="920" y="1" on="0"/>
        <pt x="905" y="1" on="0"/>
        <pt x="893" y="0" on="0"/>
        <pt x="893" y="0" on="1"/>
        <pt x="869" y="-9" on="1"/>
        <pt x="746" y="-2" on="1"/>
        <pt x="484" y="-2" on="1"/>
        <pt x="469" y="3" on="0"/>
        <pt x="448" y="7" on="0"/>
        <pt x="434" y="7" on="1"/>
        <pt x="423" y="7" on="0"/>
        <pt x="411" y="5" on="0"/>
        <pt x="401" y="0" on="1"/>
        <pt x="391" y="0" on="0"/>
        <pt x="344" y="2" on="0"/>
        <pt x="318" y="2" on="1"/>
        <pt x="292" y="2" on="0"/>
        <pt x="245" y="0" on="0"/>
        <pt x="237" y="0" on="1"/>
        <pt x="234" y="0" on="0"/>
        <pt x="219" y="-2" on="0"/>
        <pt x="202" y="-3" on="0"/>
        <pt x="187" y="-5" on="0"/>
        <pt x="185" y="-5" on="1"/>
        <pt x="182" y="-6" on="0"/>
        <pt x="178" y="-6" on="1"/>
        <pt x="175" y="-7" on="0"/>
        <pt x="170" y="-7" on="0"/>
        <pt x="168" y="-7" on="1"/>
        <pt x="141" y="-7" on="0"/>
        <pt x="114" y="4" on="0"/>
        <pt x="104" y="31" on="1"/>
        <pt x="100" y="31" on="0"/>
        <pt x="100" y="33" on="1"/>
        <pt x="99" y="34" on="0"/>
        <pt x="100" y="36" on="1"/>
        <pt x="100" y="44" on="0"/>
        <pt x="111" y="63" on="0"/>
        <pt x="128" y="79" on="0"/>
        <pt x="147" y="90" on="0"/>
        <pt x="156" y="90" on="1"/>
        <pt x="251" y="90" on="1"/>
        <pt x="253" y="90" on="0"/>
        <pt x="275" y="113" on="0"/>
        <pt x="282" y="119" on="1"/>
        <pt x="284" y="121" on="0"/>
        <pt x="289" y="134" on="0"/>
        <pt x="289" y="137" on="1"/>
        <pt x="301" y="196" on="0"/>
        <pt x="305" y="312" on="0"/>
        <pt x="305" y="375" on="1"/>
        <pt x="305" y="380" on="0"/>
        <pt x="306" y="415" on="0"/>
        <pt x="307" y="463" on="0"/>
        <pt x="309" y="516" on="0"/>
        <pt x="310" y="564" on="0"/>
        <pt x="311" y="599" on="0"/>
        <pt x="311" y="605" on="1"/>
        <pt x="311" y="659" on="1"/>
        <pt x="311" y="739" on="0"/>
        <pt x="305" y="895" on="0"/>
        <pt x="305" y="972" on="1"/>
        <pt x="305" y="979" on="1"/>
        <pt x="305" y="982" on="0"/>
        <pt x="307" y="1007" on="0"/>
        <pt x="309" y="1035" on="0"/>
        <pt x="311" y="1059" on="0"/>
        <pt x="311" y="1062" on="1"/>
        <pt x="312" y="1071" on="0"/>
        <pt x="314" y="1116" on="0"/>
        <pt x="316" y="1167" on="0"/>
        <pt x="318" y="1211" on="0"/>
        <pt x="318" y="1220" on="1"/>
        <pt x="313" y="1235" on="0"/>
        <pt x="311" y="1268" on="0"/>
        <pt x="307" y="1299" on="0"/>
        <pt x="295" y="1327" on="0"/>
        <pt x="282" y="1337" on="1"/>
        <pt x="276" y="1338" on="0"/>
        <pt x="246" y="1340" on="0"/>
        <pt x="213" y="1341" on="0"/>
        <pt x="183" y="1343" on="0"/>
        <pt x="178" y="1344" on="1"/>
        <pt x="162" y="1346" on="0"/>
        <pt x="124" y="1353" on="0"/>
        <pt x="92" y="1368" on="0"/>
        <pt x="71" y="1394" on="0"/>
        <pt x="71" y="1415" on="1"/>
        <pt x="75" y="1417" on="1"/>
        <pt x="77" y="1418" on="0"/>
        <pt x="79" y="1420" on="0"/>
        <pt x="81" y="1420" on="1"/>
        <pt x="105" y="1434" on="0"/>
        <pt x="143" y="1443" on="0"/>
        <pt x="173" y="1443" on="1"/>
        <pt x="178" y="1443" on="1"/>
        <pt x="181" y="1440" on="0"/>
        <pt x="184" y="1438" on="1"/>
        <pt x="190" y="1434" on="0"/>
        <pt x="192" y="1434" on="1"/>
        <pt x="242" y="1430" on="0"/>
        <pt x="342" y="1427" on="0"/>
        <pt x="393" y="1427" on="1"/>
        <pt x="435" y="1427" on="0"/>
        <pt x="515" y="1429" on="0"/>
        <pt x="554" y="1429" on="1"/>
        <pt x="775" y="1429" on="1"/>
        <pt x="779" y="1429" on="0"/>
        <pt x="797" y="1431" on="0"/>
        <pt x="818" y="1432" on="0"/>
        <pt x="838" y="1434" on="0"/>
        <pt x="843" y="1434" on="1"/>
        <pt x="856" y="1434" on="1"/>
        <pt x="859" y="1434" on="0"/>
        <pt x="881" y="1432" on="0"/>
        <pt x="907" y="1431" on="0"/>
        <pt x="930" y="1429" on="0"/>
        <pt x="933" y="1429" on="1"/>
        <pt x="1052" y="1429" on="1"/>
        <pt x="1060" y="1428" on="0"/>
        <pt x="1091" y="1426" on="0"/>
        <pt x="1122" y="1424" on="0"/>
        <pt x="1146" y="1421" on="0"/>
        <pt x="1147" y="1420" on="1"/>
        <pt x="1148" y="1420" on="0"/>
        <pt x="1162" y="1414" on="0"/>
        <pt x="1179" y="1405" on="0"/>
        <pt x="1196" y="1395" on="0"/>
        <pt x="1201" y="1391" on="1"/>
        <pt x="1211" y="1385" on="0"/>
        <pt x="1224" y="1340" on="0"/>
        <pt x="1232" y="1286" on="0"/>
        <pt x="1237" y="1234" on="0"/>
        <pt x="1239" y="1220" on="1"/>
        <pt x="1239" y="1215" on="0"/>
        <pt x="1242" y="1190" on="0"/>
        <pt x="1244" y="1162" on="0"/>
        <pt x="1246" y="1136" on="0"/>
        <pt x="1246" y="1131" on="1"/>
        <pt x="1246" y="1076" on="1"/>
        <pt x="1241" y="1067" on="0"/>
        <pt x="1225" y="1062" on="0"/>
        <pt x="1216" y="1062" on="1"/>
        <pt x="1209" y="1062" on="1"/>
        <pt x="1198" y="1069" on="0"/>
        <pt x="1188" y="1083" on="0"/>
        <pt x="1182" y="1098" on="0"/>
        <pt x="1177" y="1114" on="0"/>
        <pt x="1171" y="1123" on="1"/>
        <pt x="1171" y="1124" on="0"/>
        <pt x="1164" y="1131" on="0"/>
        <pt x="1156" y="1139" on="0"/>
        <pt x="1148" y="1146" on="0"/>
        <pt x="1147" y="1147" on="1"/>
        <pt x="1133" y="1167" on="0"/>
        <pt x="1106" y="1218" on="0"/>
        <pt x="1088" y="1240" on="1"/>
        <pt x="1087" y="1242" on="0"/>
        <pt x="1076" y="1252" on="0"/>
        <pt x="1074" y="1256" on="1"/>
        <pt x="1073" y="1258" on="0"/>
        <pt x="1061" y="1261" on="0"/>
        <pt x="1059" y="1263" on="1"/>
        <pt x="1047" y="1271" on="0"/>
        <pt x="1033" y="1291" on="0"/>
        <pt x="1018" y="1310" on="0"/>
        <pt x="1000" y="1328" on="0"/>
        <pt x="984" y="1334" on="1"/>
        <pt x="976" y="1334" on="0"/>
        <pt x="931" y="1337" on="0"/>
        <pt x="881" y="1340" on="0"/>
        <pt x="836" y="1343" on="0"/>
        <pt x="827" y="1344" on="1"/>
        <pt x="775" y="1344" on="1"/>
        <pt x="774" y="1344" on="0"/>
        <pt x="759" y="1347" on="0"/>
        <pt x="741" y="1350" on="0"/>
        <pt x="725" y="1353" on="0"/>
        <pt x="723" y="1353" on="1"/>
        <pt x="694" y="1353" on="1"/>
        <pt x="690" y="1353" on="0"/>
        <pt x="663" y="1350" on="0"/>
        <pt x="632" y="1347" on="0"/>
        <pt x="605" y="1344" on="0"/>
        <pt x="602" y="1344" on="1"/>
        <pt x="543" y="1344" on="1"/>
        <pt x="539" y="1344" on="0"/>
        <pt x="529" y="1339" on="0"/>
        <pt x="529" y="1337" on="1"/>
        <pt x="529" y="1213" on="1"/>
        <pt x="528" y="1181" on="0"/>
        <pt x="512" y="1123" on="0"/>
        <pt x="512" y="1093" on="1"/>
        <pt x="512" y="1048" on="0"/>
        <pt x="521" y="957" on="0"/>
        <pt x="521" y="910" on="1"/>
        <pt x="521" y="878" on="0"/>
        <pt x="512" y="812" on="0"/>
        <pt x="512" y="777" on="1"/>
        <pt x="512" y="770" on="1"/>
        <pt x="515" y="767" on="0"/>
        <pt x="525" y="756" on="0"/>
        <pt x="529" y="756" on="1"/>
        <pt x="580" y="756" on="1"/>
        <pt x="582" y="756" on="0"/>
        <pt x="596" y="759" on="0"/>
        <pt x="612" y="762" on="0"/>
        <pt x="625" y="765" on="0"/>
        <pt x="626" y="765" on="1"/>
        <pt x="715" y="765" on="1"/>
        <pt x="722" y="765" on="0"/>
        <pt x="759" y="767" on="0"/>
        <pt x="800" y="768" on="0"/>
        <pt x="836" y="770" on="0"/>
        <pt x="843" y="770" on="1"/>
        <pt x="858" y="783" on="0"/>
        <pt x="872" y="834" on="0"/>
        <pt x="879" y="851" on="1"/>
        <pt x="880" y="854" on="0"/>
        <pt x="883" y="877" on="0"/>
        <pt x="887" y="903" on="0"/>
        <pt x="891" y="926" on="0"/>
        <pt x="893" y="929" on="1"/>
        <pt x="893" y="930" on="0"/>
        <pt x="898" y="939" on="0"/>
        <pt x="904" y="948" on="0"/>
        <pt x="909" y="956" on="0"/>
        <pt x="910" y="957" on="1"/>
        <pt x="914" y="970" on="0"/>
        <pt x="916" y="1000" on="0"/>
        <pt x="924" y="1025" on="0"/>
        <pt x="942" y="1041" on="0"/>
        <pt x="962" y="1041" on="1"/>
        <pt x="984" y="1041" on="0"/>
        <pt x="998" y="1021" on="0"/>
        <pt x="998" y="998" on="1"/>
        <pt x="998" y="990" on="0"/>
        <pt x="996" y="983" on="0"/>
        <pt x="993" y="972" on="1"/>
        <pt x="993" y="971" on="0"/>
        <pt x="991" y="963" on="0"/>
        <pt x="991" y="958" on="1"/>
        <pt x="991" y="950" on="0"/>
        <pt x="993" y="937" on="0"/>
        <pt x="993" y="934" on="1"/>
        <pt x="992" y="928" on="0"/>
        <pt x="990" y="890" on="0"/>
        <pt x="986" y="840" on="0"/>
        <pt x="982" y="783" on="0"/>
        <pt x="978" y="732" on="0"/>
        <pt x="975" y="694" on="0"/>
        <pt x="974" y="687" on="1"/>
        <pt x="974" y="685" on="0"/>
        <pt x="976" y="652" on="0"/>
        <pt x="976" y="635" on="1"/>
        <pt x="976" y="627" on="0"/>
        <pt x="972" y="608" on="0"/>
        <pt x="971" y="605" on="1"/>
        <pt x="971" y="605" on="0"/>
        <pt x="968" y="595" on="0"/>
        <pt x="965" y="582" on="0"/>
        <pt x="962" y="571" on="0"/>
        <pt x="962" y="569" on="1"/>
        <pt x="962" y="566" on="0"/>
        <pt x="964" y="544" on="0"/>
        <pt x="967" y="519" on="0"/>
        <pt x="969" y="498" on="0"/>
        <pt x="969" y="495" on="1"/>
        <pt x="969" y="491" on="0"/>
        <pt x="970" y="476" on="0"/>
        <pt x="970" y="461" on="0"/>
        <pt x="971" y="447" on="0"/>
        <pt x="971" y="443" on="1"/>
        <pt x="971" y="426" on="0"/>
        <pt x="964" y="398" on="0"/>
        <pt x="953" y="381" on="1"/>
        <pt x="952" y="376" on="0"/>
        <pt x="935" y="365" on="0"/>
        <pt x="933" y="365" on="1"/>
        <pt x="931" y="365" on="0"/>
        <pt x="913" y="376" on="0"/>
        <pt x="910" y="381" on="1"/>
        <pt x="893" y="395" on="0"/>
        <pt x="880" y="445" on="0"/>
        <pt x="876" y="504" on="0"/>
        <pt x="876" y="566" on="0"/>
        <pt x="869" y="619" on="0"/>
        <pt x="849" y="655" on="0"/>
        <pt x="827" y="659" on="1"/>
        <pt x="819" y="657" on="0"/>
        <pt x="785" y="657" on="0"/>
        <pt x="765" y="657" on="1"/>
        <pt x="744" y="657" on="0"/>
        <pt x="707" y="657" on="0"/>
        <pt x="701" y="659" on="1"/>
        <pt x="696" y="659" on="0"/>
        <pt x="674" y="661" on="0"/>
        <pt x="651" y="662" on="0"/>
        <pt x="630" y="664" on="0"/>
        <pt x="626" y="664" on="1"/>
        <pt x="625" y="667" on="0"/>
        <pt x="611" y="675" on="0"/>
        <pt x="609" y="675" on="1"/>
        <pt x="599" y="675" on="1"/>
        <pt x="573" y="675" on="0"/>
        <pt x="526" y="650" on="0"/>
        <pt x="521" y="623" on="1"/>
        <pt x="520" y="616" on="0"/>
        <pt x="513" y="575" on="0"/>
        <pt x="506" y="527" on="0"/>
        <pt x="499" y="482" on="0"/>
        <pt x="498" y="471" on="1"/>
        <pt x="498" y="458" on="1"/>
        <pt x="498" y="450" on="0"/>
        <pt x="500" y="414" on="0"/>
        <pt x="502" y="373" on="0"/>
        <pt x="505" y="336" on="0"/>
        <pt x="505" y="329" on="1"/>
        <pt x="510" y="321" on="0"/>
        <pt x="512" y="313" on="0"/>
        <pt x="512" y="308" on="1"/>
        <pt x="512" y="269" on="0"/>
        <pt x="504" y="195" on="0"/>
        <pt x="504" y="154" on="1"/>
        <pt x="504" y="150" on="0"/>
        <pt x="505" y="124" on="0"/>
        <pt x="505" y="119" on="1"/>
        <pt x="506" y="117" on="0"/>
        <pt x="514" y="108" on="0"/>
        <pt x="523" y="99" on="0"/>
        <pt x="533" y="91" on="0"/>
        <pt x="535" y="90" on="1"/>
        <pt x="536" y="88" on="0"/>
        <pt x="553" y="86" on="0"/>
        <pt x="575" y="85" on="0"/>
        <pt x="596" y="82" on="0"/>
        <pt x="602" y="81" on="1"/>
        <pt x="614" y="81" on="0"/>
        <pt x="673" y="79" on="0"/>
        <pt x="740" y="77" on="0"/>
        <pt x="799" y="76" on="0"/>
        <pt x="811" y="76" on="1"/>
        <pt x="823" y="71" on="0"/>
        <pt x="848" y="67" on="0"/>
        <pt x="860" y="67" on="1"/>
        <pt x="933" y="67" on="1"/>
        <pt x="934" y="67" on="0"/>
        <pt x="946" y="70" on="0"/>
        <pt x="961" y="73" on="0"/>
        <pt x="973" y="76" on="0"/>
        <pt x="974" y="76" on="1"/>
        <pt x="1164" y="76" on="1"/>
        <pt x="1175" y="79" on="0"/>
        <pt x="1195" y="96" on="0"/>
        <pt x="1213" y="117" on="0"/>
        <pt x="1227" y="140" on="0"/>
        <pt x="1232" y="149" on="1"/>
        <pt x="1235" y="152" on="0"/>
        <pt x="1246" y="174" on="0"/>
        <pt x="1257" y="199" on="0"/>
        <pt x="1267" y="221" on="0"/>
        <pt x="1268" y="223" on="1"/>
        <pt x="1270" y="226" on="0"/>
        <pt x="1284" y="244" on="0"/>
        <pt x="1284" y="246" on="1"/>
        <pt x="1285" y="248" on="0"/>
        <pt x="1291" y="266" on="0"/>
        <pt x="1291" y="268" on="1"/>
        <pt x="1292" y="269" on="0"/>
        <pt x="1301" y="279" on="0"/>
        <pt x="1311" y="289" on="0"/>
        <pt x="1319" y="299" on="0"/>
        <pt x="1320" y="301" on="1"/>
        <pt x="1321" y="302" on="0"/>
        <pt x="1328" y="313" on="0"/>
        <pt x="1335" y="328" on="0"/>
        <pt x="1340" y="341" on="0"/>
        <pt x="1341" y="343" on="1"/>
        <pt x="1343" y="347" on="0"/>
        <pt x="1362" y="363" on="0"/>
        <pt x="1363" y="365" on="1"/>
        <pt x="1365" y="367" on="0"/>
        <pt x="1371" y="370" on="0"/>
        <pt x="1373" y="372" on="1"/>
        <pt x="1376" y="374" on="0"/>
        <pt x="1379" y="375" on="1"/>
        <pt x="1383" y="373" on="0"/>
        <pt x="1399" y="357" on="0"/>
        <pt x="1403" y="353" on="1"/>
        <pt x="1403" y="348" on="1"/>
        <pt x="1403" y="336" on="0"/>
        <pt x="1396" y="314" on="0"/>
        <pt x="1396" y="303" on="1"/>
        <pt x="1396" y="289" on="0"/>
        <pt x="1403" y="268" on="0"/>
        <pt x="1403" y="254" on="1"/>
        <pt x="1403" y="246" on="1"/>
        <pt x="1403" y="243" on="0"/>
        <pt x="1396" y="227" on="0"/>
        <pt x="1396" y="223" on="1"/>
        <pt x="1396" y="106" on="1"/>
        <pt x="1395" y="94" on="0"/>
        <pt x="1391" y="57" on="0"/>
        <pt x="1379" y="24" on="0"/>
        <pt x="1357" y="0" on="0"/>
        <pt x="1339" y="0" on="1"/>
        <pt x="1334" y="0" on="1"/>
        <pt x="1331" y="1" on="0"/>
        <pt x="1317" y="3" on="0"/>
        <pt x="1303" y="5" on="0"/>
        <pt x="1292" y="7" on="0"/>
        <pt x="1291" y="7" on="1"/>
        <pt x="1285" y="11" on="1"/>
        <pt x="1279" y="15" on="0"/>
        <pt x="1279" y="16" on="1"/>
        <pt x="1268" y="16" on="1"/>
        <pt x="1250" y="10" on="0"/>
        <pt x="1217" y="5" on="0"/>
        <pt x="1201" y="3" on="1"/>
        <pt x="1187" y="-32" on="0"/>
        <pt x="1155" y="-100" on="0"/>
        <pt x="1155" y="-137" on="1"/>
        <pt x="1155" y="-148" on="0"/>
        <pt x="1159" y="-173" on="0"/>
        <pt x="1161" y="-185" on="1"/>
        <pt x="1164" y="-201" on="0"/>
        <pt x="1166" y="-243" on="0"/>
        <pt x="1176" y="-256" on="1"/>
        <pt x="1185" y="-268" on="0"/>
        <pt x="1206" y="-287" on="0"/>
        <pt x="1212" y="-301" on="1"/>
        <pt x="1227" y="-310" on="1"/>
        <pt x="1237" y="-310" on="1"/>
        <pt x="1244" y="-310" on="0"/>
        <pt x="1252" y="-313" on="0"/>
        <pt x="1258" y="-315" on="1"/>
        <pt x="1266" y="-319" on="0"/>
        <pt x="1275" y="-318" on="0"/>
        <pt x="1285" y="-319" on="1"/>
        <pt x="1293" y="-319" on="0"/>
        <pt x="1306" y="-327" on="0"/>
        <pt x="1314" y="-327" on="1"/>
        <pt x="1322" y="-327" on="0"/>
        <pt x="1337" y="-323" on="0"/>
        <pt x="1347" y="-322" on="1"/>
        <pt x="1374" y="-319" on="0"/>
        <pt x="1396" y="-307" on="1"/>
        <pt x="1400" y="-307" on="1"/>
        <pt x="1419" y="-307" on="0"/>
        <pt x="1419" y="-325" on="1"/>
        <pt x="1419" y="-333" on="0"/>
        <pt x="1412" y="-342" on="1"/>
        <pt x="1390" y="-370" on="0"/>
        <pt x="1331" y="-406" on="0"/>
        <pt x="1298" y="-416" on="1"/>
        <pt x="1273" y="-428" on="1"/>
        <pt x="1262" y="-430" on="0"/>
        <pt x="1235" y="-431" on="0"/>
        <pt x="1223" y="-431" on="1"/>
        <pt x="1214" y="-431" on="0"/>
        <pt x="1182" y="-427" on="0"/>
        <pt x="1170" y="-425" on="1"/>
        <pt x="1155" y="-418" on="1"/>
        <pt x="1141" y="-414" on="0"/>
        <pt x="1116" y="-402" on="0"/>
        <pt x="1102" y="-397" on="1"/>
        <pt x="1085" y="-388" on="1"/>
        <pt x="1073" y="-371" on="1"/>
        <pt x="1069" y="-359" on="0"/>
        <pt x="1056" y="-339" on="0"/>
        <pt x="1044" y="-318" on="0"/>
        <pt x="1035" y="-295" on="0"/>
        <pt x="1035" y="-282" on="1"/>
        <pt x="1035" y="-255" on="0"/>
        <pt x="1048" y="-207" on="0"/>
        <pt x="1045" y="-181" on="1"/>
        <pt x="1054" y="-163" on="1"/>
        <pt x="1063" y="-135" on="1"/>
        <pt x="1072" y="-98" on="1"/>
        <pt x="1103" y="-42" on="0"/>
        <pt x="1146" y="1" on="1"/>
        <pt x="1143" y="0" on="0"/>
        <pt x="1137" y="0" on="1"/>
        <pt x="1134" y="0" on="0"/>
        <pt x="1118" y="-2" on="0"/>
        <pt x="1099" y="-5" on="0"/>
        <pt x="1083" y="-9" on="0"/>
        <pt x="1081" y="-10" on="1"/>
        <pt x="1076" y="-10" on="1"/>
        <pt x="1058" y="-10" on="0"/>
        <pt x="1027" y="0" on="0"/>
        <pt x="1007" y="0" on="1"/>
        <pt x="1005" y="0" on="0"/>
        <pt x="988" y="1" on="0"/>
        <pt x="967" y="1" on="0"/>
        <pt x="946" y="2" on="0"/>
      </contour>
    </TTGlyph>
    <TTGlyph name="Eth" xMin="82" yMin="-22" xMax="1522" yMax="1464">
      <contour>
        <pt x="88" y="724" on="1"/>
        <pt x="88" y="741" on="0"/>
        <pt x="104" y="764" on="0"/>
        <pt x="129" y="779" on="0"/>
        <pt x="159" y="786" on="0"/>
        <pt x="173" y="786" on="1"/>
        <pt x="207" y="784" on="0"/>
        <pt x="243" y="782" on="0"/>
        <pt x="254" y="782" on="1"/>
        <pt x="265" y="782" on="0"/>
        <pt x="278" y="783" on="0"/>
        <pt x="290" y="784" on="1"/>
        <pt x="290" y="809" on="0"/>
        <pt x="296" y="859" on="0"/>
        <pt x="304" y="882" on="1"/>
        <pt x="304" y="1227" on="1"/>
        <pt x="299" y="1242" on="0"/>
        <pt x="295" y="1281" on="0"/>
        <pt x="295" y="1301" on="1"/>
        <pt x="295" y="1312" on="0"/>
        <pt x="295" y="1333" on="0"/>
        <pt x="297" y="1341" on="1"/>
        <pt x="294" y="1343" on="0"/>
        <pt x="279" y="1348" on="0"/>
        <pt x="261" y="1353" on="0"/>
        <pt x="246" y="1356" on="0"/>
        <pt x="243" y="1356" on="1"/>
        <pt x="241" y="1356" on="0"/>
        <pt x="230" y="1358" on="0"/>
        <pt x="222" y="1358" on="1"/>
        <pt x="205" y="1358" on="0"/>
        <pt x="170" y="1356" on="0"/>
        <pt x="167" y="1356" on="1"/>
        <pt x="158" y="1357" on="0"/>
        <pt x="134" y="1362" on="0"/>
        <pt x="111" y="1372" on="0"/>
        <pt x="96" y="1387" on="0"/>
        <pt x="96" y="1398" on="1"/>
        <pt x="96" y="1408" on="0"/>
        <pt x="106" y="1422" on="0"/>
        <pt x="121" y="1432" on="0"/>
        <pt x="137" y="1438" on="0"/>
        <pt x="143" y="1441" on="1"/>
        <pt x="155" y="1442" on="0"/>
        <pt x="187" y="1443" on="0"/>
        <pt x="221" y="1443" on="0"/>
        <pt x="253" y="1443" on="0"/>
        <pt x="264" y="1443" on="1"/>
        <pt x="300" y="1443" on="0"/>
        <pt x="378" y="1441" on="0"/>
        <pt x="406" y="1434" on="1"/>
        <pt x="420" y="1446" on="0"/>
        <pt x="462" y="1448" on="0"/>
        <pt x="480" y="1450" on="1"/>
        <pt x="484" y="1450" on="0"/>
        <pt x="505" y="1449" on="0"/>
        <pt x="533" y="1449" on="0"/>
        <pt x="565" y="1448" on="0"/>
        <pt x="579" y="1448" on="1"/>
        <pt x="593" y="1448" on="0"/>
        <pt x="614" y="1450" on="0"/>
        <pt x="617" y="1450" on="1"/>
        <pt x="620" y="1450" on="0"/>
        <pt x="643" y="1454" on="0"/>
        <pt x="669" y="1460" on="0"/>
        <pt x="692" y="1464" on="0"/>
        <pt x="696" y="1464" on="1"/>
        <pt x="699" y="1464" on="0"/>
        <pt x="723" y="1463" on="0"/>
        <pt x="726" y="1458" on="1"/>
        <pt x="800" y="1458" on="1"/>
        <pt x="825" y="1458" on="0"/>
        <pt x="871" y="1457" on="0"/>
        <pt x="880" y="1455" on="1"/>
        <pt x="883" y="1455" on="0"/>
        <pt x="899" y="1454" on="0"/>
        <pt x="917" y="1452" on="0"/>
        <pt x="935" y="1450" on="0"/>
        <pt x="939" y="1450" on="1"/>
        <pt x="942" y="1449" on="0"/>
        <pt x="947" y="1449" on="0"/>
        <pt x="950" y="1448" on="1"/>
        <pt x="1010" y="1437" on="0"/>
        <pt x="1125" y="1407" on="0"/>
        <pt x="1177" y="1374" on="1"/>
        <pt x="1179" y="1372" on="0"/>
        <pt x="1191" y="1360" on="0"/>
        <pt x="1204" y="1347" on="0"/>
        <pt x="1215" y="1336" on="0"/>
        <pt x="1217" y="1336" on="1"/>
        <pt x="1226" y="1327" on="0"/>
        <pt x="1244" y="1319" on="0"/>
        <pt x="1263" y="1314" on="0"/>
        <pt x="1283" y="1310" on="0"/>
        <pt x="1292" y="1304" on="1"/>
        <pt x="1323" y="1283" on="0"/>
        <pt x="1387" y="1209" on="0"/>
        <pt x="1441" y="1122" on="0"/>
        <pt x="1482" y="1032" on="0"/>
        <pt x="1490" y="996" on="1"/>
        <pt x="1491" y="993" on="0"/>
        <pt x="1496" y="967" on="0"/>
        <pt x="1501" y="936" on="0"/>
        <pt x="1505" y="909" on="0"/>
        <pt x="1506" y="905" on="1"/>
        <pt x="1507" y="903" on="0"/>
        <pt x="1511" y="893" on="0"/>
        <pt x="1516" y="880" on="0"/>
        <pt x="1520" y="869" on="0"/>
        <pt x="1520" y="867" on="1"/>
        <pt x="1522" y="865" on="0"/>
        <pt x="1522" y="835" on="0"/>
        <pt x="1522" y="827" on="1"/>
        <pt x="1522" y="730" on="0"/>
        <pt x="1494" y="546" on="0"/>
        <pt x="1468" y="452" on="1"/>
        <pt x="1456" y="410" on="0"/>
        <pt x="1414" y="335" on="0"/>
        <pt x="1362" y="267" on="0"/>
        <pt x="1301" y="206" on="0"/>
        <pt x="1269" y="178" on="1"/>
        <pt x="1267" y="177" on="0"/>
        <pt x="1254" y="163" on="0"/>
        <pt x="1238" y="147" on="0"/>
        <pt x="1224" y="134" on="0"/>
        <pt x="1222" y="133" on="1"/>
        <pt x="1220" y="130" on="0"/>
        <pt x="1198" y="121" on="0"/>
        <pt x="1173" y="111" on="0"/>
        <pt x="1149" y="103" on="0"/>
        <pt x="1146" y="102" on="1"/>
        <pt x="1108" y="84" on="0"/>
        <pt x="1033" y="45" on="0"/>
        <pt x="994" y="31" on="1"/>
        <pt x="982" y="27" on="0"/>
        <pt x="960" y="24" on="0"/>
        <pt x="938" y="22" on="0"/>
        <pt x="914" y="20" on="0"/>
        <pt x="901" y="17" on="1"/>
        <pt x="899" y="17" on="0"/>
        <pt x="888" y="10" on="0"/>
        <pt x="887" y="9" on="1"/>
        <pt x="883" y="7" on="0"/>
        <pt x="870" y="2" on="0"/>
        <pt x="858" y="-2" on="0"/>
        <pt x="849" y="-5" on="0"/>
        <pt x="849" y="-5" on="1"/>
        <pt x="800" y="-5" on="1"/>
        <pt x="798" y="-5" on="0"/>
        <pt x="783" y="-7" on="0"/>
        <pt x="766" y="-10" on="0"/>
        <pt x="750" y="-12" on="0"/>
        <pt x="748" y="-12" on="1"/>
        <pt x="747" y="-12" on="0"/>
        <pt x="725" y="-14" on="0"/>
        <pt x="721" y="-14" on="1"/>
        <pt x="653" y="-14" on="0"/>
        <pt x="517" y="-5" on="0"/>
        <pt x="451" y="-5" on="1"/>
        <pt x="406" y="-5" on="1"/>
        <pt x="402" y="-5" on="0"/>
        <pt x="376" y="-12" on="0"/>
        <pt x="375" y="-12" on="1"/>
        <pt x="364" y="-12" on="1"/>
        <pt x="361" y="-12" on="0"/>
        <pt x="335" y="-10" on="0"/>
        <pt x="304" y="-7" on="0"/>
        <pt x="277" y="-5" on="0"/>
        <pt x="273" y="-5" on="1"/>
        <pt x="267" y="-5" on="1"/>
        <pt x="256" y="-8" on="0"/>
        <pt x="218" y="-22" on="0"/>
        <pt x="205" y="-22" on="1"/>
        <pt x="196" y="-22" on="1"/>
        <pt x="191" y="-22" on="0"/>
        <pt x="168" y="-19" on="0"/>
        <pt x="141" y="-16" on="0"/>
        <pt x="118" y="-13" on="0"/>
        <pt x="113" y="-12" on="1"/>
        <pt x="96" y="-3" on="0"/>
        <pt x="82" y="8" on="0"/>
        <pt x="82" y="26" on="1"/>
        <pt x="82" y="35" on="0"/>
        <pt x="95" y="51" on="0"/>
        <pt x="113" y="63" on="0"/>
        <pt x="134" y="70" on="0"/>
        <pt x="143" y="71" on="1"/>
        <pt x="165" y="73" on="0"/>
        <pt x="223" y="80" on="0"/>
        <pt x="250" y="80" on="1"/>
        <pt x="259" y="80" on="0"/>
        <pt x="275" y="78" on="0"/>
        <pt x="281" y="78" on="1"/>
        <pt x="293" y="86" on="0"/>
        <pt x="308" y="113" on="0"/>
        <pt x="312" y="125" on="1"/>
        <pt x="312" y="292" on="1"/>
        <pt x="311" y="322" on="0"/>
        <pt x="297" y="382" on="0"/>
        <pt x="297" y="412" on="1"/>
        <pt x="297" y="423" on="0"/>
        <pt x="299" y="435" on="0"/>
        <pt x="304" y="446" on="1"/>
        <pt x="304" y="659" on="1"/>
        <pt x="302" y="661" on="0"/>
        <pt x="302" y="666" on="1"/>
        <pt x="294" y="669" on="0"/>
        <pt x="277" y="673" on="0"/>
        <pt x="273" y="675" on="1"/>
        <pt x="270" y="675" on="0"/>
        <pt x="269" y="676" on="0"/>
        <pt x="267" y="678" on="1"/>
        <pt x="262" y="679" on="0"/>
        <pt x="255" y="679" on="0"/>
        <pt x="252" y="679" on="1"/>
        <pt x="244" y="679" on="0"/>
        <pt x="236" y="676" on="0"/>
        <pt x="227" y="673" on="0"/>
        <pt x="214" y="671" on="0"/>
        <pt x="201" y="671" on="1"/>
        <pt x="145" y="671" on="1"/>
        <pt x="144" y="671" on="0"/>
        <pt x="133" y="674" on="0"/>
        <pt x="119" y="677" on="0"/>
        <pt x="105" y="681" on="0"/>
        <pt x="102" y="683" on="1"/>
        <pt x="97" y="685" on="0"/>
        <pt x="91" y="696" on="0"/>
        <pt x="88" y="709" on="0"/>
        <pt x="88" y="721" on="0"/>
      </contour>
      <contour>
        <pt x="496" y="348" on="1"/>
        <pt x="496" y="346" on="0"/>
        <pt x="498" y="334" on="0"/>
        <pt x="501" y="320" on="0"/>
        <pt x="503" y="309" on="0"/>
        <pt x="503" y="308" on="1"/>
        <pt x="503" y="292" on="1"/>
        <pt x="503" y="284" on="0"/>
        <pt x="505" y="255" on="0"/>
        <pt x="508" y="226" on="0"/>
        <pt x="511" y="203" on="0"/>
        <pt x="513" y="202" on="1"/>
        <pt x="513" y="198" on="0"/>
        <pt x="518" y="185" on="0"/>
        <pt x="518" y="178" on="1"/>
        <pt x="518" y="133" on="1"/>
        <pt x="521" y="103" on="0"/>
        <pt x="554" y="68" on="0"/>
        <pt x="600" y="51" on="0"/>
        <pt x="652" y="47" on="0"/>
        <pt x="674" y="47" on="1"/>
        <pt x="678" y="47" on="0"/>
        <pt x="695" y="47" on="0"/>
        <pt x="713" y="47" on="0"/>
        <pt x="730" y="48" on="0"/>
        <pt x="734" y="48" on="1"/>
        <pt x="743" y="64" on="0"/>
        <pt x="777" y="74" on="0"/>
        <pt x="793" y="77" on="1"/>
        <pt x="795" y="77" on="0"/>
        <pt x="798" y="78" on="0"/>
        <pt x="800" y="78" on="1"/>
        <pt x="809" y="79" on="0"/>
        <pt x="838" y="84" on="0"/>
        <pt x="866" y="89" on="0"/>
        <pt x="886" y="93" on="0"/>
        <pt x="887" y="93" on="1"/>
        <pt x="890" y="95" on="0"/>
        <pt x="914" y="111" on="0"/>
        <pt x="942" y="130" on="0"/>
        <pt x="967" y="146" on="0"/>
        <pt x="971" y="149" on="1"/>
        <pt x="972" y="150" on="0"/>
        <pt x="985" y="156" on="0"/>
        <pt x="999" y="163" on="0"/>
        <pt x="1013" y="169" on="0"/>
        <pt x="1016" y="170" on="1"/>
        <pt x="1018" y="172" on="0"/>
        <pt x="1037" y="178" on="0"/>
        <pt x="1039" y="178" on="1"/>
        <pt x="1043" y="181" on="0"/>
        <pt x="1054" y="193" on="0"/>
        <pt x="1065" y="208" on="0"/>
        <pt x="1073" y="222" on="0"/>
        <pt x="1075" y="225" on="1"/>
        <pt x="1078" y="225" on="0"/>
        <pt x="1092" y="230" on="0"/>
        <pt x="1094" y="230" on="1"/>
        <pt x="1122" y="259" on="0"/>
        <pt x="1173" y="329" on="0"/>
        <pt x="1193" y="362" on="1"/>
        <pt x="1205" y="382" on="0"/>
        <pt x="1212" y="419" on="0"/>
        <pt x="1222" y="438" on="1"/>
        <pt x="1224" y="440" on="0"/>
        <pt x="1228" y="452" on="0"/>
        <pt x="1229" y="452" on="1"/>
        <pt x="1232" y="460" on="0"/>
        <pt x="1247" y="489" on="0"/>
        <pt x="1247" y="493" on="1"/>
        <pt x="1247" y="495" on="0"/>
        <pt x="1251" y="510" on="0"/>
        <pt x="1256" y="528" on="0"/>
        <pt x="1259" y="543" on="0"/>
        <pt x="1259" y="545" on="1"/>
        <pt x="1267" y="571" on="0"/>
        <pt x="1292" y="630" on="0"/>
        <pt x="1292" y="659" on="1"/>
        <pt x="1292" y="668" on="1"/>
        <pt x="1292" y="669" on="0"/>
        <pt x="1290" y="680" on="0"/>
        <pt x="1287" y="693" on="0"/>
        <pt x="1285" y="704" on="0"/>
        <pt x="1285" y="706" on="1"/>
        <pt x="1285" y="768" on="1"/>
        <pt x="1285" y="769" on="0"/>
        <pt x="1283" y="781" on="0"/>
        <pt x="1280" y="795" on="0"/>
        <pt x="1278" y="808" on="0"/>
        <pt x="1278" y="811" on="1"/>
        <pt x="1276" y="816" on="0"/>
        <pt x="1269" y="834" on="0"/>
        <pt x="1269" y="836" on="1"/>
        <pt x="1265" y="859" on="0"/>
        <pt x="1260" y="907" on="0"/>
        <pt x="1253" y="929" on="1"/>
        <pt x="1235" y="985" on="0"/>
        <pt x="1176" y="1097" on="0"/>
        <pt x="1138" y="1142" on="1"/>
        <pt x="1137" y="1144" on="0"/>
        <pt x="1124" y="1157" on="0"/>
        <pt x="1109" y="1173" on="0"/>
        <pt x="1095" y="1187" on="0"/>
        <pt x="1094" y="1190" on="1"/>
        <pt x="1092" y="1191" on="0"/>
        <pt x="1085" y="1202" on="0"/>
        <pt x="1078" y="1215" on="0"/>
        <pt x="1071" y="1226" on="0"/>
        <pt x="1070" y="1227" on="1"/>
        <pt x="1068" y="1229" on="0"/>
        <pt x="1048" y="1240" on="0"/>
        <pt x="1046" y="1242" on="1"/>
        <pt x="1023" y="1260" on="0"/>
        <pt x="972" y="1289" on="0"/>
        <pt x="949" y="1304" on="1"/>
        <pt x="944" y="1306" on="0"/>
        <pt x="932" y="1310" on="0"/>
        <pt x="932" y="1311" on="1"/>
        <pt x="930" y="1312" on="0"/>
        <pt x="915" y="1316" on="0"/>
        <pt x="897" y="1321" on="0"/>
        <pt x="882" y="1327" on="0"/>
        <pt x="880" y="1329" on="1"/>
        <pt x="878" y="1329" on="0"/>
        <pt x="869" y="1335" on="0"/>
        <pt x="858" y="1342" on="0"/>
        <pt x="849" y="1349" on="0"/>
        <pt x="849" y="1349" on="1"/>
        <pt x="820" y="1368" on="0"/>
        <pt x="756" y="1379" on="0"/>
        <pt x="724" y="1379" on="1"/>
        <pt x="686" y="1379" on="1"/>
        <pt x="665" y="1383" on="0"/>
        <pt x="624" y="1396" on="0"/>
        <pt x="601" y="1396" on="1"/>
        <pt x="589" y="1396" on="0"/>
        <pt x="564" y="1383" on="0"/>
        <pt x="543" y="1363" on="0"/>
        <pt x="529" y="1339" on="0"/>
        <pt x="527" y="1329" on="1"/>
        <pt x="525" y="1322" on="0"/>
        <pt x="520" y="1297" on="0"/>
        <pt x="516" y="1272" on="0"/>
        <pt x="513" y="1252" on="0"/>
        <pt x="513" y="1249" on="1"/>
        <pt x="511" y="1244" on="0"/>
        <pt x="508" y="1209" on="0"/>
        <pt x="505" y="1168" on="0"/>
        <pt x="503" y="1132" on="0"/>
        <pt x="503" y="1128" on="1"/>
        <pt x="503" y="1124" on="0"/>
        <pt x="497" y="1099" on="0"/>
        <pt x="496" y="1095" on="1"/>
        <pt x="496" y="1043" on="1"/>
        <pt x="497" y="1041" on="0"/>
        <pt x="503" y="1016" on="0"/>
        <pt x="503" y="1014" on="1"/>
        <pt x="505" y="1001" on="0"/>
        <pt x="510" y="953" on="0"/>
        <pt x="515" y="904" on="0"/>
        <pt x="518" y="864" on="0"/>
        <pt x="518" y="860" on="1"/>
        <pt x="518" y="856" on="0"/>
        <pt x="517" y="840" on="0"/>
        <pt x="515" y="823" on="0"/>
        <pt x="514" y="809" on="0"/>
        <pt x="513" y="806" on="1"/>
        <pt x="513" y="778" on="1"/>
        <pt x="525" y="778" on="0"/>
        <pt x="543" y="780" on="0"/>
        <pt x="546" y="780" on="1"/>
        <pt x="549" y="780" on="0"/>
        <pt x="573" y="778" on="0"/>
        <pt x="598" y="775" on="0"/>
        <pt x="620" y="773" on="0"/>
        <pt x="622" y="773" on="1"/>
        <pt x="623" y="773" on="0"/>
        <pt x="636" y="775" on="0"/>
        <pt x="652" y="776" on="0"/>
        <pt x="665" y="778" on="0"/>
        <pt x="665" y="778" on="1"/>
        <pt x="677" y="778" on="0"/>
        <pt x="688" y="779" on="1"/>
        <pt x="697" y="779" on="0"/>
        <pt x="714" y="780" on="0"/>
        <pt x="716" y="780" on="1"/>
        <pt x="718" y="780" on="0"/>
        <pt x="726" y="779" on="0"/>
        <pt x="731" y="779" on="1"/>
        <pt x="735" y="778" on="0"/>
        <pt x="741" y="778" on="1"/>
        <pt x="756" y="773" on="1"/>
        <pt x="758" y="773" on="0"/>
        <pt x="771" y="772" on="0"/>
        <pt x="786" y="772" on="0"/>
        <pt x="798" y="772" on="0"/>
        <pt x="799" y="772" on="1"/>
        <pt x="802" y="772" on="0"/>
        <pt x="819" y="772" on="0"/>
        <pt x="839" y="773" on="0"/>
        <pt x="856" y="773" on="0"/>
        <pt x="859" y="773" on="1"/>
        <pt x="876" y="773" on="0"/>
        <pt x="903" y="760" on="0"/>
        <pt x="908" y="735" on="1"/>
        <pt x="908" y="721" on="1"/>
        <pt x="908" y="700" on="0"/>
        <pt x="872" y="676" on="0"/>
        <pt x="822" y="666" on="0"/>
        <pt x="769" y="664" on="0"/>
        <pt x="751" y="664" on="1"/>
        <pt x="716" y="664" on="1"/>
        <pt x="715" y="664" on="0"/>
        <pt x="700" y="666" on="0"/>
        <pt x="682" y="668" on="0"/>
        <pt x="666" y="670" on="0"/>
        <pt x="665" y="670" on="1"/>
        <pt x="663" y="670" on="0"/>
        <pt x="636" y="669" on="0"/>
        <pt x="602" y="669" on="0"/>
        <pt x="566" y="668" on="0"/>
        <pt x="556" y="668" on="1"/>
        <pt x="545" y="668" on="0"/>
        <pt x="531" y="670" on="0"/>
        <pt x="529" y="670" on="1"/>
        <pt x="513" y="670" on="1"/>
        <pt x="513" y="432" on="1"/>
        <pt x="513" y="430" on="0"/>
        <pt x="510" y="414" on="0"/>
        <pt x="507" y="394" on="0"/>
        <pt x="503" y="375" on="0"/>
        <pt x="503" y="370" on="1"/>
        <pt x="503" y="368" on="0"/>
        <pt x="496" y="349" on="0"/>
      </contour>
    </TTGlyph>
    <TTGlyph name="Euro" xMin="95" yMin="-3" xMax="1123" yMax="1451">
      <contour>
        <pt x="401" y="782" on="1"/>
        <pt x="400" y="768" on="0"/>
        <pt x="393" y="742" on="0"/>
        <pt x="393" y="730" on="1"/>
        <pt x="393" y="719" on="0"/>
        <pt x="400" y="702" on="0"/>
        <pt x="400" y="695" on="1"/>
        <pt x="498" y="683" on="1"/>
        <pt x="562" y="695" on="1"/>
        <pt x="595" y="690" on="1"/>
        <pt x="696" y="695" on="1"/>
        <pt x="754" y="690" on="1"/>
        <pt x="874" y="695" on="1"/>
        <pt x="895" y="701" on="0"/>
        <pt x="912" y="701" on="1"/>
        <pt x="923" y="701" on="0"/>
        <pt x="944" y="698" on="0"/>
        <pt x="957" y="695" on="1"/>
        <pt x="964" y="681" on="0"/>
        <pt x="964" y="668" on="1"/>
        <pt x="964" y="643" on="0"/>
        <pt x="933" y="616" on="1"/>
        <pt x="925" y="613" on="0"/>
        <pt x="904" y="611" on="0"/>
        <pt x="895" y="611" on="1"/>
        <pt x="879" y="611" on="0"/>
        <pt x="844" y="615" on="0"/>
        <pt x="827" y="618" on="1"/>
        <pt x="815" y="623" on="1"/>
        <pt x="647" y="616" on="1"/>
        <pt x="588" y="623" on="1"/>
        <pt x="500" y="616" on="1"/>
        <pt x="401" y="616" on="1"/>
        <pt x="396" y="581" on="1"/>
        <pt x="399" y="567" on="0"/>
        <pt x="403" y="550" on="0"/>
        <pt x="407" y="536" on="0"/>
        <pt x="410" y="521" on="0"/>
        <pt x="412" y="509" on="1"/>
        <pt x="413" y="504" on="0"/>
        <pt x="414" y="496" on="0"/>
        <pt x="414" y="486" on="0"/>
        <pt x="415" y="472" on="0"/>
        <pt x="415" y="460" on="1"/>
        <pt x="419" y="443" on="0"/>
        <pt x="436" y="398" on="0"/>
        <pt x="441" y="384" on="1"/>
        <pt x="444" y="378" on="0"/>
        <pt x="453" y="349" on="0"/>
        <pt x="464" y="317" on="0"/>
        <pt x="473" y="288" on="0"/>
        <pt x="476" y="282" on="1"/>
        <pt x="487" y="260" on="0"/>
        <pt x="506" y="211" on="0"/>
        <pt x="519" y="194" on="1"/>
        <pt x="539" y="171" on="0"/>
        <pt x="580" y="130" on="0"/>
        <pt x="602" y="119" on="1"/>
        <pt x="611" y="115" on="0"/>
        <pt x="625" y="113" on="0"/>
        <pt x="638" y="112" on="0"/>
        <pt x="654" y="112" on="0"/>
        <pt x="666" y="111" on="1"/>
        <pt x="672" y="110" on="0"/>
        <pt x="690" y="105" on="0"/>
        <pt x="708" y="99" on="0"/>
        <pt x="724" y="95" on="0"/>
        <pt x="727" y="95" on="1"/>
        <pt x="747" y="95" on="0"/>
        <pt x="786" y="101" on="0"/>
        <pt x="803" y="104" on="1"/>
        <pt x="812" y="108" on="0"/>
        <pt x="846" y="128" on="0"/>
        <pt x="863" y="133" on="1"/>
        <pt x="888" y="145" on="0"/>
        <pt x="926" y="156" on="0"/>
        <pt x="940" y="163" on="1"/>
        <pt x="953" y="171" on="0"/>
        <pt x="958" y="172" on="0"/>
        <pt x="962" y="176" on="1"/>
        <pt x="964" y="178" on="0"/>
        <pt x="968" y="181" on="0"/>
        <pt x="971" y="183" on="1"/>
        <pt x="973" y="185" on="0"/>
        <pt x="974" y="193" on="0"/>
        <pt x="974" y="195" on="1"/>
        <pt x="974" y="200" on="0"/>
        <pt x="975" y="207" on="0"/>
        <pt x="979" y="209" on="1"/>
        <pt x="993" y="221" on="0"/>
        <pt x="1015" y="237" on="0"/>
        <pt x="1029" y="251" on="1"/>
        <pt x="1071" y="317" on="1"/>
        <pt x="1073" y="322" on="0"/>
        <pt x="1087" y="327" on="0"/>
        <pt x="1093" y="327" on="1"/>
        <pt x="1115" y="327" on="0"/>
        <pt x="1123" y="303" on="1"/>
        <pt x="1114" y="286" on="0"/>
        <pt x="1094" y="260" on="0"/>
        <pt x="1085" y="246" on="1"/>
        <pt x="1074" y="230" on="0"/>
        <pt x="1056" y="190" on="0"/>
        <pt x="1047" y="178" on="1"/>
        <pt x="1027" y="152" on="0"/>
        <pt x="1005" y="114" on="0"/>
        <pt x="988" y="99" on="1"/>
        <pt x="975" y="88" on="0"/>
        <pt x="942" y="66" on="0"/>
        <pt x="931" y="61" on="1"/>
        <pt x="908" y="45" on="0"/>
        <pt x="844" y="27" on="0"/>
        <pt x="817" y="22" on="1"/>
        <pt x="794" y="14" on="0"/>
        <pt x="751" y="-3" on="0"/>
        <pt x="723" y="-3" on="1"/>
        <pt x="710" y="-3" on="0"/>
        <pt x="692" y="0" on="1"/>
        <pt x="669" y="5" on="0"/>
        <pt x="614" y="10" on="0"/>
        <pt x="588" y="24" on="1"/>
        <pt x="516" y="43" on="1"/>
        <pt x="499" y="52" on="0"/>
        <pt x="467" y="68" on="0"/>
        <pt x="452" y="80" on="1"/>
        <pt x="409" y="118" on="0"/>
        <pt x="348" y="196" on="0"/>
        <pt x="313" y="235" on="1"/>
        <pt x="305" y="242" on="0"/>
        <pt x="297" y="261" on="0"/>
        <pt x="284" y="287" on="1"/>
        <pt x="276" y="292" on="0"/>
        <pt x="277" y="296" on="0"/>
        <pt x="272" y="303" on="1"/>
        <pt x="265" y="315" on="0"/>
        <pt x="261" y="325" on="0"/>
        <pt x="260" y="334" on="0"/>
        <pt x="258" y="345" on="0"/>
        <pt x="253" y="358" on="1"/>
        <pt x="244" y="378" on="0"/>
        <pt x="247" y="410" on="0"/>
        <pt x="241" y="432" on="1"/>
        <pt x="238" y="446" on="0"/>
        <pt x="233" y="459" on="0"/>
        <pt x="230" y="469" on="0"/>
        <pt x="227" y="483" on="0"/>
        <pt x="225" y="498" on="1"/>
        <pt x="223" y="519" on="0"/>
        <pt x="215" y="564" on="0"/>
        <pt x="215" y="586" on="1"/>
        <pt x="209" y="616" on="1"/>
        <pt x="201" y="620" on="0"/>
        <pt x="170" y="630" on="0"/>
        <pt x="154" y="630" on="1"/>
        <pt x="143" y="630" on="0"/>
        <pt x="120" y="621" on="0"/>
        <pt x="106" y="616" on="1"/>
        <pt x="103" y="627" on="0"/>
        <pt x="97" y="642" on="0"/>
        <pt x="97" y="650" on="1"/>
        <pt x="97" y="661" on="0"/>
        <pt x="109" y="682" on="0"/>
        <pt x="126" y="695" on="1"/>
        <pt x="131" y="697" on="0"/>
        <pt x="133" y="697" on="0"/>
        <pt x="135" y="697" on="1"/>
        <pt x="140" y="697" on="0"/>
        <pt x="146" y="692" on="0"/>
        <pt x="154" y="690" on="1"/>
        <pt x="201" y="695" on="1"/>
        <pt x="201" y="711" on="1"/>
        <pt x="201" y="727" on="0"/>
        <pt x="201" y="762" on="0"/>
        <pt x="203" y="782" on="1"/>
        <pt x="106" y="782" on="1"/>
        <pt x="101" y="787" on="0"/>
        <pt x="95" y="800" on="0"/>
        <pt x="95" y="806" on="1"/>
        <pt x="95" y="820" on="0"/>
        <pt x="111" y="842" on="0"/>
        <pt x="126" y="858" on="1"/>
        <pt x="189" y="848" on="1"/>
        <pt x="195" y="849" on="0"/>
        <pt x="203" y="858" on="0"/>
        <pt x="208" y="858" on="1"/>
        <pt x="210" y="872" on="0"/>
        <pt x="225" y="890" on="0"/>
        <pt x="225" y="903" on="1"/>
        <pt x="225" y="911" on="0"/>
        <pt x="225" y="929" on="0"/>
        <pt x="227" y="936" on="1"/>
        <pt x="231" y="948" on="0"/>
        <pt x="234" y="963" on="0"/>
        <pt x="237" y="976" on="0"/>
        <pt x="241" y="991" on="0"/>
        <pt x="246" y="1002" on="1"/>
        <pt x="255" y="1028" on="0"/>
        <pt x="267" y="1084" on="0"/>
        <pt x="279" y="1109" on="1"/>
        <pt x="285" y="1122" on="0"/>
        <pt x="307" y="1152" on="0"/>
        <pt x="315" y="1168" on="1"/>
        <pt x="317" y="1176" on="0"/>
        <pt x="331" y="1189" on="0"/>
        <pt x="332" y="1197" on="1"/>
        <pt x="376" y="1259" on="1"/>
        <pt x="380" y="1265" on="0"/>
        <pt x="384" y="1271" on="0"/>
        <pt x="389" y="1276" on="0"/>
        <pt x="395" y="1281" on="0"/>
        <pt x="400" y="1287" on="1"/>
        <pt x="408" y="1301" on="0"/>
        <pt x="442" y="1321" on="0"/>
        <pt x="450" y="1332" on="1"/>
        <pt x="471" y="1346" on="0"/>
        <pt x="499" y="1372" on="0"/>
        <pt x="523" y="1386" on="1"/>
        <pt x="536" y="1391" on="0"/>
        <pt x="543" y="1391" on="1"/>
        <pt x="550" y="1391" on="0"/>
        <pt x="577" y="1410" on="0"/>
        <pt x="588" y="1410" on="1"/>
        <pt x="595" y="1410" on="0"/>
        <pt x="600" y="1412" on="1"/>
        <pt x="612" y="1414" on="0"/>
        <pt x="620" y="1417" on="0"/>
        <pt x="624" y="1420" on="0"/>
        <pt x="630" y="1424" on="0"/>
        <pt x="640" y="1427" on="1"/>
        <pt x="661" y="1432" on="0"/>
        <pt x="720" y="1450" on="0"/>
        <pt x="754" y="1450" on="1"/>
        <pt x="791" y="1451" on="0"/>
        <pt x="840" y="1438" on="0"/>
        <pt x="869" y="1434" on="1"/>
        <pt x="882" y="1432" on="0"/>
        <pt x="901" y="1425" on="0"/>
        <pt x="919" y="1416" on="0"/>
        <pt x="940" y="1408" on="0"/>
        <pt x="955" y="1405" on="1"/>
        <pt x="991" y="1391" on="0"/>
        <pt x="1033" y="1375" on="1"/>
        <pt x="1041" y="1372" on="0"/>
        <pt x="1057" y="1359" on="0"/>
        <pt x="1073" y="1344" on="0"/>
        <pt x="1088" y="1330" on="0"/>
        <pt x="1095" y="1327" on="1"/>
        <pt x="1102" y="1297" on="0"/>
        <pt x="1116" y="1253" on="0"/>
        <pt x="1123" y="1223" on="1"/>
        <pt x="1123" y="1200" on="0"/>
        <pt x="1111" y="1162" on="0"/>
        <pt x="1102" y="1144" on="1"/>
        <pt x="1104" y="1137" on="0"/>
        <pt x="1104" y="1126" on="0"/>
        <pt x="1104" y="1119" on="1"/>
        <pt x="1104" y="1101" on="0"/>
        <pt x="1098" y="1063" on="0"/>
        <pt x="1093" y="1045" on="1"/>
        <pt x="1088" y="1036" on="0"/>
        <pt x="1078" y="1036" on="1"/>
        <pt x="1071" y="1036" on="0"/>
        <pt x="1059" y="1041" on="1"/>
        <pt x="1057" y="1058" on="0"/>
        <pt x="1053" y="1083" on="0"/>
        <pt x="1049" y="1097" on="1"/>
        <pt x="1041" y="1120" on="0"/>
        <pt x="1026" y="1164" on="0"/>
        <pt x="1017" y="1185" on="1"/>
        <pt x="1008" y="1199" on="0"/>
        <pt x="999" y="1241" on="0"/>
        <pt x="990" y="1254" on="1"/>
        <pt x="989" y="1256" on="0"/>
        <pt x="980" y="1265" on="0"/>
        <pt x="970" y="1274" on="0"/>
        <pt x="961" y="1282" on="0"/>
        <pt x="960" y="1284" on="1"/>
        <pt x="943" y="1298" on="0"/>
        <pt x="920" y="1324" on="0"/>
        <pt x="900" y="1337" on="1"/>
        <pt x="882" y="1344" on="0"/>
        <pt x="844" y="1354" on="0"/>
        <pt x="818" y="1358" on="1"/>
        <pt x="804" y="1358" on="0"/>
        <pt x="780" y="1363" on="0"/>
        <pt x="763" y="1363" on="1"/>
        <pt x="746" y="1362" on="0"/>
        <pt x="714" y="1358" on="0"/>
        <pt x="697" y="1356" on="1"/>
        <pt x="687" y="1356" on="0"/>
        <pt x="675" y="1353" on="1"/>
        <pt x="658" y="1349" on="0"/>
        <pt x="622" y="1321" on="0"/>
        <pt x="609" y="1313" on="1"/>
        <pt x="592" y="1304" on="0"/>
        <pt x="568" y="1289" on="0"/>
        <pt x="554" y="1275" on="1"/>
        <pt x="540" y="1258" on="0"/>
        <pt x="514" y="1235" on="0"/>
        <pt x="504" y="1213" on="1"/>
        <pt x="499" y="1204" on="0"/>
        <pt x="485" y="1189" on="0"/>
        <pt x="483" y="1173" on="1"/>
        <pt x="481" y="1166" on="0"/>
        <pt x="473" y="1147" on="0"/>
        <pt x="463" y="1128" on="0"/>
        <pt x="454" y="1111" on="0"/>
        <pt x="452" y="1107" on="1"/>
        <pt x="447" y="1097" on="0"/>
        <pt x="443" y="1085" on="0"/>
        <pt x="439" y="1073" on="0"/>
        <pt x="434" y="1056" on="0"/>
        <pt x="429" y="1041" on="1"/>
        <pt x="427" y="1035" on="0"/>
        <pt x="419" y="1017" on="0"/>
        <pt x="417" y="1010" on="1"/>
        <pt x="415" y="1008" on="0"/>
        <pt x="415" y="1001" on="0"/>
        <pt x="415" y="998" on="1"/>
        <pt x="421" y="953" on="1"/>
        <pt x="419" y="941" on="1"/>
        <pt x="417" y="932" on="0"/>
        <pt x="417" y="921" on="0"/>
        <pt x="417" y="917" on="1"/>
        <pt x="417" y="877" on="1"/>
        <pt x="474" y="848" on="1"/>
        <pt x="485" y="850" on="0"/>
        <pt x="501" y="851" on="0"/>
        <pt x="510" y="851" on="1"/>
        <pt x="568" y="851" on="1"/>
        <pt x="585" y="851" on="0"/>
        <pt x="620" y="839" on="0"/>
        <pt x="638" y="839" on="1"/>
        <pt x="641" y="839" on="0"/>
        <pt x="651" y="840" on="0"/>
        <pt x="676" y="841" on="0"/>
        <pt x="723" y="843" on="0"/>
        <pt x="763" y="844" on="1"/>
        <pt x="785" y="851" on="0"/>
        <pt x="819" y="851" on="0"/>
        <pt x="846" y="853" on="1"/>
        <pt x="850" y="851" on="0"/>
        <pt x="860" y="851" on="0"/>
        <pt x="865" y="851" on="1"/>
        <pt x="883" y="851" on="0"/>
        <pt x="910" y="853" on="0"/>
        <pt x="926" y="855" on="1"/>
        <pt x="1004" y="858" on="1"/>
        <pt x="1009" y="851" on="0"/>
        <pt x="1012" y="840" on="0"/>
        <pt x="1012" y="830" on="1"/>
        <pt x="1012" y="822" on="0"/>
        <pt x="999" y="796" on="0"/>
        <pt x="981" y="782" on="1"/>
        <pt x="977" y="778" on="0"/>
        <pt x="971" y="777" on="0"/>
        <pt x="967" y="777" on="1"/>
        <pt x="959" y="777" on="0"/>
        <pt x="937" y="779" on="0"/>
        <pt x="929" y="782" on="1"/>
        <pt x="901" y="782" on="1"/>
        <pt x="887" y="782" on="0"/>
        <pt x="865" y="777" on="0"/>
        <pt x="850" y="773" on="1"/>
        <pt x="847" y="772" on="0"/>
        <pt x="838" y="772" on="0"/>
        <pt x="834" y="772" on="1"/>
        <pt x="826" y="772" on="0"/>
        <pt x="815" y="772" on="0"/>
        <pt x="810" y="773" on="1"/>
        <pt x="786" y="777" on="1"/>
        <pt x="735" y="768" on="1"/>
        <pt x="630" y="765" on="1"/>
        <pt x="618" y="765" on="0"/>
        <pt x="603" y="768" on="0"/>
        <pt x="590" y="771" on="0"/>
        <pt x="574" y="775" on="0"/>
        <pt x="562" y="777" on="1"/>
        <pt x="557" y="774" on="0"/>
        <pt x="540" y="772" on="0"/>
        <pt x="531" y="772" on="1"/>
        <pt x="514" y="772" on="0"/>
        <pt x="480" y="778" on="0"/>
        <pt x="471" y="782" on="1"/>
      </contour>
    </TTGlyph>
</ttFont>
